<?xml version="1.0" encoding="UTF-8" standalone="no"?>
<!-- Created with Inkscape (http://www.inkscape.org/) -->

<svg
   xmlns:dc="http://purl.org/dc/elements/1.1/"
   xmlns:cc="http://creativecommons.org/ns#"
   xmlns:rdf="http://www.w3.org/1999/02/22-rdf-syntax-ns#"
   xmlns:svg="http://www.w3.org/2000/svg"
   xmlns="http://www.w3.org/2000/svg"
   xmlns:sodipodi="http://sodipodi.sourceforge.net/DTD/sodipodi-0.dtd"
   xmlns:inkscape="http://www.inkscape.org/namespaces/inkscape"
   width="210mm"
   height="297mm"
   viewBox="0 0 744.09448819 1052.3622047"
   id="svg2"
   version="1.1"
   inkscape:version="0.91 r13725">
  <defs
     id="defs4" />
  <sodipodi:namedview
     id="base"
     pagecolor="#ffffff"
     bordercolor="#666666"
     borderopacity="1.0"
     inkscape:pageopacity="0.0"
     inkscape:pageshadow="2"
     inkscape:zoom="0.35"
     inkscape:cx="-289.28571"
     inkscape:cy="514.28571"
     inkscape:document-units="px"
     inkscape:current-layer="layer1"
     showgrid="false"
     inkscape:window-width="1920"
     inkscape:window-height="1051"
     inkscape:window-x="1366"
     inkscape:window-y="0"
     inkscape:window-maximized="1" />
  <metadata
     id="metadata7">
    <rdf:RDF>
      <cc:Work
         rdf:about="">
        <dc:format>image/svg+xml</dc:format>
        <dc:type
           rdf:resource="http://purl.org/dc/dcmitype/StillImage" />
        <dc:title></dc:title>
      </cc:Work>
    </rdf:RDF>
  </metadata>
  <g
     inkscape:label="Layer 1"
     inkscape:groupmode="layer"
     id="layer1">
     <path horiz-adv-x="1664" d="M128 -128h288v288h-288v-288zM480 -128h320v288h-320v-288zM128 224h288v320h-288v-320zM480 224h320v320h-320v-320zM128 608h288v288h-288v-288zM864 -128h320v288h-320v-288zM480 608h320v288h-320v-288zM1248 -128h288v288h-288v-288zM864 224h320v320h-320v-320z M512 1088v288q0 13 -9.5 22.5t-22.5 9.5h-64q-13 0 -22.5 -9.5t-9.5 -22.5v-288q0 -13 9.5 -22.5t22.5 -9.5h64q13 0 22.5 9.5t9.5 22.5zM1248 224h288v320h-288v-320zM864 608h320v288h-320v-288zM1248 608h288v288h-288v-288zM1280 1088v288q0 13 -9.5 22.5t-22.5 9.5h-64 q-13 0 -22.5 -9.5t-9.5 -22.5v-288q0 -13 9.5 -22.5t22.5 -9.5h64q13 0 22.5 9.5t9.5 22.5zM1664 1152v-1280q0 -52 -38 -90t-90 -38h-1408q-52 0 -90 38t-38 90v1280q0 52 38 90t90 38h128v96q0 66 47 113t113 47h64q66 0 113 -47t47 -113v-96h384v96q0 66 47 113t113 47 h64q66 0 113 -47t47 -113v-96h128q52 0 90 -38t38 -90z" />
</g>
</svg>
