<?xml version="1.0" standalone="no"?>
<!DOCTYPE svg PUBLIC "-//W3C//DTD SVG 1.1//EN" "http://www.w3.org/Graphics/SVG/1.1/DTD/svg11.dtd" >
<svg xmlns="http://www.w3.org/2000/svg">
<metadata>Generated by IcoMoon</metadata>
<defs>
<font id="font-porter" horiz-adv-x="1024">
<font-face units-per-em="1024" ascent="960" descent="-64" />
<missing-glyph horiz-adv-x="1024" />
<glyph unicode="&#x20;" horiz-adv-x="512" d="" />
<glyph unicode="&#xe900;" glyph-name="bell" horiz-adv-x="1094" d="M29.624 173.953l-4.558 17.809c-2.279 11.13-2.279 22.261-2.279 31.165 0 282.713 234.715 512 524.121 512s524.121-229.287 524.121-512c0-4.452-2.279-48.974-2.279-48.974h-1039.127zM68.364 218.474h957.091v4.452c0 258.226-214.206 467.478-478.545 467.478s-478.545-209.252-478.545-467.478v-4.452zM1093.818-68.691h-1093.818v184.765h1093.818v-184.765zM45.576-24.169h1002.667v95.722h-1002.667v-95.722zM546.909 750.509c-54.691 0-100.267 44.522-100.267 97.948s45.576 97.948 100.267 97.948c54.691 0 100.267-44.522 100.267-97.948s-45.576-97.948-100.267-97.948v0zM546.909 901.883c-29.624 0-54.691-24.487-54.691-53.426s25.067-53.426 54.691-53.426c29.624 0 54.691 24.487 54.691 53.426s-25.067 53.426-54.691 53.426v0zM232.436 363.17l-41.018 17.809c4.558 8.904 93.43 202.574 287.127 238.191l9.115-44.522c-170.909-31.165-252.945-209.252-255.224-211.478v0z" />
<glyph unicode="&#xe901;" glyph-name="clock" d="M512-73.143c-282.304 0-512 229.696-512 512 0 282.325 229.696 512 512 512s512-229.675 512-512c0-282.304-229.696-512-512-512v0zM512 908.212c-258.795 0-469.333-210.56-469.333-469.355 0-258.773 210.539-469.312 469.333-469.312s469.333 210.539 469.333 469.312c0 258.795-210.539 469.355-469.333 469.355v0zM682.667 225.524c-5.867 0-11.733 2.432-15.936 7.168l-170.667 192c-0.704 0.768-0.96 1.749-1.515 2.581-0.875 1.323-1.792 2.581-2.368 4.075-0.555 1.451-0.661 2.923-0.896 4.437-0.149 1.045-0.619 1.984-0.619 3.072v298.667c0 11.776 9.536 21.355 21.333 21.355s21.333-9.579 21.333-21.355v-290.56l165.269-185.92c7.829-8.811 7.040-22.293-1.771-30.123-4.053-3.605-9.131-5.397-14.165-5.397v0z" />
<glyph unicode="&#xe902;" glyph-name="drill" horiz-adv-x="1170" d="M993.245 829.308c0 67.024-54.656 121.549-121.839 121.549h-446.743c-22.428 0-40.613-18.139-40.613-40.516h-81.226c-22.428 0-40.613-18.139-40.613-40.516v-81.033h-40.613c0 5.183-1.983 10.367-5.949 14.323-7.932 7.913-20.782 7.913-28.715 0l-14.357-14.323h-32.205c0 5.183-1.983 10.367-5.949 14.323-7.932 7.913-20.782 7.913-28.715 0l-14.357-14.323h-52.511c-11.17 0-20.307-9.115-20.307-20.258 0-11.141 9.137-20.258 20.307-20.258h20.307c0-5.183 1.983-10.367 5.949-14.323s9.162-5.935 14.357-5.935c5.196 0 10.391 1.978 14.357 5.935l14.357 14.323h32.205c0-5.183 1.983-10.367 5.949-14.323s9.162-5.935 14.357-5.935c5.196 0 10.391 1.978 14.357 5.935l14.357 14.323h72.818v-81.033c0-22.375 18.185-40.516 40.613-40.516h81.226c0-39.282 28.467-81.033 81.226-81.033h243.678v-40.516c0-22.375 18.185-40.516 40.613-40.516v-40.516c0-22.375 18.185-40.516 40.613-40.516h40.613c0-69.964 12.349-116.947 25.239-146.939-27.698-18.129-41.126-36.441-35.301-61.277 1.909-8.138 11.192-34.71 50.499-34.881h122.015c0-67.306-50.409-162.068-162.452-162.068-114.819 0-183.353 67.145-255.854 138.247-72.897 71.458-148.293 145.369-272.115 145.369-227.1 0-241.543-89.447-242.059-92.058-2.3-10.92 4.759-21.683 15.745-23.938 10.788-2.453 21.695 4.708 23.995 15.708 0.476 2.255 7.86 59.772 202.318 59.772 107.204 0 173.478-64.969 243.638-133.736 75.158-73.673 152.894-149.879 284.331-149.879 127.114 0 203.065 102.993 203.065 202.582h40.611c24.359 0 56.539 13.302 71.536 76.676 30.413 128.528-9.187 490.147-152.76 594.153v17.951zM302.823 667.242v202.582h81.226v-40.516h-20.307c-11.17 0-20.307-9.115-20.307-20.258 0-11.141 9.137-20.258 20.307-20.258h20.307v-40.516h-20.307c-11.17 0-20.307-9.115-20.307-20.258 0-11.141 9.137-20.258 20.307-20.258h20.307v-40.516h-81.226zM790.179 424.143v81.033h-40.613v40.516h81.226v-121.549h-40.613zM871.405 181.044c-40.174 0.176 40.613 40.514 40.613 40.514s-40.613 40.519-40.613 162.063v162.071c0 22.378-18.182 40.516-40.613 40.516h-365.517c-40.613 0-40.613 40.516-40.613 40.516v283.615h446.743c44.862 0 81.226-36.28 81.226-81.033v-40.516c162.452-81.033 203.065-607.747 121.839-607.747 0 0-189.047 0.002-203.065 0zM851.099 788.801h-365.517c-11.17 0-20.307-9.118-20.307-20.258 0-11.143 9.137-20.258 20.307-20.258h365.517c11.17 0 20.307 9.115 20.307 20.258 0 11.141-9.137 20.258-20.307 20.258v0z" />
<glyph unicode="&#xe903;" glyph-name="grocery-bag" horiz-adv-x="808" d="M750.215 501.375c35.75 116.053 55.332 229.771 58.206 338.1 0.719 31.079-12.755 66.291-33.594 87.848-24.971 25.51-58.925 30.9-92.34 13.653-53.715-27.846-92.16-109.227-123.060-174.799-1.796-3.773-3.593-7.545-5.21-11.138-6.827 31.259-27.486 58.027-56.949 72.039-7.006 33.415-33.415 59.464-66.65 66.291-0.359 1.796-0.898 3.773-1.437 5.569-6.827 23.354-27.486 40.96-51.38 43.834-13.833 1.617-26.947-1.258-38.265-7.905-9.701 5.389-20.66 8.264-31.798 8.264-31.259 0-57.488-21.738-64.314-51.020-34.133-9.342-59.284-40.601-59.464-77.069-38.984-10.060-67.368-45.272-67.368-87.13 0-11.138 2.156-22.097 6.108-32.516-10.060-12.575-15.629-28.205-15.629-44.553 0-9.881 1.976-19.402 5.928-28.025-17.965 19.582-43.116 35.571-71.5 34.493-9.881-0.359-17.785-8.623-17.426-18.504 0.359-9.701 8.264-17.426 17.965-17.426h1.796c16.887 0 32.516-11.138 43.834-24.073-28.564-8.264-62.877-21.558-78.866-51.739-9.701-18.145-10.779-40.421-4.491-65.931-3.234-5.21-4.671-11.318-4.491-17.965l30.72-434.212c2.874-54.434 47.787-97.19 102.22-97.19h504.275c54.613 0 99.526 42.756 102.22 96.831l31.439 450.021c0.359 6.467-1.976 12.755-6.467 17.426-3.593 3.952-8.623 6.108-14.013 6.827v0zM568.949 703.66c7.186 13.294 14.911 29.822 23.175 47.248 26.947 57.308 63.955 135.815 106.891 157.912 19.402 10.060 35.93 7.905 50.122-6.647 15.989-16.348 23.893-43.475 23.534-61.799-2.695-106.173-22.097-217.914-57.667-332.171-1.078-3.773-3.773-11.318-7.366-21.738l-30.54-13.653c-0.719-0.359-1.258-0.719-1.976-1.078-8.623-5.21-18.684-7.725-28.744-7.905-10.060 0.18-19.941 2.695-28.744 7.905l-12.755 7.725c-14.372 8.623-30.9 13.294-47.787 13.294-4.491 0-8.982-0.359-13.474-1.078-12.396-1.617-24.612-5.749-35.391-12.216l-12.755-7.725c-7.006-4.132-14.911-6.288-22.995-7.186 0.359 1.437 0.898 2.695 1.258 3.952 5.030 16.887 10.42 33.774 15.989 50.302 1.976 6.108 4.132 12.036 6.288 18.145 4.671 13.114 9.521 26.229 14.731 39.164 2.156 5.569 4.312 11.138 6.467 16.528 15.27 38.445 32.696 75.453 51.739 111.023v0zM332.89 734.021c-3.952-0.898-8.084 1.796-8.803 5.749-0.898 3.952 1.796 7.905 5.749 8.803l100.783 21.917c3.413 0 6.467-2.515 7.366-5.928 0.539-2.515-0.359-4.671-1.078-5.569-0.539-0.898-1.976-2.695-4.671-3.234l-99.346-21.738zM339.896 661.083c2.156 2.695 4.132 5.389 6.108 7.905 1.437 1.976 2.695 3.773 3.773 5.749 4.491 8.264 5.389 17.606 3.413 26.768l74.914 16.348c0.539-2.335 1.078-4.491 1.976-6.647 3.413-8.264 9.342-15.091 17.785-19.941 2.695-1.437 5.569-3.054 8.444-4.491 2.335-1.258 4.851-2.695 7.366-3.952 1.258-0.719 2.335-1.258 3.593-1.976 2.156-1.258 4.132-2.515 6.288-3.773 1.796-1.078 3.593-2.156 5.21-3.413 1.976-1.437 3.952-2.874 5.749-4.491 1.617-1.437 3.234-2.874 4.851-4.312 1.796-1.617 3.413-3.413 5.030-5.21 2.695-3.234 5.389-6.827 7.545-10.779-7.545-16.887-14.731-33.954-21.738-51.2-1.078-2.695-2.156-5.21-3.234-7.905-19.761-5.030-38.804-14.372-62.159-31.079-29.642-21.019-51.739-26.588-88.028-21.378l-10.959 49.942c-7.545 33.594 8.623 54.074 24.073 73.836v0zM334.686 500.297c5.21-0.359 10.24-0.898 15.091-0.898 31.259 0 56.589 9.342 85.513 30.001 9.162 6.467 17.246 11.498 24.971 15.45-1.617-4.671-3.234-9.342-4.851-14.013-1.078-3.413-2.335-6.647-3.593-10.060-5.21-15.989-10.24-32.157-15.091-48.326l-11.857 7.186c-14.372 8.623-30.9 13.294-47.787 13.294-4.312 0-8.623-0.359-12.935-1.078-1.078-0.18-1.976-0.359-3.054-0.539l-5.928-1.078c-5.928-1.258-11.677-3.054-17.246-5.569l-3.234 15.629zM156.115 678.15l11.677 9.701-7.725 13.114c-4.851 8.264-7.366 17.606-7.366 27.127 0 29.103 22.815 52.817 51.919 54.074l21.738 0.898-5.030 21.199c-0.898 3.593-1.258 7.006-1.258 10.42 0 23.175 18.145 42.577 41.14 44.373l16.528 1.258v17.965c0.539 16.168 13.833 29.103 30.181 29.103 9.342 0 16.168-4.312 20.121-7.905l12.575-11.318 12.036 11.857c5.569 5.389 12.935 8.084 21.019 7.186 9.701-1.078 18.324-8.623 21.199-18.324 0.898-3.234 1.258-6.288 0.898-9.521l-2.156-20.121h20.3c25.869 0 47.427-20.121 49.224-45.99l0.898-11.857 11.138-3.952c28.025-9.881 46.529-36.469 45.99-66.111-0.18-12.755-4.312-24.971-11.857-35.571-12.036 10.24-24.971 17.067-35.93 22.815-2.874 1.437-5.569 2.874-8.264 4.491-0.719 0.359-1.617 1.258-1.976 3.054-0.359 2.515 0.539 5.749 2.515 7.905 7.905 9.162 10.959 21.558 8.444 33.235l-2.156 9.881c-4.312 20.121-25.51 33.774-45.631 29.283l-5.030-1.078h-0.18l-52.817-11.498-51.38-11.318c-20.66-4.491-33.774-24.971-29.283-45.631l2.156-9.701c2.695-12.036 10.959-22.097 22.276-26.947 2.874-1.258 5.21-3.413 5.928-5.749 0.539-1.258 0.18-1.976-0.898-3.773-1.796-2.335-3.773-4.851-5.569-7.366-1.976-2.515-4.132-5.21-6.108-7.905-0.719-0.898-1.258-1.796-1.976-2.515-1.617-2.156-3.054-4.312-4.671-6.467-0.719-1.078-1.437-2.335-2.335-3.413-1.437-2.156-2.695-4.312-3.952-6.647-0.719-1.258-1.437-2.515-2.156-3.773-1.437-2.515-2.515-5.21-3.773-7.905-0.539-1.078-1.078-2.156-1.437-3.413-1.617-3.952-3.054-8.084-4.132-12.396-0.18-0.719-0.18-1.437-0.359-1.976-0.898-3.773-1.617-7.545-1.976-11.498-0.18-1.617-0.18-3.234-0.359-4.851-0.18-2.156-0.359-4.132-0.359-6.288-0.539 0.719-1.078 1.258-1.617 1.976-1.258 1.617-2.335 2.874-3.593 4.491-2.695 3.234-5.389 6.467-8.084 9.342-1.258 1.437-2.695 2.874-3.952 4.132-2.874 2.874-5.749 5.569-8.444 7.905-1.078 0.898-2.156 1.976-3.234 2.874-3.773 3.054-7.545 5.749-11.498 8.264-1.078 0.719-2.335 1.258-3.593 1.976-2.874 1.617-5.569 3.054-8.444 4.132-1.617 0.719-3.054 1.258-4.671 1.796-2.515 0.898-5.21 1.617-7.725 2.335-1.617 0.359-3.054 0.719-4.671 1.078-3.234 0.539-6.467 0.898-9.881 0.898-0.719 0-1.437 0.18-2.335 0.18-18.684 0-35.75-7.366-50.661-17.067-1.617 4.132-2.515 8.444-2.515 12.935 0.18 10.060 4.851 19.941 13.114 26.588v0zM40.601 529.041c7.545 14.372 26.049 25.331 58.027 34.493 14.911 4.312 28.924 12.216 40.241 22.995 5.030 4.851 9.701 8.982 14.372 12.755 4.132 3.413 8.084 6.288 11.857 8.803 0.18 0.18 0.359 0.18 0.359 0.18 7.545 4.851 14.552 8.084 21.019 9.881 0.18 0 0.539 0.18 0.719 0.18 3.234 0.719 6.288 1.258 9.342 1.258 22.636 0 46.888-22.456 72.039-67.009 13.294-23.354 17.606-57.667 11.857-87.669-1.258 0.18-2.695 0.359-3.952 0.539-6.467 1.258-12.755 3.234-18.324 6.647l-12.755 7.725c-14.372 8.623-30.9 13.294-47.787 13.294-4.491 0-8.982-0.359-13.474-1.078-12.396-1.617-24.612-5.749-35.391-12.216l-6.288-3.773c-10.599-6.467-22.995-9.521-35.211-9.701-12.396-0.18-24.612 3.054-35.391 9.342l-24.253 14.552c-3.234 1.796-6.647 3.234-10.060 3.773-2.695 14.372-1.796 25.869 3.054 35.032v0zM703.506 29.257c-1.796-35.391-30.9-63.057-66.291-63.057h-504.275c-35.391 0-64.494 27.666-66.47 63.416l-29.822 424.691 15.629-9.342c16.528-9.881 35.75-14.911 54.973-14.731 19.222-0.18 38.265 4.851 54.973 14.731l6.288 3.773c8.623 5.21 18.684 7.725 28.744 7.905 10.060-0.18 19.941-2.695 28.744-7.905l12.755-7.725c10.959-6.647 23.354-10.599 36.109-12.216 4.132-0.539 8.444-0.898 12.755-0.898 2.874 0 5.928 0.18 8.803 0.359 0.719 0 1.258 0.359 1.976 0.539 11.857 1.437 23.534 5.21 33.954 11.138 1.078 0.359 2.156 0.359 3.234 0.898l12.755 7.725c8.623 5.21 18.684 7.725 28.744 7.905 10.060-0.18 19.941-2.695 28.744-7.905l12.755-7.725c12.036-7.186 25.51-11.138 39.343-12.396 0.719 0 1.258-0.18 1.976-0.359h0.18c0.359 0 1.437-0.18 1.437-0.18h3.593c3.593 0 7.006 0.18 10.599 0.539 4.671 0.359 9.342 1.258 14.013 2.335 0.719 0.18 1.617 0.359 2.335 0.539 8.264 2.156 16.168 5.030 23.534 9.521l12.755 7.725c8.623 5.21 18.684 7.725 28.744 7.905 10.060-0.18 19.941-2.695 28.744-7.905l12.755-7.725c10.779-6.467 22.815-10.599 35.211-12.216 4.491-0.719 9.162-1.078 13.653-1.078 16.348 0 32.516 4.312 46.709 12.575l35.211 15.629c0.719 0.359 1.258 1.078 1.976 1.437l2.695 1.258-30.54-429.182zM107.789 178.545h125.754c9.881 0 17.965 8.084 17.965 17.965s-8.084 17.965-17.965 17.965h-125.754c-9.881 0-17.965-8.084-17.965-17.965s8.084-17.965 17.965-17.965v0zM107.789 106.686h161.684c9.881 0 17.965 8.084 17.965 17.965s-8.084 17.965-17.965 17.965h-161.684c-9.881 0-17.965-8.084-17.965-17.965s8.084-17.965 17.965-17.965v0zM305.404 70.756h-197.614c-9.881 0-17.965-8.084-17.965-17.965s8.084-17.965 17.965-17.965h197.614c9.881 0 17.965 8.084 17.965 17.965s-8.084 17.965-17.965 17.965v0z" />
<glyph unicode="&#xe904;" glyph-name="hand-banknotes" horiz-adv-x="1138" d="M1078.711 99.536l-287.756-158.987c-3.482-1.919-7.431-2.925-11.45-2.925h-0.467c-6.146 0.117-151.613 3.393-241.183 32.738-28.883 9.454-63.421 22.091-96.814 34.306-60.57 22.161-135.956 49.751-157.945 49.751-25.892 0-134.063-28.105-196.129-45.819-6.309-1.802-13.063-0.913-18.671 2.457s-9.558 8.892-10.913 15.234l-50.078 238.691c-2.524 12.098 4.861 24.056 16.872 27.309 311.054 84.384 471.733 66.436 478.37 65.64 1.472-0.187 2.921-0.515 4.346-0.959l281.212-89.181c0.444-0.14 0.748-0.491 1.168-0.655 0.444-0.164 0.911-0.094 1.355-0.304 28.462-12.73 47.624-38.308 54.471-67.278l158.296 80.874c0.304 0.14 0.654 0.117 0.958 0.257 0.257 0.117 0.421 0.351 0.678 0.468 23.415 9.805 49.167 9.782 72.535-0.070 24.209-10.179 42.904-29.556 52.602-54.501 19.302-49.563-3.786-106.217-51.457-127.044v0zM1086.258 209.755c-5.094 13.058-14.722 23.097-27.084 28.315-11.497 4.844-24.046 4.844-35.496 0.14l-180.776-92.341c-0.818-2.598-1.285-5.218-2.337-7.746-10.235-24.735-29.327-43.69-53.747-53.331-11.147-4.423-22.807-6.646-34.421-6.646-12.525 0-25.027 2.574-36.898 7.652l-268.57 86.561c-12.362 3.978-19.162 17.176-15.119 29.415 4.019 12.286 17.292 18.978 29.654 15.023l269.715-86.912c0.818-0.281 1.612-0.585 2.384-0.936 11.497-5.125 24.209-5.382 35.823-0.772 12.479 4.938 22.27 14.743 27.621 27.683 10.866 26.256-0.444 56.56-25.168 68.050l-276.913 87.824c-18.811 1.661-167.807 11.63-436.961-58.807l40.404-192.591c48.746 13.479 151.916 40.788 184.725 40.788 28.346 0 84.733-19.868 174.256-52.629 33.019-12.098 67.137-24.571 95.249-33.791 73.025-23.916 192.53-29.228 221.11-30.187l283.129 156.413c0.748 0.398 1.496 0.772 2.29 1.1 25.331 10.624 37.506 41.022 27.13 67.723v0zM1056.604 428.907l-625.963 1.123c-13.016 0-28.346 9.384-28.346 22.278v374.417c0 12.894 15.33 23.775 28.346 23.775l625.963-0.374c13.016 0 23.368-10.507 23.368-23.401v-374.417c0-12.894-10.352-23.401-23.368-23.401v0zM1033.236 803.347h-584.204v-327.638h584.204v327.638zM736.741 757.060c51.947 0 94.197-52.395 94.197-116.771 0-64.4-42.25-116.795-94.197-116.795s-94.174 52.395-94.174 116.795c0 64.376 42.226 116.771 94.174 116.771v0zM736.741 570.202c25.518 0 47.087 32.083 47.087 70.086 0 37.98-21.569 70.063-47.087 70.063s-47.087-32.083-47.087-70.063c0-38.003 21.569-70.086 47.087-70.086v0zM948.667 897.232l-593.107-0.304v-351.016c0-12.894-6.076-22.418-19.092-22.418s-27.645 9.524-27.645 22.418v374.417c0 12.917 14.628 23.635 27.645 23.635h612.199c13.016 0 23.532-10.484 23.532-23.354 0-12.917-10.516-23.378-23.532-23.378v0z" />
<glyph unicode="&#xe905;" glyph-name="like" d="M1021.381 476.176l-58.49-464.81c-5.11-46.46-47.524-84.509-94.495-84.509h-363.629c-41.371 0-98.668 20.803-130.522 47.354l-117.342 98.030v-38.901c0-11.775-9.496-21.314-21.25-21.314h-212.539c-11.753 0-21.271 9.539-21.271 21.314v547.509c0 11.753 9.667 27.361 21.42 27.361h212.923c11.753 0 20.717-15.607 20.717-27.361v-15.203h107.27c12.648 62.471 55.552 272.839 65.665 304.841 14.394 45.438 61.407 78.419 111.784 78.419 65.623 0 119.002-53.486 119.002-119.237v-264.024h280.76c23.698 0 45.161-9.39 60.406-26.424 15.224-17.055 22.165-39.433 19.589-63.046v0zM44.556 565.646l-0.192-511.036h170.040l0.49 511.036h-170.338zM970.109 510.797c-7.048 7.899-17.268 12.264-28.723 12.264h-302.009c-11.753 0-21.271 9.518-21.271 21.271 0 2.342 0.639 4.493 1.341 6.601v270.22c0 0.319 0.149 0.745 0.17 1.086-0.873 2.321-1.512 4.791-1.512 7.431 0 42.265-34.323 76.631-76.482 76.631-31.832 0-62.471-20.93-71.265-48.674-9.113-28.787-52.166-238.942-67.986-317.51-2.001-9.922-10.731-17.055-20.824-17.055h-124.645v-395.376l144.553-120.748c24.337-20.313 71.67-37.474 103.31-37.474h363.629c25.529 0 49.483 21.463 52.294 46.886l58.469 464.831c1.235 11.072-1.959 21.718-9.049 29.618v0z" />
<glyph unicode="&#xe906;" glyph-name="lock2" horiz-adv-x="860" d="M795.648-73.143h-731.136c-35.568 0-64.512 28.736-64.512 64.021v554.667c0 35.285 28.944 63.979 64.512 63.979h107.52v85.355c0 141.163 115.756 255.979 258.048 255.979s258.048-114.816 258.048-255.979v-85.355h107.52c35.568 0 64.512-28.693 64.512-63.979v-554.667c0-35.285-28.944-64.021-64.512-64.021v0zM430.080 908.19c-118.573 0-215.040-95.68-215.040-213.312v-85.355h430.080v85.355c0 117.632-96.467 213.312-215.040 213.312v0zM817.152 545.545c0 11.776-9.655 21.333-21.504 21.333h-731.136c-11.849 0-21.504-9.557-21.504-21.333v-554.667c0-11.776 9.655-21.355 21.504-21.355h731.136c11.849 0 21.504 9.579 21.504 21.355v554.667zM451.584 272.137v-110.592c0-11.797-9.634-21.333-21.504-21.333s-21.504 9.536-21.504 21.333v110.592c-24.988 8.832-43.008 32.299-43.008 60.075 0 35.307 28.944 64 64.512 64s64.512-28.693 64.512-64c0-27.776-18.042-51.243-43.008-60.075v0zM430.080 353.545c-11.849 0-21.504-9.579-21.504-21.333s9.655-21.355 21.504-21.355c11.849 0 21.504 9.6 21.504 21.355s-9.655 21.333-21.504 21.333v0z" />
<glyph unicode="&#xe907;" glyph-name="moving-box" d="M1009.515 158.665l-445.504-228.821c-0.213-0.107-0.427-0.128-0.661-0.149-2.709-1.301-5.675-2.133-8.875-2.155-0.021 0-0.043-0.021-0.064-0.021h-0.064c-2.965 0-5.76 0.619-8.32 1.707-0.021 0.021-0.021 0-0.043 0.021l-530.368 228.8c-7.787 3.371-15.616 16.939-15.616 25.472v512c0 4.779 2.901 11.456 6.549 16.661 0.917 1.408 1.941 2.624 3.179 3.797 0.875 0.875 1.728 1.899 2.581 2.475 0.32 0.192 0.704 0.171 1.024 0.363 0.427 0.256 0.704 0.661 1.152 0.896l455.424 228.843c5.632 2.816 12.224 2.987 17.984 0.469l520.469-228.864c0.533-0.235 0.875-0.704 1.387-0.981 0.384-0.192 0.832-0.128 1.195-0.363 0.597-0.363 0.853-1.045 1.408-1.472 1.899-1.429 3.477-3.051 4.757-4.971 0.576-0.832 1.131-1.557 1.557-2.453 1.344-2.731 2.176-5.632 2.261-8.704 0-0.192 0.149-0.363 0.149-0.576v-523.008c0-8-4.48-15.339-11.563-18.965v0zM42.667 183.518l490.475-202.859v477.248l-490.475 216.256v-490.645zM74.347 702.11l479.232-206.741 171.755 88.213-473.045 207.957-177.941-89.429zM480 905.95l-178.325-89.6 472.469-207.701 176.192 90.496-470.336 206.805zM981.333 674.164l-194.816-103.296c-2.816-2.645-6.208-4.459-9.941-5.269l-201.003-106.603v-475.925l405.76 200.448v490.645z" />
<glyph unicode="&#xe908;" glyph-name="needle-and-thread" horiz-adv-x="660" d="M416.882 480.941h-396.547c-8.541 0-15.252-6.704-15.252-15.236v-45.708c0-5.485 3.050-10.97 8.541-13.408l52.466-26.206v-346.773l-52.466-26.206c-5.491-3.047-8.541-8.532-8.541-14.017v-45.708c0-8.532 6.711-15.236 15.252-15.236h396.547c8.541 0 15.252 6.704 15.252 15.236v45.708c0 5.485-3.050 10.97-8.541 13.408l-52.466 26.206v347.383l52.466 26.206c4.881 2.438 8.541 7.923 8.541 13.408v45.708c0 8.532-6.711 15.236-15.252 15.236v0zM401.631-15.755v-21.331h-366.043v21.331l49.416 24.378h267.211l49.416-24.378zM340.623 313.345v-30.472h-244.029v30.472h244.029zM96.595 343.817v30.472h244.029v-30.472h-244.029zM340.623 252.4v-30.472h-244.029v30.472h244.029zM340.623 191.456v-30.472h-244.029v30.472h244.029zM340.623 130.512v-30.472h-244.029v30.472h244.029zM340.623 69.567v-30.472h-244.029v30.472h244.029zM401.631 429.139l-49.416-24.378h-267.211l-49.416 24.378v21.331h366.043v-21.331zM379.766 531.689c-23.622-29.702-42.37-43.983-66.078-51.51-17.621-5.594-97.204-1.652-97.204-1.652 7.858 0.458 15.644 1.431 23.322 2.895 44.8 8.546 85.906 33.844 115.961 71.477 35.207 44.083 50.295 100.062 41.26 153.889-7.454 46.898 9.662 93.135 42.030 124.897l-3.162 13.856c-6.056 19.996-1.543 42.912 10.88 61.33 23.681 35.109 69.957 45.767 102.732 23.66 17.193-11.597 28.414-30.89 29.992-52.889l0.773-13.92c8.687-3.347 16.985-7.27 24.507-12.343 28.477-19.208 47.726-49.777 52.853-85.058 0.745-4.69-0.509-8.868-3.227-12.897s-6.121-6.757-10.749-7.823c-9.255-2.132-17.852 3.667-18.805 12.684-3.786 26.839-17.991 49.819-39.483 64.316l-1.612 1.087 52.97-671.328c0.208-4.327-0.658-7.93-2.988-11.383s-6.121-6.757-10.749-7.823c-8.33-1.918-16.777 2.942-18.656 11.746l-156.628 647.455c-15.678-22.084-23.147-50.543-18.675-78.682 9.093-57.216-4.861-117.309-38.248-166.807-3.494-5.18-6.988-10.36-11.019-15.178zM549.548 836.715c-5.463 1.173-10.777 1.407-17.016 1.429l0.208-4.327c0.357-5.265-0.749-10.382-3.466-14.41-3.106-4.604-7.823-8.122-13.376-9.401-11.106-2.558-20.777 3.966-23.343 14.070l-8.441 35.003c-1.581 6.928-0.385 14.496 3.497 20.251 7.764 11.511 22.573 14.922 33.318 7.673 5.373-3.624 8.656-9.188 9.162-15.391 5.702 0.341 11.016 0.106 16.867-0.491-1.162 13.345-7.041 23.172-16.712 29.696-17.731 11.959-43.257 6.567-56.456-13.002-6.988-10.36-9.289-23.044-6.575-34.086l119.85-494.523-37.516 477.51z" />
<glyph unicode="&#xe909;" glyph-name="piggy-bank" d="M1002.667 267.457h-60.309c-21.781-60.373-64.512-116.963-118.379-156.078l39.381-109.948c3.925-10.969-1.707-23.001-12.651-27.062l-122.965-45.493c-5.355-1.998-11.221-1.743-16.384 0.638-5.163 2.36-9.173 6.718-11.115 12.032l-31.808 87.393c-39.36-10.629-82.539-16.411-123.733-16.411-38.315 0-80.427 5.804-120.555 16.496l-30.763-87.265c-1.877-5.357-5.867-9.779-11.051-12.181-2.859-1.361-5.952-2.020-9.067-2.020-2.517 0-5.013 0.446-7.445 1.318l-122.944 45.493c-10.944 4.060-16.597 16.093-12.672 27.062l38.464 107.397c-82.581 57.163-131.115 136.925-136.704 222.638-104.064 3.21-131.968 97.873-131.968 148.468 0 11.735 9.536 21.237 21.333 21.237s21.333-9.502 21.333-21.237c0.064-10.65 3.371-102.592 89.877-105.972 17.131 166.070 195.243 297.148 412.16 297.148 54.613 0 102.379-5.952 145.515-18.218 89.237 94.28 203.2 82.376 208.235 81.823 8.277-0.957 15.232-6.633 17.835-14.498 2.581-7.908 0.32-16.581-5.803-22.194-0.405-0.383-46.891-45.238-55.509-139.135 41.835-36.713 70.464-77.593 86.784-121.448h60.907c11.797 0 21.333-9.524 21.333-21.258v-127.465c0-11.735-9.536-21.258-21.333-21.258v0zM981.333 394.943h-54.144c-0.405 0-0.768 0.213-1.173 0.234-1.515 0.085-2.901 0.468-4.352 0.872-1.259 0.34-2.517 0.595-3.669 1.148-1.237 0.595-2.261 1.446-3.371 2.275-1.088 0.808-2.176 1.531-3.093 2.551-0.896 0.957-1.493 2.083-2.176 3.21-0.789 1.254-1.557 2.445-2.069 3.848-0.128 0.404-0.448 0.659-0.555 1.063-13.333 44.791-43.072 86.521-88.384 124.042-6.891 5.697-9.472 15.115-6.4 23.533 0.043 0.149 0.107 0.276 0.128 0.404 4.8 60.884 23.488 104.803 40.277 132.928-37.184-5.123-92.949-22.279-139.115-76.211-5.589-6.526-14.528-9.099-22.805-6.42-42.261 13.605-89.941 20.217-145.728 20.217-204.651 0-371.179-125.955-371.179-280.779 0-81.972 48.213-159.416 132.267-212.561 8.405-5.336 12.011-15.731 8.661-25.085l-36.971-103.294 82.859-30.676 30.229 85.82c3.776 10.778 15.573 16.709 26.496 13.223 41.856-13.053 87.189-20.259 127.637-20.259 43.883 0 90.155 7.185 130.325 20.217 10.901 3.529 22.72-2.211 26.667-12.968l31.339-86.096 83.072 30.739-35.819 99.999c-0.555 0.787-1.088 1.637-1.536 2.53-4.928 9.694-2.389 21.28 6.784 27.189 57.365 36.734 102.656 95.854 121.195 158.119 0.107 0.404 0.427 0.659 0.555 1.063 0.512 1.424 1.301 2.636 2.091 3.89 0.683 1.105 1.28 2.211 2.133 3.167 0.939 1.020 2.048 1.764 3.157 2.594 1.088 0.808 2.112 1.658 3.349 2.232 1.131 0.553 2.347 0.787 3.584 1.127 1.472 0.425 2.923 0.829 4.48 0.914 0.384 0.021 0.725 0.213 1.109 0.213h54.144v84.991zM725.333 480.592h64v-65.072h-64v65.072zM568.853 700.53c-11.605 2.083-19.307 13.116-17.237 24.681 2.048 11.331 3.051 21.45 3.051 30.888 0 81.993-67.008 148.723-149.333 148.723s-149.333-66.73-149.333-148.723c0-29.528 11.285-63.073 30.229-89.689 6.805-9.587 4.523-22.853-5.099-29.613-3.733-2.636-8.043-3.912-12.288-3.912-6.699 0-13.291 3.125-17.451 8.992-24.192 34.056-38.059 75.679-38.059 114.221 0 105.441 86.123 191.218 192 191.218s192-85.777 192-191.218c0-11.99-1.216-24.553-3.712-38.392-2.069-11.543-13.12-19.26-24.768-17.177v0z" />
<glyph unicode="&#xe90a;" glyph-name="shaking-hands" horiz-adv-x="1046" d="M1024.464 232.009h-97.651l6.517-9.303c0.763-1.024 26.636-36.45 26.636-77.824 0-45.819-22.451-81.898-61.642-98.958-14.146-6.144-27.791-8.802-40.717-8.802-19.596 0-37.535 6.079-53.25 15.12-3.117-21.744-13.078-46.124-41.088-64.49-18.593-12.179-37.622-18.279-56.76-18.279-6.278 0-12.555 0.654-18.854 1.961-23.824 4.989-42.526 18.737-55.212 30.981-7.607-14.118-19.705-28.868-40.39-39.086-21.187-10.501-40.652-14.532-57.784-14.532-34.614 0-59.789 16.384-70.95 29.064-9.743-13.203-22.952-24.946-40.455-34.751-20.794-11.634-39.802-16.188-56.672-16.188-39.191-0.044-66.852 24.663-78.382 42.943l-126.14 179.069c-13.732 22.463-58.983 83.075-96.278 83.075h-43.594c-12.054 0-21.797 9.739-21.797 21.765v501.063c0 12.027 9.743 21.787 21.797 21.787h130.783c30.69 0 55.583 9.434 87.058 21.395 51.594 19.587 115.83 43.945 239.899 43.945 4.185 0 7.891-1.482 11.204-3.53 2.594 2.68 5.558 5.708 8 8.214 58.089 60.002 79.821 82.465 133.376 82.465h64.41c109.334 0 140.134-20.698 196.065-58.237l10.986-7.342c98.937-65.95 132.308-90.068 133.682-91.049 5.667-4.118 9.002-10.676 9.002-17.648v-501.063c0-12.027-9.743-21.765-21.797-21.765v0zM255.135 757.277c-34.265-12.985-63.866-24.227-102.555-24.227h-108.986v-457.467h21.797c68.486 0 126.358-92.291 132.744-102.814l125.922-178.742c4.992-7.473 29.579-39.762 77.51-12.898 18.135 10.153 29.579 22.114 34.047 35.557 0.044 0.087 0.109 0.131 0.131 0.218l-126.641 180.834c-6.91 9.848-4.534 23.421 5.362 30.328 9.809 6.885 23.454 4.532 30.342-5.36l151.686-216.609c4.577-4.51 30.015-26.58 76.224-3.726 18.048 8.911 23.911 23.269 28.489 39.718l-139.523 199.201c-6.91 9.848-4.512 23.443 5.362 30.35 9.83 6.885 23.432 4.51 30.342-5.36l152.58-217.851c4.25-6.384 39.823-56.778 89.39-24.227 24.849 16.275 24.238 40.677 21.492 64.294l-0.196 1.83c-4.752 5.861-9.002 11.634-12.206 16.907l-133.725 176.999c-7.258 9.586-5.34 23.247 4.25 30.502 9.613 7.255 23.279 5.36 30.538-4.249l134.423-177.936c0.48-0.632 0.937-1.307 1.33-1.983 1.657-2.745 41.741-68.129 95.646-44.686 29.317 12.746 35.464 39.108 35.464 59 0 26.798-18.288 52.202-18.462 52.442l-291.907 416.768c-20.337-15.709-56.062-40.655-103.493-63.205-85.118-40.437-150.596-46.864-194.67-19.042-29.404 18.563-46.275 52.202-46.275 92.269 0 26.733 23.083 42.55 58.002 66.516 32.303 22.136 76.53 52.464 130.020 105.93 0.414 0.392 0.719 0.719 1.133 1.133-97.215-3.464-151.577-23.683-195.585-40.415v0zM1002.667 743.573c-15.607 10.959-52.945 36.82-123.263 83.685l-11.117 7.451c-51.986 34.881-75.723 50.83-171.761 50.83h-64.41c-34.112 0-44.619-9.848-102.054-69.174-13.841-14.314-30.080-31.047-49.654-50.612-56.346-56.32-104.386-89.241-136.188-111.050-17.394-11.939-37.12-25.447-39.148-31.199 0.087-13.966 3.466-40.568 26.048-54.838 29.731-18.759 83.941-11.090 152.667 21.591 69.075 32.79 111.361 71.31 111.776 71.702 4.643 4.227 10.899 6.318 17.111 5.599 6.234-0.654 11.901-4.031 15.498-9.172l268.148-382.802h106.348v467.99z" />
<glyph unicode="&#xe90b;" glyph-name="shirt" horiz-adv-x="1002" d="M929.594-73.122h-837.495c-44.285 0-92.099 28.965-92.099 75.776v611.412c0 8.359 5.011 15.945 12.716 19.205l216.958 92.056v100.164c0 5.998 2.568 11.703 7.057 15.653 4.092 3.636 102.267 88.837 264.375 88.837s260.283-85.201 264.375-88.837c0.459-0.397 0.647-1.003 1.086-1.463 1.086-1.128 1.942-2.361 2.735-3.72 0.626-1.066 1.253-2.069 1.67-3.218 0.564-1.484 0.793-3.009 1.002-4.618 0.104-0.899 0.564-1.714 0.564-2.633v-97.071l217.167-95.211c7.6-3.344 12.507-10.867 12.507-19.143v-611.412c0-46.749-27.811-75.776-72.619-75.776v0zM501.106 888.163c-109.993 0-187.978-44.053-220.132-66.038 1.775-7.711 33.532-131.678 229.841-247.724 167.745 99.453 208.753 208.603 217.668 242.604-26.141 19.184-107.905 71.158-227.377 71.158v0zM271.433 740.833v-315.141l192.404 128.376c-106.088 67.647-162.713 136.673-192.404 186.765v0zM730.78 721.084c-31.507-50.51-87.005-113.204-183.196-173.16l183.196-122.232v295.393zM960.454 600.377l-187.915 82.401v-296.145c0-7.711-4.239-14.796-11.024-18.432-3.090-1.651-6.473-2.466-9.855-2.466-4.051 0-8.101 1.17-11.588 3.511l-238.965 159.451-238.965-159.451c-6.41-4.242-14.657-4.681-21.443-1.045s-11.024 10.721-11.024 18.432v293.282l-187.915-79.684v-597.577c0-20.020 26.517-33.98 50.34-33.98h837.495c14.365 0 30.86 3.866 30.86 33.98v597.723zM501.106 94.062c-23.030 0-41.759 18.745-41.759 41.775 0 23.050 18.729 41.796 41.759 41.796s41.759-18.745 41.759-41.796c0-23.030-18.729-41.775-41.759-41.775v0zM501.106 303.041c-23.030 0-41.759 18.745-41.759 41.775 0 23.071 18.729 41.817 41.759 41.817s41.759-18.745 41.759-41.817c0-23.030-18.729-41.775-41.759-41.775v0z" />
<glyph unicode="&#xe90c;" glyph-name="to-do-list-done" horiz-adv-x="1069" d="M1046.261 721h-155.826v-689.633c0-57.616-49.931-104.49-111.304-104.49h-667.826c-61.373 0-111.304 46.874-111.304 104.49v83.592c0 11.557 9.973 20.877 22.261 20.877h178.087v689.654c0 57.595 49.931 104.49 111.282 104.49h645.587c61.373 0 111.304-46.895 111.304-104.49v-83.592c0-11.536-9.973-20.898-22.261-20.898v0zM44.522 94.062v-62.694c0-34.565 29.963-62.694 66.783-62.694h579.339c-14.113 17.512-22.817 39.079-22.817 62.694v62.694h-623.304zM311.63 888.184c-36.819 0-66.76-28.129-66.76-62.694v-689.654h445.217c12.288 0 22.261-9.32 22.261-20.877v-83.592c0-34.565 29.963-62.694 66.783-62.694s66.783 28.129 66.783 62.694v794.122c0 23.615 8.704 45.181 22.84 62.694h-557.123zM1024 825.49c0 34.565-29.963 62.694-66.783 62.694s-66.783-28.129-66.783-62.694v-62.694h133.565v62.694zM536.528 325.399c0.574 0.109 0.574 0.109 1.583 0.376 5.891 1.601 10.837 6.008 13.439 11.981l103.158 236.099c4.81 11.067 0.511 24.559-9.812 30.434-10.859 6.148-23.972 1.564-28.994-9.991l-95.997-219.707 10.149 2.652-90.784 68.678c-10.002 7.578-23.634 4.928-30.072-5.849-6.154-10.244-3.446-24.176 6.109-31.396l104.852-79.337c4.762-3.608 10.67-5.047 16.369-3.939v0z" />
<glyph unicode="&#xe90d;" glyph-name="to-do-list" horiz-adv-x="1069" d="M690.964 260.77h-313.602c-11.338 0-21.188-9.461-21.188-20.313s9.85-20.313 21.188-20.313h313.602c11.338 0 21.188 9.461 21.188 20.313 0 10.951-8.664 20.313-21.188 20.313v0zM690.964 372.074h-313.602c-11.338 0-21.188-9.461-21.188-20.313s9.85-20.313 21.188-20.313h313.602c11.338 0 21.188 9.461 21.188 20.313 0 10.951-8.664 20.313-21.188 20.313v0zM690.964 483.379h-313.602c-11.338 0-21.188-9.461-21.188-20.313s9.85-20.313 21.188-20.313h313.602c11.338 0 21.188 9.461 21.188 20.313 0 10.951-8.664 20.313-21.188 20.313v0zM391.791 706.030v0-89.128c0-5.004 3.861-8.862 8.772-8.862h267.395c4.808 0 8.772 3.97 8.772 8.862v89.128c0 5.004-3.861 8.862-8.772 8.862h-267.395c-4.808 0-8.772-3.97-8.772-8.862v0zM356.174 706.030c0 24.565 19.913 44.479 44.39 44.479h267.395c24.516 0 44.39-19.739 44.39-44.479v-89.128c0-24.565-19.913-44.479-44.39-44.479h-267.395c-24.516 0-44.39 19.739-44.39 44.479v89.128zM1046.261 721h-155.826v-689.633c0-57.616-49.931-104.49-111.304-104.49h-667.826c-61.373 0-111.304 46.874-111.304 104.49v83.592c0 11.557 9.973 20.877 22.261 20.877h178.087v689.654c0 57.595 49.931 104.49 111.282 104.49h645.587c61.373 0 111.304-46.895 111.304-104.49v-83.592c0-11.536-9.973-20.898-22.261-20.898v0zM44.522 94.062v-62.694c0-34.565 29.963-62.694 66.783-62.694h579.339c-14.113 17.512-22.817 39.079-22.817 62.694v62.694h-623.304zM311.63 888.184c-36.819 0-66.76-28.129-66.76-62.694v-689.654h445.217c12.288 0 22.261-9.32 22.261-20.877v-83.592c0-34.565 29.963-62.694 66.783-62.694s66.783 28.129 66.783 62.694v794.122c0 23.615 8.704 45.181 22.84 62.694h-557.123zM1024 825.49c0 34.565-29.963 62.694-66.783 62.694s-66.783-28.129-66.783-62.694v-62.694h133.565v62.694z" />
<glyph unicode="&#xe90e;" glyph-name="washing-machine" horiz-adv-x="959" d="M150.271 843.996c0-12.149-10.068-21.998-22.488-21.998s-22.488 9.849-22.488 21.998c0 12.149 10.068 21.998 22.488 21.998s22.488-9.849 22.488-21.998zM686.276 843.996c0-12.149-10.068-21.998-22.488-21.998s-22.488 9.849-22.488 21.998c0 12.149 10.068 21.998 22.488 21.998s22.488-9.849 22.488-21.998zM768.74 843.996c0-12.149-10.068-21.998-22.488-21.998s-22.488 9.849-22.488 21.998c0 12.149 10.068 21.998 22.488 21.998s22.488-9.849 22.488-21.998zM851.217 843.996c0-12.149-10.068-21.998-22.488-21.998s-22.488 9.849-22.488 21.998c0 12.149 10.068 21.998 22.488 21.998s22.488-9.849 22.488-21.998zM932.541 945.852h-906.777c-13.232 0-23.972-9.050-23.972-20.231v-902.33c0-11.181 10.739-20.231 23.972-20.231h58.443v-49.229c0-11.181 10.739-20.231 23.972-20.231s23.972 9.050 23.972 20.231v49.242h694.002v-49.242c0-11.181 10.739-20.231 23.972-20.231s23.972 9.050 23.972 20.231v49.242h58.443c13.232 0 23.972 9.050 23.972 20.231v902.316c0 11.181-10.739 20.231-23.972 20.231v0zM49.736 905.39h858.833v-122.789h-858.833v122.789zM49.736 43.536v698.617h858.833v-698.617h-858.833zM479.366 151.516c136.028 0 246.701 108.263 246.701 241.329s-110.673 241.329-246.701 241.329c-136.028 0-246.701-108.263-246.701-241.329s110.673-241.329 246.701-241.329v0zM479.366 191.978c-112.962 0-204.883 89.718-205.297 200.139 9.527-2.967 16.49-8.376 24.942-15.025 14.96-11.801 33.587-26.476 68.759-26.476 35.2 0 53.813 14.688 68.772 26.489 12.905 10.169 22.212 17.52 42.797 17.52 20.599 0 29.919-7.351 42.81-17.52 14.96-11.801 33.587-26.476 68.772-26.476s53.813 14.688 68.772 26.476c8.438 6.663 15.401 12.058 24.942 15.025-0.386-110.434-92.308-200.152-205.269-200.152v0zM479.366 593.711c99.215 0 182.203-69.204 201.216-160.863-21.619-4.505-35.338-15.2-46.823-24.25-12.905-10.169-22.212-17.52-42.81-17.52s-29.919 7.351-42.81 17.52c-14.96 11.801-33.587 26.476-68.772 26.476s-53.799-14.688-68.759-26.476c-12.905-10.169-22.212-17.52-42.81-17.52-20.585 0-29.905 7.351-42.797 17.52-11.485 9.050-25.19 19.745-46.823 24.264 18.985 91.646 101.973 160.85 201.188 160.85v0z" />
<glyph unicode="&#xe90f;" glyph-name="logo" horiz-adv-x="1843" d="M130.733 226.804h-70.274v-123.849h70.274c45.711 0 74.22 25.068 74.22 61.932 0 40.783-29 61.918-74.22 61.918zM128.767 48.41h-68.308v-110.578h-60.457v344.009h135.646c80.118 0 130.731-45.206 130.731-115.494 0-77.633-61.932-117.937-137.612-117.937zM486.106 150.631c-47.664 0-78.152-37.342-78.152-83.053 0-46.203 32.932-84.036 79.135-84.036 48.169 0 78.63 37.342 78.63 83.053 0 46.203-32.918 84.036-79.613 84.036zM486.106-68.082c-79.121 0-137.612 60.457-137.612 134.676 0 74.697 58.982 136.124 138.595 136.124s138.103-60.443 138.103-135.141c0-74.22-58.982-135.66-139.087-135.66zM802.48-62.17h-59.46v259.482h59.46v-58.477c16.22 38.816 46.203 65.372 91.901 63.392v-62.901h-3.441c-52.087 0-88.46-33.915-88.46-102.728v-98.768zM1108.427 18.924c0-23.101 11.783-32.44 31.949-32.44 13.271 0 25.054 2.949 36.85 8.834v-48.647c-14.746-8.342-31.457-13.271-53.576-13.271-43.732 0-74.684 19.183-74.684 76.172v136.629h-32.945v51.104h32.945v71.27h59.46v-71.27h69.782v-51.104h-69.782v-127.276zM1493.426 85.75c-3.919 38.339-26.528 68.321-65.85 68.321-36.359 0-61.918-28.017-67.325-68.321h133.175zM1435.44-19.408c29 0 49.644 10.8 70.274 30.952l34.898-30.952c-24.576-29.491-58.477-48.674-106.155-48.674-75.189 0-133.188 54.559-133.188 135.168 0 74.697 52.579 135.632 126.799 135.632 82.562 0 124.341-64.867 124.341-140.056 0-5.407-0.492-10.322-0.983-16.22h-190.696c6.881-42.271 36.372-65.85 74.711-65.85v0zM1742.853-62.17h-59.46v259.482h59.46v-58.477c16.22 38.816 46.203 65.372 91.901 63.392v-62.901h-3.441c-52.087 0-88.46-33.915-88.46-102.728v-98.768zM893.979 678.459l-367.957-212.432c-21.395-12.37-48.155 3.086-48.155 27.798v424.878c0 24.713 26.761 40.168 48.155 27.798l367.957-212.432c21.408-12.356 21.408-43.254 0-55.61zM962.459 734.071l367.957 212.432c21.395 12.37 48.155-3.086 48.155-27.798v-424.878c0-24.713-26.761-40.168-48.155-27.798l-367.957 212.432c-21.408 12.356-21.408 43.254 0 55.61z" />
<glyph unicode="&#xe910;" glyph-name="logotype" horiz-adv-x="5317" d="M377.116 792.090h-202.713v-357.258h202.713c131.86 0 214.095 72.31 214.095 178.649 0 117.642-83.653 178.609-214.095 178.609zM371.444 277.49h-197.041v-318.976h-174.395v992.335h391.286c231.109 0 377.108-130.402 377.108-333.154 0-223.941-178.649-340.204-396.958-340.204zM1402.23 572.359c-137.492 0-225.438-107.717-225.438-239.577 0-133.278 94.996-242.412 228.273-242.412 138.949 0 226.816 107.717 226.816 239.577 0 133.278-94.956 242.412-229.652 242.412zM1402.23-58.543c-228.234 0-396.958 174.395-396.958 388.49 0 215.473 170.142 392.665 399.793 392.665s398.375-174.356 398.375-389.829c0-214.095-170.142-391.326-401.211-391.326zM2314.847-41.49h-171.52v748.505h171.52v-168.684c46.789 111.97 133.278 188.574 265.098 182.863v-181.445h-9.925c-150.252 0-255.173-97.831-255.173-296.33v-284.908zM3197.385 192.435c0-66.639 33.989-93.578 92.16-93.578 38.282 0 72.271 8.507 106.299 25.482v-140.327c-42.535-24.064-90.742-38.282-154.545-38.282-126.149 0-215.434 55.335-215.434 219.727v394.122h-95.035v147.417h95.035v205.588h171.52v-205.588h201.295v-147.417h-201.295v-367.143zM4307.96 385.203c-11.303 110.592-76.524 197.081-189.952 197.081-104.881 0-178.609-80.817-194.206-197.081h384.158zM4140.694 81.863c83.653 0 143.202 31.153 202.713 89.285l100.667-89.285c-70.892-85.071-168.684-140.406-306.215-140.406-216.891 0-384.197 157.381-384.197 389.908 0 215.473 151.67 391.247 365.765 391.247 238.159 0 358.676-187.116 358.676-404.007 0-15.596-1.418-29.775-2.836-46.789h-550.085c19.85-121.935 104.921-189.952 215.513-189.952v0zM5027.462-41.49h-171.52v748.505h171.52v-168.684c46.789 111.97 133.278 188.574 265.098 182.863v-181.445h-9.925c-150.252 0-255.173-97.831-255.173-296.33v-284.908z" />
<glyph unicode="&#xe911;" glyph-name="circle-chevron" d="M512-73.143c-282.336 0-512 229.664-512 512 0 282.272 229.664 512 512 512s512-229.728 512-512c0-282.336-229.664-512-512-512v0zM512 865.513c-235.264 0-426.656-191.392-426.656-426.656s191.392-426.656 426.656-426.656c235.264 0 426.656 191.392 426.656 426.656s-191.392 426.656-426.656 426.656v0zM542.176 323.369c-8.32-8.32-19.232-12.512-30.176-12.512s-21.856 4.192-30.176 12.512l-170.656 170.656c-16.672 16.64-16.672 43.68 0 60.32 16.672 16.672 43.648 16.672 60.32 0l140.512-140.512 140.512 140.512c16.672 16.672 43.648 16.672 60.32 0 16.672-16.64 16.672-43.68 0-60.32l-170.656-170.656z" />
<glyph unicode="&#xe912;" glyph-name="Calendar" d="M960-73.122h-896c-35.285 0-64 28.693-64 63.979v768c0 35.307 28.715 64 64 64h213.333v106.688c0 11.776 9.536 21.312 21.333 21.312s21.333-9.536 21.333-21.312v-106.688h384v106.688c0 11.776 9.536 21.312 21.333 21.312s21.333-9.536 21.333-21.312v-106.688h213.333c35.285 0 64-28.693 64-64v-768c0-35.285-28.715-63.979-64-63.979v0zM981.333 758.857c0 11.755-9.557 21.355-21.333 21.355h-213.333v-64.021c0-11.776-9.536-21.312-21.333-21.312s-21.333 9.536-21.333 21.312v64.021h-384v-64.021c0-11.776-9.536-21.312-21.333-21.312s-21.333 9.536-21.333 21.312v64.021h-213.333c-11.776 0-21.333-9.6-21.333-21.355v-768c0-11.755 9.557-21.312 21.333-21.312h896c11.776 0 21.333 9.557 21.333 21.312v768zM473.003 190.58c-3.968-4.757-9.771-7.573-15.936-7.701h-0.512c-5.995 0-11.712 2.517-15.765 6.976l-136.555 150.080c-7.936 8.704-7.296 22.187 1.408 30.123 8.704 7.915 22.208 7.296 30.123-1.408l120.043-131.904 231.744 279.744c7.531 9.067 20.949 10.368 30.059 2.816 9.067-7.531 10.325-20.971 2.816-30.037l-247.424-298.688z" />
<glyph unicode="&#xe913;" glyph-name="cross" d="M810.667 768q18.333 0 30.5-12.167t12.167-30.5q0-18-12.333-30.333l-268.667-268.333 268.667-268.333q12.333-12.333 12.333-30.333 0-18.333-12.167-30.5t-30.5-12.167q-18 0-30.333 12.333l-268.333 268.667-268.333-268.667q-12.333-12.333-30.333-12.333-18.333 0-30.5 12.167t-12.167 30.5q0 18 12.333 30.333l268.667 268.333-268.667 268.333q-12.333 12.333-12.333 30.333 0 18.333 12.167 30.5t30.5 12.167q18 0 30.333-12.333l268.333-268.667 268.333 268.667q12.333 12.333 30.333 12.333z" />
<glyph unicode="&#xf002;" glyph-name="search" horiz-adv-x="951" d="M658.286 475.428q0 105.714-75.143 180.857t-180.857 75.143-180.857-75.143-75.143-180.857 75.143-180.857 180.857-75.143 180.857 75.143 75.143 180.857zM950.857 0q0-29.714-21.714-51.429t-51.429-21.714q-30.857 0-51.429 21.714l-196 195.429q-102.286-70.857-228-70.857-81.714 0-156.286 31.714t-128.571 85.714-85.714 128.571-31.714 156.286 31.714 156.286 85.714 128.571 128.571 85.714 156.286 31.714 156.286-31.714 128.571-85.714 85.714-128.571 31.714-156.286q0-125.714-70.857-228l196-196q21.143-21.143 21.143-51.429z" />
<glyph unicode="&#xf003;" glyph-name="envelope-o" d="M950.857 91.428v438.857q-18.286-20.571-39.429-37.714-153.143-117.714-243.429-193.143-29.143-24.571-47.429-38.286t-49.429-27.714-58.571-14h-1.143q-27.429 0-58.571 14t-49.429 27.714-47.429 38.286q-90.286 75.429-243.429 193.143-21.143 17.143-39.429 37.714v-438.857q0-7.429 5.429-12.857t12.857-5.429h841.143q7.429 0 12.857 5.429t5.429 12.857zM950.857 692v14t-0.286 7.429-1.714 7.143-3.143 5.143-5.143 4.286-8 1.429h-841.143q-7.429 0-12.857-5.429t-5.429-12.857q0-96 84-162.286 110.286-86.857 229.143-181.143 3.429-2.857 20-16.857t26.286-21.429 25.429-18 28.857-15.714 24.571-5.143h1.143q11.429 0 24.571 5.143t28.857 15.714 25.429 18 26.286 21.429 20 16.857q118.857 94.286 229.143 181.143 30.857 24.571 57.429 66t26.571 75.143zM1024 713.143v-621.714q0-37.714-26.857-64.571t-64.571-26.857h-841.143q-37.714 0-64.571 26.857t-26.857 64.571v621.714q0 37.714 26.857 64.571t64.571 26.857h841.143q37.714 0 64.571-26.857t26.857-64.571z" />
<glyph unicode="&#xf005;" glyph-name="star" horiz-adv-x="951" d="M950.857 581.143q0-12.571-14.857-27.429l-207.429-202.286 49.143-285.714q0.571-4 0.571-11.429 0-12-6-20.286t-17.429-8.286q-10.857 0-22.857 6.857l-256.571 134.857-256.571-134.857q-12.571-6.857-22.857-6.857-12 0-18 8.286t-6 20.286q0 3.429 1.143 11.429l49.143 285.714-208 202.286q-14.286 15.429-14.286 27.429 0 21.143 32 26.286l286.857 41.714 128.571 260q10.857 23.429 28 23.429t28-23.429l128.571-260 286.857-41.714q32-5.143 32-26.286z" />
<glyph unicode="&#xf006;" glyph-name="star-o" horiz-adv-x="951" d="M649.714 377.143l174.857 169.714-241.143 35.429-108 218.286-108-218.286-241.143-35.429 174.857-169.714-41.714-240.571 216 113.714 215.429-113.714zM950.857 581.143q0-12.571-14.857-27.429l-207.429-202.286 49.143-285.714q0.571-4 0.571-11.429 0-28.571-23.429-28.571-10.857 0-22.857 6.857l-256.571 134.857-256.571-134.857q-12.571-6.857-22.857-6.857-12 0-18 8.286t-6 20.286q0 3.429 1.143 11.429l49.143 285.714-208 202.286q-14.286 15.429-14.286 27.429 0 21.143 32 26.286l286.857 41.714 128.571 260q10.857 23.429 28 23.429t28-23.429l128.571-260 286.857-41.714q32-5.143 32-26.286z" />
<glyph unicode="&#xf00c;" glyph-name="check" d="M954.857 627.428q0-22.857-16-38.857l-491.429-491.429q-16-16-38.857-16t-38.857 16l-284.571 284.571q-16 16-16 38.857t16 38.857l77.714 77.714q16 16 38.857 16t38.857-16l168-168.571 374.857 375.429q16 16 38.857 16t38.857-16l77.714-77.714q16-16 16-38.857z" />
<glyph unicode="&#xf00d;" glyph-name="close" horiz-adv-x="805" d="M741.714 195.428q0-22.857-16-38.857l-77.714-77.714q-16-16-38.857-16t-38.857 16l-168 168-168-168q-16-16-38.857-16t-38.857 16l-77.714 77.714q-16 16-16 38.857t16 38.857l168 168-168 168q-16 16-16 38.857t16 38.857l77.714 77.714q16 16 38.857 16t38.857-16l168-168 168 168q16 16 38.857 16t38.857-16l77.714-77.714q16-16 16-38.857t-16-38.857l-168-168 168-168q16-16 16-38.857z" />
<glyph unicode="&#xf014;" glyph-name="trash-o" horiz-adv-x="805" d="M292.571 530.286v-329.143q0-8-5.143-13.143t-13.143-5.143h-36.571q-8 0-13.143 5.143t-5.143 13.143v329.143q0 8 5.143 13.143t13.143 5.143h36.571q8 0 13.143-5.143t5.143-13.143zM438.857 530.286v-329.143q0-8-5.143-13.143t-13.143-5.143h-36.571q-8 0-13.143 5.143t-5.143 13.143v329.143q0 8 5.143 13.143t13.143 5.143h36.571q8 0 13.143-5.143t5.143-13.143zM585.143 530.286v-329.143q0-8-5.143-13.143t-13.143-5.143h-36.571q-8 0-13.143 5.143t-5.143 13.143v329.143q0 8 5.143 13.143t13.143 5.143h36.571q8 0 13.143-5.143t5.143-13.143zM658.286 116.571v541.714h-512v-541.714q0-12.571 4-23.143t8.286-15.429 6-4.857h475.429q1.714 0 6 4.857t8.286 15.429 4 23.143zM274.286 731.428h256l-27.429 66.857q-4 5.143-9.714 6.286h-181.143q-5.714-1.143-9.714-6.286zM804.571 713.143v-36.571q0-8-5.143-13.143t-13.143-5.143h-54.857v-541.714q0-47.429-26.857-82t-64.571-34.571h-475.429q-37.714 0-64.571 33.429t-26.857 80.857v544h-54.857q-8 0-13.143 5.143t-5.143 13.143v36.571q0 8 5.143 13.143t13.143 5.143h176.571l40 95.429q8.571 21.143 30.857 36t45.143 14.857h182.857q22.857 0 45.143-14.857t30.857-36l40-95.429h176.571q8 0 13.143-5.143t5.143-13.143z" />
<glyph unicode="&#xf023;" glyph-name="lock" horiz-adv-x="658" d="M182.857 512h292.571v109.714q0 60.571-42.857 103.429t-103.429 42.857-103.429-42.857-42.857-103.429v-109.714zM658.286 457.143v-329.143q0-22.857-16-38.857t-38.857-16h-548.571q-22.857 0-38.857 16t-16 38.857v329.143q0 22.857 16 38.857t38.857 16h18.286v109.714q0 105.143 75.429 180.571t180.571 75.429 180.571-75.429 75.429-180.571v-109.714h18.286q22.857 0 38.857-16t16-38.857z" />
<glyph unicode="&#xf030;" glyph-name="camera" horiz-adv-x="1097" d="M548.571 566.857q68 0 116.286-48.286t48.286-116.286-48.286-116.286-116.286-48.286-116.286 48.286-48.286 116.286 48.286 116.286 116.286 48.286zM950.857 804.571q60.571 0 103.429-42.857t42.857-103.429v-512q0-60.571-42.857-103.429t-103.429-42.857h-804.571q-60.571 0-103.429 42.857t-42.857 103.429v512q0 60.571 42.857 103.429t103.429 42.857h128l29.143 77.714q10.857 28 39.714 48.286t59.143 20.286h292.571q30.286 0 59.143-20.286t39.714-48.286l29.143-77.714h128zM548.571 146.286q105.714 0 180.857 75.143t75.143 180.857-75.143 180.857-180.857 75.143-180.857-75.143-75.143-180.857 75.143-180.857 180.857-75.143z" />
<glyph unicode="&#xf03e;" glyph-name="image, photo, picture-o" horiz-adv-x="1097" d="M365.714 621.714q0-45.714-32-77.714t-77.714-32-77.714 32-32 77.714 32 77.714 77.714 32 77.714-32 32-77.714zM950.857 402.286v-256h-804.571v109.714l182.857 182.857 91.429-91.429 292.571 292.571zM1005.714 804.571h-914.286q-7.429 0-12.857-5.429t-5.429-12.857v-694.857q0-7.429 5.429-12.857t12.857-5.429h914.286q7.429 0 12.857 5.429t5.429 12.857v694.857q0 7.429-5.429 12.857t-12.857 5.429zM1097.143 786.286v-694.857q0-37.714-26.857-64.571t-64.571-26.857h-914.286q-37.714 0-64.571 26.857t-26.857 64.571v694.857q0 37.714 26.857 64.571t64.571 26.857h914.286q37.714 0 64.571-26.857t26.857-64.571z" />
<glyph unicode="&#xf04b;" glyph-name="play" horiz-adv-x="804" d="M790.857 421.143l-758.857-421.714q-13.143-7.429-22.571-1.714t-9.429 20.571v841.143q0 14.857 9.429 20.571t22.571-1.714l758.857-421.714q13.143-7.429 13.143-17.714t-13.143-17.714z" />
<glyph unicode="&#xf053;" glyph-name="chevron-left" horiz-adv-x="768" d="M669.143 778.857l-303.429-303.429 303.429-303.429q10.857-10.857 10.857-25.714t-10.857-25.714l-94.857-94.857q-10.857-10.857-25.714-10.857t-25.714 10.857l-424 424q-10.857 10.857-10.857 25.714t10.857 25.714l424 424q10.857 10.857 25.714 10.857t25.714-10.857l94.857-94.857q10.857-10.857 10.857-25.714t-10.857-25.714z" />
<glyph unicode="&#xf054;" glyph-name="chevron-right" horiz-adv-x="695" d="M632.571 449.714l-424-424q-10.857-10.857-25.714-10.857t-25.714 10.857l-94.857 94.857q-10.857 10.857-10.857 25.714t10.857 25.714l303.429 303.429-303.429 303.429q-10.857 10.857-10.857 25.714t10.857 25.714l94.857 94.857q10.857 10.857 25.714 10.857t25.714-10.857l424-424q10.857-10.857 10.857-25.714t-10.857-25.714z" />
<glyph unicode="&#xf073;" glyph-name="calendar" horiz-adv-x="951" d="M73.143 0h164.571v164.571h-164.571v-164.571zM274.286 0h182.857v164.571h-182.857v-164.571zM73.143 201.143h164.571v182.857h-164.571v-182.857zM274.286 201.143h182.857v182.857h-182.857v-182.857zM73.143 420.571h164.571v164.571h-164.571v-164.571zM493.714 0h182.857v164.571h-182.857v-164.571zM274.286 420.571h182.857v164.571h-182.857v-164.571zM713.143 0h164.571v164.571h-164.571v-164.571zM493.714 201.143h182.857v182.857h-182.857v-182.857zM292.571 694.857v164.571q0 7.429-5.429 12.857t-12.857 5.429h-36.571q-7.429 0-12.857-5.429t-5.429-12.857v-164.571q0-7.429 5.429-12.857t12.857-5.429h36.571q7.429 0 12.857 5.429t5.429 12.857zM713.143 201.143h164.571v182.857h-164.571v-182.857zM493.714 420.571h182.857v164.571h-182.857v-164.571zM713.143 420.571h164.571v164.571h-164.571v-164.571zM731.429 694.857v164.571q0 7.429-5.429 12.857t-12.857 5.429h-36.571q-7.429 0-12.857-5.429t-5.429-12.857v-164.571q0-7.429 5.429-12.857t12.857-5.429h36.571q7.429 0 12.857 5.429t5.429 12.857zM950.857 731.428v-731.429q0-29.714-21.714-51.429t-51.429-21.714h-804.571q-29.714 0-51.429 21.714t-21.714 51.429v731.429q0 29.714 21.714 51.429t51.429 21.714h73.143v54.857q0 37.714 26.857 64.571t64.571 26.857h36.571q37.714 0 64.571-26.857t26.857-64.571v-54.857h219.429v54.857q0 37.714 26.857 64.571t64.571 26.857h36.571q37.714 0 64.571-26.857t26.857-64.571v-54.857h73.143q29.714 0 51.429-21.714t21.714-51.429z" />
<glyph unicode="&#xf095;" glyph-name="phone" horiz-adv-x="805" d="M804.571 242.286q0-15.429-5.714-40.286t-12-39.143q-12-28.571-69.714-60.571-53.714-29.143-106.286-29.143-15.429 0-30 2t-32.857 7.143-27.143 8.286-31.714 11.714-28 10.286q-56 20-100 47.429-73.143 45.143-151.143 123.143t-123.143 151.143q-27.429 44-47.429 100-1.714 5.143-10.286 28t-11.714 31.714-8.286 27.143-7.143 32.857-2 30q0 52.571 29.143 106.286 32 57.714 60.571 69.714 14.286 6.286 39.143 12t40.286 5.714q8 0 12-1.714 10.286-3.429 30.286-43.429 6.286-10.857 17.143-30.857t20-36.286 17.714-30.571q1.714-2.286 10-14.286t12.286-20.286 4-16.286q0-11.429-16.286-28.571t-35.429-31.429-35.429-30.286-16.286-26.286q0-5.143 2.857-12.857t4.857-11.714 8-13.714 6.571-10.857q43.429-78.286 99.429-134.286t134.286-99.429q1.143-0.571 10.857-6.571t13.714-8 11.714-4.857 12.857-2.857q10.286 0 26.286 16.286t30.286 35.429 31.429 35.429 28.571 16.286q8 0 16.286-4t20.286-12.286 14.286-10q14.286-8.571 30.571-17.714t36.286-20 30.857-17.143q40-20 43.429-30.286 1.714-4 1.714-12z" />
<glyph unicode="&#xf099;" glyph-name="twitter" horiz-adv-x="951" d="M925.714 717.714q-38.286-56-92.571-95.429 0.571-8 0.571-24 0-74.286-21.714-148.286t-66-142-105.429-120.286-147.429-83.429-184.571-31.143q-154.857 0-283.429 82.857 20-2.286 44.571-2.286 128.571 0 229.143 78.857-60 1.143-107.429 36.857t-65.143 91.143q18.857-2.857 34.857-2.857 24.571 0 48.571 6.286-64 13.143-106 63.714t-42 117.429v2.286q38.857-21.714 83.429-23.429-37.714 25.143-60 65.714t-22.286 88q0 50.286 25.143 93.143 69.143-85.143 168.286-136.286t212.286-56.857q-4.571 21.714-4.571 42.286 0 76.571 54 130.571t130.571 54q80 0 134.857-58.286 62.286 12 117.143 44.571-21.143-65.714-81.143-101.714 53.143 5.714 106.286 28.571z" />
<glyph unicode="&#xf09a;" glyph-name="facebook, facebook-f" horiz-adv-x="602" d="M548 944v-150.857h-89.714q-49.143 0-66.286-20.571t-17.143-61.714v-108h167.429l-22.286-169.143h-145.143v-433.714h-174.857v433.714h-145.714v169.143h145.714v124.571q0 106.286 59.429 164.857t158.286 58.571q84 0 130.286-6.857z" />
<glyph unicode="&#xf09d;" glyph-name="credit-card" horiz-adv-x="1097" d="M1005.714 877.714q37.714 0 64.571-26.857t26.857-64.571v-694.857q0-37.714-26.857-64.571t-64.571-26.857h-914.286q-37.714 0-64.571 26.857t-26.857 64.571v694.857q0 37.714 26.857 64.571t64.571 26.857h914.286zM91.429 804.571q-7.429 0-12.857-5.429t-5.429-12.857v-128h950.857v128q0 7.429-5.429 12.857t-12.857 5.429h-914.286zM1005.714 73.143q7.429 0 12.857 5.429t5.429 12.857v347.429h-950.857v-347.429q0-7.429 5.429-12.857t12.857-5.429h914.286zM146.286 146.286v73.143h146.286v-73.143h-146.286zM365.714 146.286v73.143h219.429v-73.143h-219.429z" />
<glyph unicode="&#xf0c9;" glyph-name="navicon" horiz-adv-x="878" d="M877.714 182.857v-73.143q0-14.857-10.857-25.714t-25.714-10.857h-804.571q-14.857 0-25.714 10.857t-10.857 25.714v73.143q0 14.857 10.857 25.714t25.714 10.857h804.571q14.857 0 25.714-10.857t10.857-25.714zM877.714 475.428v-73.143q0-14.857-10.857-25.714t-25.714-10.857h-804.571q-14.857 0-25.714 10.857t-10.857 25.714v73.143q0 14.857 10.857 25.714t25.714 10.857h804.571q14.857 0 25.714-10.857t10.857-25.714zM877.714 768v-73.143q0-14.857-10.857-25.714t-25.714-10.857h-804.571q-14.857 0-25.714 10.857t-10.857 25.714v73.143q0 14.857 10.857 25.714t25.714 10.857h804.571q14.857 0 25.714-10.857t10.857-25.714z" />
<glyph unicode="&#xf0d5;" glyph-name="google-plus" horiz-adv-x="1317" d="M821.143 429.143q0-118.857-49.714-211.714t-141.714-145.143-210.857-52.286q-85.143 0-162.857 33.143t-133.714 89.143-89.143 133.714-33.143 162.857 33.143 162.857 89.143 133.714 133.714 89.143 162.857 33.143q163.429 0 280.571-109.714l-113.714-109.143q-66.857 64.571-166.857 64.571-70.286 0-130-35.429t-94.571-96.286-34.857-132.857 34.857-132.857 94.571-96.286 130-35.429q47.429 0 87.143 13.143t65.429 32.857 44.857 44.857 28 47.429 12.286 42.286h-237.714v144h395.429q6.857-36 6.857-69.714zM1316.571 498.857v-120h-119.429v-119.429h-120v119.429h-119.429v120h119.429v119.429h120v-119.429h119.429z" />
<glyph unicode="&#xf0e0;" glyph-name="envelope" d="M1024 545.143v-453.714q0-37.714-26.857-64.571t-64.571-26.857h-841.143q-37.714 0-64.571 26.857t-26.857 64.571v453.714q25.143-28 57.714-49.714 206.857-140.571 284-197.143 32.571-24 52.857-37.429t54-27.429 62.857-14h1.143q29.143 0 62.857 14t54 27.429 52.857 37.429q97.143 70.286 284.571 197.143 32.571 22.286 57.143 49.714zM1024 713.143q0-45.143-28-86.286t-69.714-70.286q-214.857-149.143-267.429-185.714-5.714-4-24.286-17.429t-30.857-21.714-29.714-18.571-32.857-15.429-28.571-5.143h-1.143q-13.143 0-28.571 5.143t-32.857 15.429-29.714 18.571-30.857 21.714-24.286 17.429q-52 36.571-149.714 104.286t-117.143 81.429q-35.429 24-66.857 66t-31.429 78q0 44.571 23.714 74.286t67.714 29.714h841.143q37.143 0 64.286-26.857t27.143-64.571z" />
<glyph unicode="&#xf104;" glyph-name="angle-left" horiz-adv-x="384" d="M358.286 640q0-7.429-5.714-13.143l-224.571-224.571 224.571-224.571q5.714-5.714 5.714-13.143t-5.714-13.143l-28.571-28.571q-5.714-5.714-13.143-5.714t-13.143 5.714l-266.286 266.286q-5.714 5.714-5.714 13.143t5.714 13.143l266.286 266.286q5.714 5.714 13.143 5.714t13.143-5.714l28.571-28.571q5.714-5.714 5.714-13.143z" />
<glyph unicode="&#xf105;" glyph-name="angle-right" horiz-adv-x="347" d="M340 402.286q0-7.429-5.714-13.143l-266.286-266.286q-5.714-5.714-13.143-5.714t-13.143 5.714l-28.571 28.571q-5.714 5.714-5.714 13.143t5.714 13.143l224.571 224.571-224.571 224.571q-5.714 5.714-5.714 13.143t5.714 13.143l28.571 28.571q5.714 5.714 13.143 5.714t13.143-5.714l266.286-266.286q5.714-5.714 5.714-13.143z" />
<glyph unicode="&#xf106;" glyph-name="angle-up" horiz-adv-x="658" d="M614.286 274.286q0-7.429-5.714-13.143l-28.571-28.571q-5.714-5.714-13.143-5.714t-13.143 5.714l-224.571 224.571-224.571-224.571q-5.714-5.714-13.143-5.714t-13.143 5.714l-28.571 28.571q-5.714 5.714-5.714 13.143t5.714 13.143l266.286 266.286q5.714 5.714 13.143 5.714t13.143-5.714l266.286-266.286q5.714-5.714 5.714-13.143z" />
<glyph unicode="&#xf107;" glyph-name="angle-down" horiz-adv-x="658" d="M614.286 530.286q0-7.429-5.714-13.143l-266.286-266.286q-5.714-5.714-13.143-5.714t-13.143 5.714l-266.286 266.286q-5.714 5.714-5.714 13.143t5.714 13.143l28.571 28.571q5.714 5.714 13.143 5.714t13.143-5.714l224.571-224.571 224.571 224.571q5.714 5.714 13.143 5.714t13.143-5.714l28.571-28.571q5.714-5.714 5.714-13.143z" />
<glyph unicode="&#xf10b;" glyph-name="mobile, mobile-phone" horiz-adv-x="439" d="M265.143 146.286q0 18.857-13.429 32.286t-32.286 13.429-32.286-13.429-13.429-32.286 13.429-32.286 32.286-13.429 32.286 13.429 13.429 32.286zM384 237.714v402.286q0 7.429-5.429 12.857t-12.857 5.429h-292.571q-7.429 0-12.857-5.429t-5.429-12.857v-402.286q0-7.429 5.429-12.857t12.857-5.429h292.571q7.429 0 12.857 5.429t5.429 12.857zM274.286 722.286q0 9.143-9.143 9.143h-91.429q-9.143 0-9.143-9.143t9.143-9.143h91.429q9.143 0 9.143 9.143zM438.857 731.428v-585.143q0-29.714-21.714-51.429t-51.429-21.714h-292.571q-29.714 0-51.429 21.714t-21.714 51.429v585.143q0 29.714 21.714 51.429t51.429 21.714h292.571q29.714 0 51.429-21.714t21.714-51.429z" />
<glyph unicode="&#xf1d8;" glyph-name="paper-plane, send" horiz-adv-x="1026" d="M1008 944.571q18.857-13.714 15.429-36.571l-146.286-877.714q-2.857-16.571-18.286-25.714-8-4.571-17.714-4.571-6.286 0-13.714 2.857l-258.857 105.714-138.286-168.571q-10.286-13.143-28-13.143-7.429 0-12.571 2.286-10.857 4-17.429 13.429t-6.571 20.857v199.429l493.714 605.143-610.857-528.571-225.714 92.571q-21.143 8-22.857 31.429-1.143 22.857 18.286 33.714l950.857 548.571q8.571 5.143 18.286 5.143 11.429 0 20.571-6.286z" />
<glyph unicode="&#xf1d9;" glyph-name="paper-plane-o, send-o" horiz-adv-x="1025" d="M1008 944.571q18.857-13.714 15.429-36.571l-146.286-877.714q-2.857-16.571-18.286-25.714-8-4.571-17.714-4.571-6.286 0-13.714 2.857l-301.143 122.857-170.286-186.857q-10.286-12-26.857-12-8 0-13.143 2.286-10.857 4-17.143 13.429t-6.286 20.857v258.286l-269.714 110.286q-21.143 8-22.857 31.429-1.714 22.286 18.286 33.714l950.857 548.571q20 12 38.857-1.143zM812.571 88l126.286 756-819.429-472.571 192-78.286 493.143 365.143-273.143-455.429z" />
<glyph unicode="&#xf1f0;" glyph-name="cc-visa" horiz-adv-x="1317" d="M1128.571 385.143h-78.857q8 21.143 37.714 102.286l1.714 5.143q2.286 5.714 5.714 14.857t5.143 14.857l6.857-31.429zM303.429 422.286l-33.143 168.571q-6.286 30.857-42.857 30.857h-153.143l-1.143-7.429q177.714-45.143 230.286-192zM405.714 621.714l-92.571-250.286-9.714 50.857q-14.857 40-48.571 74t-74.857 50.571l77.143-291.429h100l149.143 366.286h-100.571zM485.143 254.857h94.857l59.429 366.857h-94.857zM924 612.571q-39.429 15.429-85.143 15.429-70.286 0-114.857-33.714t-45.143-87.429q-0.571-58.286 82.857-99.429 27.429-13.143 38.286-23.429t10.857-22.286q0-17.143-17.143-26.286t-39.429-9.143q-49.143 0-89.143 18.857l-12.571 6.286-13.143-82.286q42.286-19.429 105.714-19.429 74.286-0.571 119.143 33.714t46 91.429q0 60.571-80 99.429-28 14.286-40.571 24t-12.571 21.714q0 12.571 14 22t40.286 9.429q40 0.571 70.857-13.714l8.571-4.571zM1166.857 621.714h-73.143q-37.143 0-49.714-30.857l-140.571-336h99.429l20 54.857h121.143q2.857-12.571 11.429-54.857h88zM1316.571 804.571v-731.429q0-29.714-21.714-51.429t-51.429-21.714h-1170.286q-29.714 0-51.429 21.714t-21.714 51.429v731.429q0 29.714 21.714 51.429t51.429 21.714h1170.286q29.714 0 51.429-21.714t21.714-51.429z" />
<glyph unicode="&#xf1f1;" glyph-name="cc-mastercard" horiz-adv-x="1317" d="M383.429 417.714h-7.429q-26.857 0-26.857-18.286 0-12.571 11.429-12.571 9.714 0 16 8.571t6.857 22.286zM609.143 438.286h35.429v1.714q0.571 2.286 0.286 3.714t-0.571 4-1.143 4.571-2.571 3.714-4.286 2.857-6.571 1.143q-16 0-20.571-21.714zM917.714 417.714h-6.857q-27.429 0-27.429-18.286 0-12.571 11.429-12.571 9.714 0 16 8.571t6.857 22.286zM1100 432.571q0 23.429-17.143 23.429-10.857 0-17.714-11.429t-6.857-29.143q0-24 16-24 11.429 0 18.571 11.429t7.143 29.714zM274.286 513.143h49.714l-25.143-149.714h-32l18.286 114.857-40.571-114.857h-22.286l-2.286 114.286-19.429-114.286h-30.286l25.143 149.714h46.286l1.143-93.143zM418.857 452q0-3.429-2.286-24-9.143-57.714-9.714-64.571h-26.857l0.571 12.571q-11.429-14.857-33.143-14.857-13.143 0-21.429 9.143t-8.286 24q0 22.286 14.857 34.571t41.714 12.286q8 0 13.143-0.571 0 1.714 0.286 3.143t0.571 2.571 0.286 1.714q0 11.429-20.571 11.429-16.571 0-33.714-5.714 0 2.286 4 27.429 21.714 6.286 38.286 6.286 42.286 0 42.286-35.429zM508 485.143l-4.571-28q-12.571 1.714-23.429 1.714-15.429 0-15.429-9.714 0-4.571 2.571-6.857t12.286-6.286q22.857-10.857 22.857-34.286 0-41.143-49.714-40.571-19.429 0-33.143 3.429 0 1.143 4 28 16.571-4.571 29.143-4.571 18.286 0 18.286 10.857 0 4-2.571 6.571t-12.286 7.143q-24.571 11.429-24.571 33.714 0 41.143 48 41.143 17.143 0 28.571-2.286zM558.286 485.143h16l-4-29.714h-16.571q-1.143-9.714-3.714-23.143t-4-22-1.429-10.286q0-9.143 10.857-9.143 4.571 0 9.143 1.143l-4.571-26.857q-12-4-22.857-4-24.571 0-25.714 26.857 0 6.857 4.571 32 1.714 11.429 14.286 83.429h31.429zM674.286 443.428q0-13.143-4-29.714h-63.429q-1.714-12.571 5.714-18.857t21.714-6.286q17.143 0 33.143 8l-5.143-30.857q-17.143-4.571-32.571-4.571-54.286 0-54.286 54.286 0 31.429 15.714 51.714t39.714 20.286q20 0 31.714-12t11.714-32zM753.714 485.714q-7.429-13.143-12.571-35.429-12.571 1.143-17.714-13.714t-14.286-73.143h-32l1.714 8q12.571 74.286 16.571 113.714h29.143l-1.714-18.857q8 12 14.571 16.857t16.286 2.571zM860.571 509.143l-5.143-32.571q-16 8-28.571 8-17.714 0-29.143-15.714t-11.429-40.286q0-17.143 7.714-26.857t22-9.714q12 0 27.429 7.429l-5.714-33.714q-16-4.571-28.571-4.571-25.714 0-40.857 17.429t-15.143 47.143q0 40 20.286 65.429t52.286 25.429q14.857 0 34.857-7.429zM953.143 452q0-10.286-2.286-24-7.429-45.143-9.714-64.571h-26.286l0.571 12.571q-11.429-14.857-33.714-14.857-13.143 0-21.143 9.143t-8 24q0 22.286 14.571 34.571t41.429 12.286q8.571 0 13.143-0.571 1.143 4 1.143 7.429 0 11.429-20.571 11.429-16.571 0-33.714-5.714 0 2.286 4.571 27.429 21.714 6.286 38.286 6.286 41.714 0 41.714-35.429zM1033.714 485.714q-8-13.714-12-35.429-13.143 1.143-18-13.143t-14.571-73.714h-32l1.714 8q10.857 59.429 16.571 113.714h29.714q0-6.286-2.286-18.857 8.571 12 15.143 16.857t15.714 2.571zM1114.286 513.143h32l-24.571-149.714h-30.286l1.714 10.857q-13.143-13.143-29.714-13.143-17.714 0-28.286 13.714t-10.571 36.571q0 30.286 15.714 52.571t36.857 22.286q17.714 0 30.286-16.571zM1177.714 438.857q0 84.571-41.429 156t-113.143 113.143-156.286 41.714q-103.429 0-187.429-62.857 72.571-66.286 97.714-162.286h-28.571q-25.143 85.714-90.286 144.571-65.143-58.857-90.286-144.571h-28.571q25.143 96 97.714 162.286-84 62.857-187.429 62.857-84.571 0-156.286-41.714t-113.143-113.143-41.429-156 41.429-156 113.143-113.143 156.286-41.714q103.429 0 187.429 62.857-68.571 63.429-94.286 150.857h28.571q26.286-78.857 86.857-133.143 60.571 54.286 86.857 133.143h28.571q-25.714-87.429-94.286-150.857 84-62.857 187.429-62.857 84.571 0 156.286 41.714t113.143 113.143 41.429 156zM1316.571 804.571v-731.429q0-29.714-21.714-51.429t-51.429-21.714h-1170.286q-29.714 0-51.429 21.714t-21.714 51.429v731.429q0 29.714 21.714 51.429t51.429 21.714h1170.286q29.714 0 51.429-21.714t21.714-51.429z" />
<glyph unicode="&#xf1f3;" glyph-name="cc-amex" horiz-adv-x="1317" d="M68 561.143h50.857l-25.714 61.714zM422.857 260.571l42.286 45.143-40 45.143h-93.143v-28h81.143v-31.429h-81.143v-30.857h90.857zM513.143 305.143l56.571-62.857v124zM677.714 332q0 18.857-22.857 18.857h-48v-39.429h47.429q23.429 0 23.429 20.571zM842.857 334.286q0 16.571-24 16.571h-46.857v-34.857h46.286q24.571 0 24.571 18.286zM684 600.571q0 16.571-24 16.571h-46.857v-34.286h46.286q24.571 0 24.571 17.714zM946.286 561.143h50.857l-25.143 61.714zM399.429 649.714v-154.857h-37.714v121.143l-53.714-121.143h-32.571l-53.714 121.143v-121.143h-75.429l-14.286 34.286h-77.143l-14.286-34.286h-40l66.286 154.857h54.857l62.857-146.857v146.857h60.571l48.571-105.143 44 105.143h61.714zM717.143 332q0-11.429-3.143-20t-8-14.286-12.857-9.429-14.857-5.714-18-2.571-18-0.571-18.571 0.286-16.857 0.286v-52h-72l-45.714 51.429-47.429-51.429h-146.286v154.857h148.571l45.714-50.857 46.857 50.857h118.286q62.286 0 62.286-50.857zM550.857 526.857v-32h-124v154.857h124v-32.571h-86.857v-28h84.571v-31.429h-84.571v-30.857h86.857zM1316.571 207.428v-130.857q0-31.429-22-54t-53.429-22.571h-1165.714q-31.429 0-53.429 22.571t-22 54v387.429h63.429l14.286 34.857h31.429l14.286-34.857h124.571v26.286l10.857-26.286h64.571l11.429 26.857v-26.857h309.143v56.571l5.714 0.571q5.714 0 5.714-8v-49.143h159.429v13.143q13.143-6.857 31.429-10.286t30-3.714 36 0.286 29.429 0.571l14.286 34.857h32l14.286-34.857h129.714v33.143l19.429-33.143h104v216h-102.857v-25.143l-14.286 25.143h-105.714v-25.143l-13.143 25.143h-142.286q-39.429 0-62.286-12.571v12.571h-98.286v-12.571q-13.714 12.571-41.714 12.571h-358.857l-24.571-55.429-24.571 55.429h-113.143v-25.143l-12.571 25.143h-96.571l-44.571-102.286v223.429q0 31.429 22 54t53.429 22.571h1165.714q31.429 0 53.429-22.571t22-54v-387.429h-68.571q-29.143 0-46.286-12.571v12.571h-101.143q-31.429 0-44.571-12.571v12.571h-180.571v-12.571q-17.714 12.571-49.714 12.571h-119.429v-12.571q-13.143 12.571-52 12.571h-133.714l-30.857-33.143-28.571 33.143h-199.429v-216h196l31.429 33.714 29.714-33.714h120.571v50.857h12q33.714 0 51.429 7.429v-58.286h99.429v56.571h4.571q4.571 0 5.714-1.143t1.143-5.714v-49.714h302.286q32.571 0 50.286 13.714v-13.714h96q34.286 0 54.286 9.714zM883.429 341.143q0-13.143-6.857-24.571t-19.429-16.571q14.286-5.143 19.429-14.857t5.143-26.286v-30.857h-37.143v25.714q0 18.857-6.857 24.857t-26.286 6h-39.429v-56.571h-37.143v154.857h88q27.429 0 44-8.571t16.571-33.143zM725.143 608q0-13.714-7.143-25.143t-19.143-16.571q14.857-5.143 19.714-14.571t4.857-26.571v-30.286h-37.143q0 5.143 0.286 15.143t0 14.286-1.714 10.571-4.857 9.143-10 4.857-16.857 2h-40v-56h-36.571v154.857l87.429-0.571q28 0 44.571-8.286t16.571-32.857zM1027.429 260v-32h-123.429v154.857h123.429v-32h-86.286v-28h84.571v-31.429h-84.571v-30.857zM784 649.714v-154.857h-37.714v154.857h37.714zM1180 277.143q0-49.143-58.286-49.143h-72v33.143h72q19.429 0 19.429 14.286 0 9.143-9.714 12t-23.714 2.857-28.286 2-24 12.857-9.714 31.429q0 22.286 14.857 34.286t37.714 12h74.286v-32.571h-68q-20.571 0-20.571-14.286 0-9.143 10-11.714t24-2.286 28-1.429 24-12.286 10-31.143zM1316.571 305.714v-57.714q-13.714-20-50.286-20h-71.429v33.143h71.429q18.857 0 18.857 14.286 0 7.429-7.143 10.857t-17.714 3.143-22.857 1.143-22.857 4.571-17.714 13.714-7.143 27.714q0 22.286 15.143 34.286t38 12h73.714v-32.571h-67.429q-20.571 0-20.571-14.286 0-11.429 16.571-12.571t39.143-2.857 32.286-14.857zM1222.286 649.143v-154.286h-52.571l-69.714 116v-116h-75.429l-14.857 34.286h-76.571l-14.286-34.286h-42.857q-73.714 0-73.714 76 0 78.857 76 78.857h36v-33.714q-4 0-16 0.571t-16.286 0.286-13.143-1.143-12.286-3.714-8.286-7.714-6.571-13.143-1.714-19.143q0-21.714 7.714-33.143t28.286-11.429h16.571l52.571 121.714h55.429l62.286-146.286v146.286h56.571l65.143-107.429v107.429h37.714z" />
<glyph unicode="&#xf1f4;" glyph-name="cc-paypal" horiz-adv-x="1317" d="M425.714 433.143q0-21.143-14.571-35.143t-35.714-14q-16.571 0-26.571 9.143t-10 25.143q0 21.143 14.286 35.714t35.429 14.571q16 0 26.571-9.429t10.571-26zM874.286 518.286q0-24-12.571-32.571t-37.714-8.571l-18.286-0.571 9.714 61.143q1.143 6.286 7.429 6.286h10.286q12.571 0 20-1.143t14.286-7.143 6.857-17.429zM1074.857 433.143q0-20.571-14.571-34.857t-35.143-14.286q-16.571 0-26.857 9.143t-10.286 25.143q0 21.143 14.286 35.714t35.429 14.571q16 0 26.571-9.429t10.571-26zM293.143 530.857q0 33.714-22 48.857t-57.429 15.143h-91.429q-10.857 0-12-10.857l-37.143-233.143q-0.571-3.429 1.714-6.286t5.714-2.857h43.429q11.429 0 12.571 10.857l10.286 62.857q0.571 4.571 4 7.429t8.571 3.714 9.714 0.857 10.857-0.571 8-0.571q49.143 0 77.143 27.714t28 76.857zM469.714 352.571l23.429 149.143q0.571 3.429-1.714 6.286t-5.714 2.857h-43.429q-8 0-9.714-18.857-15.429 22.857-54.286 22.857-41.143 0-70-30.857t-28.857-72.571q0-33.714 19.714-53.714t52.857-20q16 0 33.143 6.857t27.429 18.286q-2.286-6.857-2.286-12 0-9.143 7.429-9.143h39.429q10.857 0 12.571 10.857zM725.143 502.857q0 2.857-2.286 5.429t-5.143 2.571h-44q-6.286 0-10.286-5.714l-60.571-89.143-25.143 85.714q-2.857 9.143-12.571 9.143h-42.857q-2.857 0-5.143-2.571t-2.286-5.429q0-1.143 11.143-33.714t24-70.286 13.429-40q-46.857-64-46.857-68.571 0-7.429 7.429-7.429h44q6.286 0 10.286 5.714l145.714 210.286q1.143 1.143 1.143 4zM942.286 530.857q0 33.714-22 48.857t-57.429 15.143h-90.857q-11.429 0-12.571-10.857l-37.143-233.143q-0.571-3.429 1.714-6.286t5.714-2.857h46.857q6.857 0 9.143 7.429l10.286 66.286q0.571 4.571 4 7.429t8.571 3.714 9.714 0.857 10.857-0.571 8-0.571q49.143 0 77.143 27.714t28 76.857zM1118.857 352.571l23.429 149.143q0.571 3.429-1.714 6.286t-5.714 2.857h-43.429q-8 0-9.714-18.857-14.857 22.857-54.286 22.857-41.143 0-70-30.857t-28.857-72.571q0-33.714 19.714-53.714t52.857-20q16.571 0 33.714 6.857t26.857 18.286q0-0.571-1.143-5.143t-1.143-6.857q0-9.143 7.429-9.143h39.429q10.857 0 12.571 10.857zM1243.429 586.286v0.571q0 8-7.429 8h-42.286q-6.286 0-7.429-6.286l-37.143-237.714-0.571-1.143q0-2.857 2.286-5.429t5.714-2.571h37.714q10.857 0 12 10.857zM224 509.714q-2.857-20-14.857-26.286t-34.286-6.286l-18.857-0.571 9.714 61.143q1.143 6.286 7.429 6.286h10.857q22.857 0 33.143-6.571t6.857-27.714zM1316.571 804.571v-731.429q0-29.714-21.714-51.429t-51.429-21.714h-1170.286q-29.714 0-51.429 21.714t-21.714 51.429v731.429q0 29.714 21.714 51.429t51.429 21.714h1170.286q29.714 0 51.429-21.714t21.714-51.429z" />
<glyph unicode="&#xf1f5;" glyph-name="cc-stripe" horiz-adv-x="1317" d="M912.571 434.857q0-39.429-12-60.571-10.857-20-29.714-20-13.143 0-23.429 5.143v128q16.571 17.143 32.571 17.143 32.571 0 32.571-69.714zM1162.857 455.428h-62.857q3.429 56 32 56 29.143 0 30.857-56zM272 378.286q0 33.714-18.857 52.286t-57.714 32.857q-20.571 7.429-29.714 13.714t-9.143 14.286q0 14.857 21.714 14.857 33.143 0 70.857-18.857l10.286 64q-38.286 18.286-85.143 18.286-44 0-70.286-21.714-27.429-22.286-27.429-62.286 0-33.143 18.571-51.714t56.857-32.286q22.286-8 31.143-14.571t8.857-15.714q0-17.714-27.429-17.714-16.571 0-40 7.143t-41.143 17.429l-10.286-64.571q41.143-23.429 96-23.429 46.286 0 73.714 21.143 29.143 23.429 29.143 66.857zM440.571 501.143l10.857 63.429h-54.857v77.143l-73.714-12-10.286-65.143-26.286-4.571-9.714-58.857h35.429v-125.143q0-48 25.143-68.571 21.714-17.143 63.429-17.143 18.286 0 45.143 6.286v67.429q-18.286-4-25.143-4-24 0-24 28.571v112.571h44zM621.143 486.857v79.429q-8.571 1.714-16 1.714-18.286 0-31.714-9.143t-19.143-26.286l-5.714 32h-74.857v-269.143h85.714v174.857q14.857 17.714 46.857 17.714 9.143 0 14.857-1.143zM642.286 295.428h85.714v269.143h-85.714v-269.143zM997.714 437.714q0 69.714-25.714 102.286-22.857 29.714-63.429 29.714-36.571 0-66.857-32l-4.571 26.857h-75.429v-368.571l85.714 14.286v86.286q20.571-6.286 38.857-6.286 47.429 0 76.571 32 34.857 37.143 34.857 115.429zM730.286 636.571q0 18.857-13.143 32t-32 13.143-32-13.143-13.143-32 13.143-32.286 32-13.429 32 13.429 13.143 32.286zM1243.429 432.571q0 64.571-27.429 100.571-28.571 36.571-82.286 36.571-54.857 0-86.571-37.714t-31.714-102.857q0-73.143 36-107.429 31.429-31.429 92-31.429 57.714 0 91.429 22.857l-9.143 58.857q-32.571-17.714-73.143-17.714-24.571 0-36 10.857-13.143 10.857-16 37.714h141.714q1.143 8 1.143 29.714zM1316.571 804.571v-731.429q0-29.714-21.714-51.429t-51.429-21.714h-1170.286q-29.714 0-51.429 21.714t-21.714 51.429v731.429q0 29.714 21.714 51.429t51.429 21.714h1170.286q29.714 0 51.429-21.714t21.714-51.429z" />
<glyph unicode="&#xf283;" glyph-name="credit-card-alt" horiz-adv-x="1317" d="M0 91.428v347.429h1316.571v-347.429q0-37.714-26.857-64.571t-64.571-26.857h-1133.714q-37.714 0-64.571 26.857t-26.857 64.571zM365.714 219.428v-73.143h219.429v73.143h-219.429zM146.286 219.428v-73.143h146.286v73.143h-146.286zM1225.143 877.714q37.714 0 64.571-26.857t26.857-64.571v-128h-1316.571v128q0 37.714 26.857 64.571t64.571 26.857h1133.714z" />
<glyph unicode="&#xf2ac;" glyph-name="snapchat-ghost" horiz-adv-x="951" d="M484.571 877.714q76.571 0.571 137.429-39.143t93.429-110q15.429-33.143 15.429-102.286 0-26.857-5.143-109.143 8-4 16-4 10.286 0 29.143 7.714t29.143 7.714q16.571 0 32-10.286t15.429-26.286q0-18.286-18-30.857t-39.429-18-39.429-16.571-18-27.143q0-8.571 6.857-24.571 21.143-46.857 58.571-85.714t82.571-57.714q16-6.857 45.714-13.143 16-3.429 16-20 0-40-125.143-58.857-4-6.286-6.286-22.286t-8-26.571-18.857-10.571q-11.429 0-35.429 3.714t-36.571 3.714q-21.143 0-35.429-2.857-18.286-2.857-36-12.857t-33.143-21.714-33.143-23.143-43.429-19.143-56.571-7.714q-29.714 0-55.143 7.714t-42.857 19.143-32.857 23.143-33.143 21.714-35.429 12.857q-14.857 2.857-36 2.857-13.714 0-37.429-4.286t-33.429-4.286q-14.286 0-20 10.571t-8 27.143-6.286 22.857q-125.143 18.857-125.143 58.857 0 16.571 16 20 29.714 6.286 45.714 13.143 44.571 18.286 82.571 57.714t58.571 85.714q6.857 16 6.857 24.571 0 16-18 27.143t-39.714 16.857-39.714 18-18 30q0 15.429 14.857 26t31.429 10.571q8.571 0 27.429-7.429t30.286-7.429q10.286 0 18.286 4-5.143 81.143-5.143 108.571 0 69.714 15.429 102.857 36.571 78.286 98.286 113.143t150.857 36z" />
</font>
</defs>
</svg>
