<?xml version="1.0" standalone="no"?>
<!DOCTYPE svg PUBLIC "-//W3C//DTD SVG 1.1//EN" "http://www.w3.org/Graphics/SVG/1.1/DTD/svg11.dtd" >
<svg xmlns="http://www.w3.org/2000/svg">
<metadata></metadata>
<defs>
<font id="brandon_grotesque_web_mediuRg" horiz-adv-x="662" >
<font-face units-per-em="1000" ascent="800" descent="-200" />
<missing-glyph horiz-adv-x="220" />
<glyph unicode="&#xfb01;" horiz-adv-x="544" d="M96 317h-47q-8 0 -13.5 5.5t-5.5 13.5v45q0 19 19 19h47v124q0 45 14 79.5t38.5 58t57.5 36t70 12.5q25 0 48.5 -5t43.5 -12.5t35 -15t23 -12.5q6 -4 7.5 -11.5t-2.5 -13.5l-25 -45q-5 -9 -11.5 -9.5t-14.5 4.5q-3 2 -13.5 7t-25 10.5t-32 10t-33.5 4.5q-15 0 -30 -5.5 t-27 -17.5t-19 -30.5t-7 -44.5v-124h267q8 0 13.5 -5.5t5.5 -13.5v-362q0 -8 -5.5 -13.5t-13.5 -5.5h-57q-8 0 -13.5 5.5t-5.5 13.5v298h-191v-298q0 -11 -9.5 -15t-18.5 -4h-50q-8 0 -13.5 5.5t-5.5 13.5v298z" />
<glyph unicode="&#xfb02;" horiz-adv-x="552" d="M97 318h-49q-8 0 -13.5 5.5t-5.5 13.5v44q0 19 19 19h49v124q0 46 14.5 81t39 58t57 35t68.5 12q32 0 57 -8.5t43 -18.5q21 -12 37 -27l9 27q3 7 7.5 12t14.5 5h24q8 0 13.5 -5.5t5.5 -13.5v-662q0 -8 -5.5 -13.5t-13.5 -5.5h-57q-8 0 -13.5 5.5t-5.5 13.5v544 q-1 1 -9 10t-22 19.5t-33.5 18.5t-43.5 8q-17 0 -33 -5t-29 -16.5t-21 -29.5t-8 -44v-124h100q19 0 19 -19v-44q0 -8 -5.5 -13.5t-13.5 -5.5h-100v-299q0 -8 -5.5 -13.5t-13.5 -5.5h-59q-8 0 -13 5.5t-5 13.5v299z" />
<glyph horiz-adv-x="0" />
<glyph horiz-adv-x="333" />
<glyph unicode=" "  horiz-adv-x="220" />
<glyph unicode="&#x09;" horiz-adv-x="220" />
<glyph unicode="&#xa0;" horiz-adv-x="220" />
<glyph unicode="!" horiz-adv-x="294" d="M136 272q-7 0 -12.5 5t-6.5 11l-29 279v114q0 8 5.5 13.5t13.5 5.5h80q8 0 13.5 -5.5t5.5 -13.5v-112l-29 -281q-1 -6 -6.5 -11t-12.5 -5h-22zM77 59q0 29 20.5 49.5t48.5 20.5q29 0 49.5 -20.5t20.5 -49.5t-20.5 -49t-49.5 -20q-28 0 -48.5 20t-20.5 49z" />
<glyph unicode="&#x22;" horiz-adv-x="324" d="M222 501q-8 0 -13.5 5.5t-5.5 13.5v161q0 8 5.5 13.5t13.5 5.5h57q10 0 15.5 -7t2.5 -18l-34 -159q-2 -6 -7.5 -10.5t-10.5 -4.5h-23zM61 501q-8 0 -13.5 5.5t-5.5 13.5v161q0 8 5.5 13.5t13.5 5.5h57q10 0 15.5 -7t2.5 -18l-34 -159q-2 -6 -7.5 -10.5t-10.5 -4.5h-23z " />
<glyph unicode="#" horiz-adv-x="540" d="M129 191h-70q-19 0 -19 17v14q0 18 19 18h77l24 167h-72q-8 0 -13.5 4.5t-5.5 12.5v14q0 8 5.5 13t13.5 5h78l32 228q1 6 6 11t12 5h11q8 0 14 -6.5t4 -15.5l-30 -222h154l31 228q1 6 6.5 11t12.5 5h9q9 0 15 -6.5t4 -15.5l-30 -222h67q8 0 13.5 -5t5.5 -13v-14 q0 -17 -18 -17h-74l-24 -167h68q8 0 13.5 -5t5.5 -13v-14q0 -8 -5 -12.5t-13 -4.5h-76l-25 -175q-2 -16 -19 -16h-10q-9 0 -14.5 6.5t-4.5 15.5l25 169h-156l-24 -175q-1 -7 -6.5 -11.5t-12.5 -4.5h-9q-10 0 -15.5 6.5t-3.5 15.5zM340 240l22 167h-154l-24 -167h156z" />
<glyph unicode="$" horiz-adv-x="522" d="M50 69q-6 6 -9.5 12.5t4.5 19.5l29 42q6 8 14.5 11t16.5 -4q2 -2 13.5 -11t29.5 -20t41 -21.5t49 -15.5q0 57 0.5 113t0.5 113q-38 15 -72 32t-60 40.5t-42.5 54t-19.5 72.5q-1 9 -0.5 18t1.5 18q3 27 15.5 54t36 50.5t58.5 40t83 21.5v32q0 8 5.5 13.5t13.5 5.5h10 q8 0 13.5 -5.5t5.5 -13.5v-33q33 -3 61 -11t49.5 -17.5t35 -18t16.5 -10.5q6 -4 9.5 -13.5t-3.5 -20.5q-7 -10 -13.5 -21t-14 -19t-15.5 -11t-17 3q-2 1 -12 7t-25 14t-33.5 15.5t-37.5 12.5q0 -55 -0.5 -110t-0.5 -110q39 -17 75.5 -36t64.5 -45t45 -59.5t17 -78.5 q0 -39 -15 -72t-41.5 -57.5t-64 -40t-82.5 -18.5v-104q0 -9 -6.5 -13.5t-14.5 -4.5t-17 3.5t-9 14.5v104q-40 3 -72 13.5t-56 23t-39 24.5t-21 17zM238 620q-26 -3 -44 -12t-29.5 -21.5t-17 -26.5t-5.5 -27q0 -38 24.5 -65t71.5 -50v202zM286 78q42 5 69.5 31t27.5 61 q0 36 -24.5 63.5t-72.5 52.5v-208z" />
<glyph unicode="%" horiz-adv-x="668" d="M163 441q-28 0 -52.5 10.5t-43 29t-29 43t-10.5 52.5t10.5 52.5t29 43t43 29t52.5 10.5t52.5 -10.5t43 -29t29 -43t10.5 -52.5t-10.5 -52.5t-29 -43t-43 -29t-52.5 -10.5zM459 690q7 10 17 10h33q11 0 16.5 -8.5t0.5 -18.5l-345 -663q-2 -3 -7.5 -6.5t-9.5 -3.5h-31 q-11 0 -16.5 8.5t-0.5 18.5zM163 512q26 0 44 18.5t18 45.5q0 25 -18 43.5t-44 18.5t-44.5 -18.5t-18.5 -43.5q0 -27 18.5 -45.5t44.5 -18.5zM351 124q0 28 10.5 52.5t29 43t43 29t52.5 10.5t52.5 -10.5t43 -29t29 -43t10.5 -52.5t-10.5 -52.5t-29 -43t-43 -29t-52.5 -10.5 t-52.5 10.5t-43 29t-29 43t-10.5 52.5zM422 124q0 -26 18.5 -44.5t45.5 -18.5q25 0 43.5 18.5t18.5 44.5t-18.5 44t-43.5 18q-27 0 -45.5 -18t-18.5 -44z" />
<glyph unicode="&#x26;" horiz-adv-x="679" d="M79 176q0 45 16.5 79t39.5 58t46 39.5t37 23.5v2l-23 25q-29 31 -49.5 65.5t-19.5 79.5q0 28 11.5 57t34 52.5t57 38t80.5 14.5q41 0 74 -12.5t56.5 -34.5t36 -50.5t12.5 -61.5q0 -36 -15.5 -66t-37.5 -53.5t-44.5 -40.5t-37.5 -27l140 -140q17 32 26.5 69t11.5 75 q1 17 7.5 22t20.5 2l41 -8q17 -3 17.5 -13.5t-0.5 -17.5q-6 -57 -24 -107.5t-37 -84.5l93 -90q9 -9 12 -19t-14 -27l-26 -26q-9 -8 -20.5 -8.5t-22.5 11.5l-79 80q-14 -15 -34 -31.5t-47 -30t-61.5 -22t-75.5 -8.5q-47 0 -84.5 15t-63.5 40.5t-40 59t-14 71.5zM295 423 q11 7 29 17.5t34.5 26t28.5 35.5t12 45q0 16 -6.5 31.5t-18.5 27.5t-30 19.5t-40 7.5q-42 0 -65.5 -25.5t-23.5 -60.5q-1 -29 15.5 -52.5t42.5 -49.5zM174 182q0 -24 9 -43.5t24.5 -34t36.5 -22.5t45 -8q27 0 49.5 6.5t41.5 17t33.5 23t25.5 25.5l-167 176 q-12 -7 -28.5 -18.5t-32 -29t-26.5 -40t-11 -52.5z" />
<glyph unicode="'" horiz-adv-x="163" d="M61 501q-8 0 -13.5 5.5t-5.5 13.5v161q0 8 5.5 13.5t13.5 5.5h57q10 0 15.5 -7t2.5 -18l-34 -159q-2 -6 -7.5 -10.5t-10.5 -4.5h-23v0z" />
<glyph unicode="(" horiz-adv-x="341" d="M302 -2q5 -2 9 -6.5t2 -11.5l-2 -46q-1 -13 -19 -13q-43 3 -86 22t-77.5 63.5t-56.5 119.5t-22 189t22 189t56.5 119.5t77.5 63.5t86 21q17 2 19 -13l2 -46q2 -7 -2 -12t-9 -6q-84 -19 -119.5 -99.5t-35.5 -216.5q0 -137 35.5 -217.5t119.5 -99.5z" />
<glyph unicode=")" horiz-adv-x="341" d="M28 -19q-1 6 2.5 11t8.5 6q84 19 120 99.5t36 217.5q0 136 -36 216.5t-120 99.5q-13 2 -11 18l3 46q0 15 18 13q43 -2 86 -21t77.5 -63.5t56.5 -119.5t22 -189t-22 -189t-56.5 -119.5t-77.5 -63.5t-86 -22q-18 0 -18 13l-3 47v0z" />
<glyph unicode="*" horiz-adv-x="338" d="M158 392q-8 0 -13.5 5.5t-5.5 13.5l2 85l-70 -49q-6 -5 -14 -3t-12 8l-12 19q-5 7 -3 14.5t8 12.5l79 48l-80 49q-6 5 -7.5 12.5t2.5 13.5t6.5 10t6.5 9q4 6 11.5 8t13.5 -3l71 -49l-2 85q0 8 5.5 13.5t13.5 5.5h22q8 0 13.5 -5.5t5.5 -13.5l-2 -85l70 51q6 4 13.5 2 t12.5 -8l12 -19q4 -7 3 -14t-8 -12l-80 -50l80 -50q8 -5 9 -12.5t-3 -13.5l-13 -19q-4 -7 -11.5 -8.5t-14.5 2.5l-70 50l2 -84q0 -8 -5.5 -13.5t-13.5 -5.5h-22v0z" />
<glyph unicode="+" horiz-adv-x="583" d="M252 306h-154q-8 0 -13.5 5.5t-5.5 13.5v42q0 8 5.5 13.5t13.5 5.5h154v155q0 8 5.5 13t13.5 5h42q8 0 13.5 -5t5.5 -13v-155h154q8 0 13 -5.5t5 -13.5v-42q0 -8 -5 -13.5t-13 -5.5h-154v-153q0 -8 -5.5 -13t-13.5 -5h-42q-8 0 -13.5 5t-5.5 13v153z" />
<glyph unicode="," horiz-adv-x="244" d="M45 59q0 29 21 49.5t52 20.5q14 0 28.5 -5.5t26.5 -18t20 -34t8 -53.5q0 -39 -10.5 -71t-26 -57.5t-32.5 -43.5t-30 -28q-14 -12 -24 0l-15 15q-5 5 -4 12t9 13q4 4 15.5 14.5t24 28t22 41t9.5 52.5q-2 0 -8.5 -2t-16.5 -2q-28 0 -48.5 20t-20.5 49z" />
<glyph unicode="-" horiz-adv-x="390" d="M87 206q-8 0 -13.5 5t-5.5 13v43q0 19 19 19h216q19 0 19 -19v-43q0 -8 -5.5 -13t-13.5 -5h-216v0z" />
<glyph unicode="." horiz-adv-x="229" d="M45 59q0 29 20 49.5t49 20.5t49.5 -20.5t20.5 -49.5t-20.5 -49t-49.5 -20t-49 20t-20 49z" />
<glyph unicode="/" horiz-adv-x="335" d="M230 687q4 13 18 13h47q11 0 16 -7t2 -18l-195 -662q-2 -5 -7.5 -9t-10.5 -4h-48q-10 0 -15.5 7t-2.5 18z" />
<glyph unicode="0" horiz-adv-x="631" d="M316 -10q-59 0 -105.5 24t-78 69t-48 110t-16.5 147t16.5 147t48 110t78 69t105.5 24t105 -24t77.5 -69t48 -110t16.5 -147t-16.5 -147t-48 -110t-77.5 -69t-105 -24zM316 81q70 0 108 67t38 192q0 124 -38 191t-108 67q-71 0 -109 -67t-38 -191q0 -125 38 -192t109 -67z " />
<glyph unicode="1" horiz-adv-x="343" d="M146 527l-80 -38q-7 -3 -13.5 -1.5t-8.5 8.5l-12 35q-2 6 -1 11.5t4 8.5l142 129h49q8 0 13 -5.5t5 -13.5v-642q0 -8 -5 -13.5t-13 -5.5h-61q-8 0 -13.5 5.5t-5.5 13.5v508z" />
<glyph unicode="2" horiz-adv-x="518" d="M36 45q28 31 60.5 69.5t65.5 78.5t65.5 79t60.5 72q76 85 76 146q0 19 -7 38.5t-21.5 35t-38 25.5t-56.5 10q-21 0 -39.5 -6.5t-34.5 -16t-29.5 -21.5t-23.5 -23q-6 -6 -13.5 -6t-13.5 6l-34 34q-5 5 -5.5 12.5t4.5 13.5q22 27 52 49q26 18 61.5 33.5t80.5 15.5 q54 0 94.5 -16t68.5 -43t42 -62.5t14 -74.5q0 -29 -7.5 -54t-20.5 -48t-30.5 -46t-37.5 -47l-42.5 -51t-46 -54.5t-47.5 -55t-46 -52.5h255q8 0 13.5 -5.5t5.5 -13.5v-48q0 -8 -5.5 -13.5t-13.5 -5.5h-387q-8 0 -13.5 5.5t-5.5 13.5v26z" />
<glyph unicode="3" horiz-adv-x="529" d="M42 79q-5 5 -4.5 12t5.5 12l39 36q15 12 27 -2q2 -3 13 -13t29 -21t42 -19.5t52 -8.5q24 0 47 7.5t40 21.5t27.5 34t10.5 45q0 22 -9.5 43.5t-29 37.5t-49.5 26t-70 10h-56q-19 0 -19 21v43q0 21 20 21h56q71 0 106 31t35 76q0 25 -9.5 45t-25.5 34.5t-36.5 22t-42.5 7.5 q-23 0 -41 -5.5t-32 -14t-25 -18.5t-18 -18q-5 -6 -12 -7t-14 5l-37 33q-6 5 -5.5 13t5.5 13q23 25 52 44q25 17 58 30.5t75 13.5q43 0 81.5 -13t66.5 -36.5t44.5 -57.5t16.5 -76q0 -29 -10 -54t-25 -45.5t-33 -35t-35 -22.5v-3q18 -8 39 -22.5t39 -35.5t30.5 -48.5 t12.5 -59.5q0 -41 -16 -76t-45.5 -60.5t-71 -40t-93.5 -14.5q-47 0 -81.5 10t-59.5 24.5t-40.5 29.5t-23.5 25z" />
<glyph unicode="4" horiz-adv-x="593" d="M35 149q-8 0 -13.5 5.5t-5.5 13.5v60l370 457q2 2 7 4t8 2h37q8 0 13.5 -5.5t5.5 -13.5v-442h81q8 0 13.5 -5t5.5 -13v-42q0 -8 -5.5 -13.5t-13.5 -5.5h-81l1 -132q0 -8 -5.5 -13.5t-13.5 -5.5h-59q-8 0 -13.5 5.5t-5.5 13.5v130h-326zM365 232v294l-241 -294h241z" />
<glyph unicode="5" horiz-adv-x="530" d="M62 73q-10 11 -10.5 18t8.5 16q10 8 18.5 17.5t18.5 17.5q13 12 24 0l14 -14t29.5 -22t42.5 -20t53 -9q31 0 56 12t43 32t27.5 45t9.5 52q0 26 -8.5 49.5t-26 41t-43.5 27.5t-61 10h-153q-15 0 -23 11.5t-8 23.5v280q0 8 5.5 13.5t13.5 5.5h309q8 0 13.5 -5.5t5.5 -13.5 v-49q0 -8 -5.5 -13.5t-13.5 -5.5h-238v-158h101q111 0 170.5 -58.5t59.5 -157.5q0 -47 -18 -88.5t-49.5 -73t-75 -49.5t-94.5 -18q-41 0 -73 8.5t-56 21.5t-40.5 27.5t-25.5 25.5z" />
<glyph unicode="6" horiz-adv-x="541" d="M48 270q0 70 18 126.5t47 101.5t66 79.5t73.5 59t70 40.5t56.5 25q18 6 25 -12l17 -41q4 -9 0 -16.5t-18 -12.5q-17 -6 -52 -24t-72 -46.5t-69.5 -66.5t-44.5 -84q3 2 14.5 8t29.5 12.5t41 11.5t48 5q40 0 77.5 -14.5t66.5 -42.5t47 -68t18 -92q0 -47 -18 -89t-48.5 -73 t-71 -49t-85.5 -18q-60 0 -104.5 22t-73.5 60t-43.5 89t-14.5 109zM283 80q28 0 52 11t42 30t28 44t10 53t-10.5 53t-28.5 43.5t-42 29t-52 10.5q-30 0 -54 -9.5t-42 -22t-28.5 -25t-12.5 -19.5q-3 -32 3 -66.5t22.5 -64t44 -48.5t68.5 -19z" />
<glyph unicode="7" horiz-adv-x="478" d="M71 30l270 562h-296q-8 0 -13.5 5.5t-5.5 13.5v50q0 8 5.5 13.5t13.5 5.5h409q8 0 13.5 -5.5t5.5 -13.5v-7l-294 -627q-7 -15 -13.5 -21t-25.5 -6h-46q-10 0 -16.5 5.5t-6.5 13.5v11z" />
<glyph unicode="8" horiz-adv-x="572" d="M55 182q0 33 13.5 60.5t33 49t40 36.5t34.5 21v3q-16 8 -34 22.5t-33.5 34t-25.5 44.5t-10 54q0 41 16 75t44.5 58t67.5 37t84 13q46 0 85.5 -13t68 -37t44.5 -58t16 -75q0 -29 -10 -53.5t-25.5 -44t-33.5 -34t-34 -22.5v-4q17 -8 38 -23t39.5 -36t31 -48.5t12.5 -59.5 q0 -41 -16 -76t-46 -61t-73.5 -40.5t-97.5 -14.5q-53 0 -95 14.5t-72 40.5t-46 61t-16 76zM286 396q58 8 85 37.5t27 69.5q0 46 -32.5 75.5t-82.5 29.5q-23 0 -42.5 -8t-34.5 -22t-23.5 -33t-8.5 -42q0 -41 26.5 -69.5t85.5 -37.5zM159 180q0 -25 10.5 -45t28 -34.5t40 -22 t47.5 -7.5q27 0 50 7.5t40.5 22t27.5 34.5t10 45q0 20 -8.5 39.5t-24.5 36t-40 28t-54 16.5q-30 -5 -54 -16.5t-40 -28t-24.5 -36t-8.5 -39.5z" />
<glyph unicode="9" horiz-adv-x="540" d="M119 37q-4 9 0 16.5t18 12.5q17 6 52 23.5t72.5 46t70 66.5t44.5 84q-3 -2 -15 -8t-30 -12t-40.5 -11t-47.5 -5q-40 0 -78 14.5t-67 42t-47 68t-18 92.5q0 47 18 89t48.5 73t71 49t86.5 18q60 0 104 -22t73 -60.5t43.5 -89.5t14.5 -109q0 -70 -18 -126.5t-47 -101.5 t-66 -79t-73.5 -59t-70 -41t-56.5 -25q-18 -6 -25 12zM258 331q30 0 54.5 9.5t42 22t28 25t12.5 19.5q3 31 -2.5 66.5t-22 64.5t-44.5 48.5t-69 19.5q-27 0 -51 -11t-42 -30t-28.5 -44t-10.5 -53q0 -29 10.5 -53.5t28.5 -43.5t42 -29.5t52 -10.5z" />
<glyph unicode=":" horiz-adv-x="247" d="M124 281q-27 0 -46 19t-19 45q0 27 19 46t46 19t45.5 -19t18.5 -46q0 -26 -18.5 -45t-45.5 -19zM59 54q0 27 19 46t46 19t45.5 -19t18.5 -46q0 -26 -18.5 -45t-45.5 -19t-46 19t-19 45z" />
<glyph unicode=";" horiz-adv-x="253" d="M124 281q-27 0 -46 19t-19 45q0 27 19 46t46 19t45.5 -19t18.5 -46q0 -26 -18.5 -45t-45.5 -19zM61 52q0 26 18.5 44t45.5 18q13 0 26 -4.5t24 -16t18 -30.5t7 -48q0 -34 -9.5 -63t-23 -52.5t-28.5 -40.5t-26 -27q-13 -12 -24 -1l-14 15q-10 9 4 23q4 3 14.5 13 t21.5 25.5t20 37t9 48.5q-2 -1 -7.5 -2t-13.5 -1q-26 0 -44 18t-18 44z" />
<glyph unicode="&#x3c;" horiz-adv-x="436" d="M31 210q-4 2 -7 7t-3 10v5q0 5 3 10t7 7l343 212q10 6 19 1t9 -17v-53q0 -6 -3 -11t-7 -7l-238 -144l238 -139q4 -2 7 -7t3 -10v-53q0 -12 -9 -17t-19 1l-343 205v0z" />
<glyph unicode="=" horiz-adv-x="498" d="M93 344q-8 0 -13.5 5.5t-5.5 13.5v43q0 8 5.5 13.5t13.5 5.5h312q8 0 13.5 -5.5t5.5 -13.5v-43q0 -8 -5.5 -13.5t-13.5 -5.5h-312zM93 133q-8 0 -13.5 5.5t-5.5 13.5v44q0 8 5.5 13.5t13.5 5.5h312q8 0 13.5 -5.5t5.5 -13.5v-44q0 -8 -5.5 -13.5t-13.5 -5.5h-312z" />
<glyph unicode="&#x3e;" horiz-adv-x="436" d="M34 74q0 12 10 17l237 139l-237 144q-10 5 -10 18v53q0 12 9 17t19 -1l343 -212q4 -2 7 -7t3 -10v-5q0 -5 -3 -10t-7 -7l-343 -205q-10 -6 -19 -1t-9 17v53z" />
<glyph unicode="?" horiz-adv-x="454" d="M182 272q-8 0 -13.5 5.5t-5.5 13.5v42q0 27 10.5 47t27 36.5t35 30t35 28.5t27 32t10.5 40q0 31 -23 54t-67 23q-27 0 -46.5 -7t-34 -16.5t-25 -20t-17.5 -16.5q-12 -11 -24 0l-33 32q-6 5 -5.5 12.5t5.5 13.5q19 25 47 44q24 17 59.5 30.5t83.5 13.5q39 0 72.5 -12 t58.5 -33t39 -50.5t14 -65.5q0 -31 -11.5 -55t-28.5 -42.5t-37.5 -33t-37.5 -28.5t-28.5 -28.5t-11.5 -32.5v-37q0 -10 -6 -15t-15 -5h-54zM139 59q0 29 20 49.5t49 20.5t49.5 -20.5t20.5 -49.5t-20.5 -49t-49.5 -20t-49 20t-20 49z" />
<glyph unicode="@" horiz-adv-x="983" d="M37 223q0 106 33.5 195.5t95 154.5t147.5 101t192 36q102 0 182 -32t135 -88.5t83.5 -134t28.5 -167.5q0 -50 -11 -102.5t-36.5 -96t-67.5 -71.5t-103 -28q-52 0 -79 23t-38 55h-8q-16 -32 -48.5 -55t-79.5 -23q-39 0 -71.5 16t-56 44t-37 66.5t-13.5 84.5 q0 47 13.5 85.5t37.5 66t57.5 42.5t72.5 15q27 0 47.5 -7.5t35.5 -17.5t23.5 -19t11.5 -12q4 11 6 19.5t6 14.5t10.5 9t18.5 3h13q8 0 13.5 -5.5t5.5 -13.5v-198q0 -35 5 -57.5t14 -35t21 -17t27 -4.5q27 0 49.5 15.5t39 44t25.5 68.5t9 88q0 73 -21.5 136t-65 109.5 t-108 73t-150.5 26.5t-156 -28t-119.5 -81t-76.5 -128.5t-27 -169.5q0 -66 18.5 -123.5t52.5 -105t80 -83.5t102 -59q17 -8 10 -25l-18 -45q-7 -15 -21 -9q-67 26 -124 69.5t-98 101.5t-64.5 128.5t-23.5 150.5zM372 204q-1 -30 7 -53.5t21.5 -40t31.5 -25.5t39 -9 q48 0 70 27.5t23 69.5v92q-1 5 -7 15.5t-17.5 21t-28.5 18.5t-40 8q-43 0 -70 -32.5t-29 -91.5z" />
<glyph unicode="A" d="M20 0q-11 0 -16.5 8t-0.5 18l307 673q2 5 7.5 8t9.5 3h10q4 0 9.5 -3t7.5 -8l305 -673q5 -10 -0.5 -18t-16.5 -8h-63q-16 0 -23 15l-62 137h-327q-15 -35 -30.5 -68.5t-30.5 -68.5q-2 -5 -8 -10t-15 -5h-63zM456 238l-123 274h-5l-122 -274h250z" />
<glyph unicode="B" horiz-adv-x="622" d="M97 681q0 8 5.5 13.5t13.5 5.5h224q45 0 83.5 -14t66 -39t43 -59t15.5 -73q0 -29 -9.5 -53.5t-24.5 -44.5t-33.5 -35.5t-36.5 -25.5q20 -8 42 -21.5t40.5 -33.5t30.5 -47t12 -61q0 -42 -16.5 -77.5t-45.5 -61t-69 -40t-87 -14.5h-235q-8 0 -13.5 5.5t-5.5 13.5v662z M334 396q48 0 75.5 31t27.5 76q0 46 -27.5 74.5t-75.5 28.5h-135v-210h135zM350 92q46 0 77 31t31 78q0 23 -10 42t-27 33t-39.5 22t-46.5 8h-137v-214h152z" />
<glyph unicode="C" horiz-adv-x="696" d="M46 349q0 75 28.5 141t77 114.5t114.5 77t141 28.5q76 0 133.5 -24t108.5 -69q15 -14 1 -28l-44 -45q-11 -14 -25 0q-35 31 -80.5 49t-92.5 18q-54 0 -99.5 -21t-79.5 -56.5t-53 -83t-19 -99.5q0 -53 19.5 -100t53 -82t79.5 -56t100 -21q55 0 95.5 19t76.5 47q13 10 24 1 l46 -45q6 -5 5 -13.5t-6 -13.5q-51 -50 -113.5 -73.5t-129.5 -23.5q-75 0 -141 28t-114.5 76.5t-77 114t-28.5 140.5z" />
<glyph unicode="D" horiz-adv-x="743" d="M97 681q0 8 5 13.5t13 5.5h230q72 0 136 -27.5t112 -75t75.5 -111t27.5 -135.5q0 -73 -27.5 -137t-75.5 -111.5t-112 -75t-136 -27.5h-230q-8 0 -13 5.5t-5 13.5v662zM331 95q55 0 101.5 19t80.5 53.5t53 81t19 102.5q0 55 -19 101.5t-53 80.5t-80.5 53t-101.5 19h-132 v-510h132z" />
<glyph unicode="E" horiz-adv-x="589" d="M97 681q0 8 5.5 13.5t13.5 5.5h400q8 0 13.5 -5.5t5.5 -13.5v-56q0 -8 -5.5 -13.5t-13.5 -5.5h-316v-204h267q8 0 13.5 -5.5t5.5 -13.5v-56q0 -8 -5.5 -13.5t-13.5 -5.5h-267v-215h316q8 0 13.5 -5.5t5.5 -13.5v-55q0 -8 -5.5 -13.5t-13.5 -5.5h-400q-8 0 -13.5 5.5 t-5.5 13.5v662z" />
<glyph unicode="F" horiz-adv-x="566" d="M97 681q0 8 5.5 13.5t13.5 5.5h400q8 0 13.5 -5.5t5.5 -13.5v-56q0 -8 -5.5 -13.5t-13.5 -5.5h-316v-231h267q8 0 13.5 -5.5t5.5 -13.5v-55q0 -8 -5.5 -13.5t-13.5 -5.5h-267v-263q0 -8 -5.5 -13.5t-13.5 -5.5h-65q-8 0 -13.5 5.5t-5.5 13.5v662z" />
<glyph unicode="G" horiz-adv-x="722" d="M46 349q0 75 28.5 141t77 114.5t114 77t140.5 28.5q72 0 132 -24.5t111 -68.5q6 -6 6.5 -14t-5.5 -14q-11 -12 -22.5 -23.5t-22.5 -23.5t-26 1q-35 31 -79.5 49.5t-90.5 18.5q-53 0 -99 -21t-80 -56.5t-53 -83t-19 -99.5t19 -99t53 -82.5t80 -56.5t99 -21q31 0 57 4.5 t45.5 10.5t31.5 11.5t16 7.5v112h-98q-8 0 -13.5 5t-5.5 13v58q0 19 19 19h182q8 0 13 -5.5t5 -13.5q0 -60 0.5 -121t0.5 -121q0 -10 -8 -16q-31 -19 -70 -33q-33 -13 -78.5 -23t-99.5 -10q-75 0 -140.5 28t-114 76.5t-77 114t-28.5 140.5z" />
<glyph unicode="H" horiz-adv-x="768" d="M97 681q0 8 5.5 13.5t13.5 5.5h66q8 0 13.5 -5.5t5.5 -13.5v-279h366v279q0 8 5.5 13.5t13.5 5.5h66q8 0 13.5 -5.5t5.5 -13.5v-662q0 -8 -5.5 -13.5t-13.5 -5.5h-66q-8 0 -13.5 5.5t-5.5 13.5v289h-366v-289q0 -8 -5.5 -13.5t-13.5 -5.5h-66q-8 0 -13.5 5.5t-5.5 13.5 v662z" />
<glyph unicode="I" horiz-adv-x="298" d="M97 681q0 8 5.5 13.5t13.5 5.5h66q8 0 13.5 -5.5t5.5 -13.5v-662q0 -8 -5.5 -13.5t-13.5 -5.5h-66q-8 0 -13.5 5.5t-5.5 13.5v662z" />
<glyph unicode="J" horiz-adv-x="412" d="M-17 63q-8 13 2 25l36 39q11 9 18 7.5t14 -9.5q11 -13 32 -28t50 -15q18 0 36.5 7.5t32.5 22.5t23 39t9 57v473q0 8 5.5 13.5t13.5 5.5h66q8 0 13.5 -5.5t5.5 -13.5v-472q0 -52 -15.5 -93t-43 -69t-65 -42.5t-81.5 -14.5q-33 0 -58.5 8.5t-44 20t-31 24t-18.5 20.5z" />
<glyph unicode="K" horiz-adv-x="636" d="M97 676q0 10 6.5 17t17.5 7h58q10 0 17 -7t7 -17v-277l282 291q3 4 8 7t11 3h75q13 0 18.5 -12.5t-4.5 -23.5l-289 -294l306 -337q6 -8 2 -20.5t-20 -12.5h-80q-8 0 -12 2.5t-6 4.5l-291 328v-311q0 -10 -7 -17t-17 -7h-58q-11 0 -17.5 7t-6.5 17v652z" />
<glyph unicode="L" horiz-adv-x="499" d="M97 681q0 8 5.5 13.5t13.5 5.5h66q8 0 13.5 -5.5t5.5 -13.5v-588h271q8 0 13.5 -5.5t5.5 -13.5v-55q0 -8 -5.5 -13.5t-13.5 -5.5h-356q-8 0 -13.5 5.5t-5.5 13.5v662z" />
<glyph unicode="M" horiz-adv-x="869" d="M173 695q2 6 7 10.5t11 4.5h16q5 0 10 -3t7 -8l209 -511h4l208 511q4 11 17 11h16q6 0 11 -4.5t7 -10.5l123 -672q5 -23 -18 -23h-65q-7 0 -12 4.5t-7 9.5l-74 447h-3l-180 -460q-4 -11 -17 -11h-18q-13 0 -17 11l-181 460h-4l-72 -447q-1 -5 -6.5 -9.5t-11.5 -4.5h-65 q-22 0 -19 23z" />
<glyph unicode="N" horiz-adv-x="775" d="M97 692q0 8 5.5 13t13.5 5h25l434 -502h1v473q0 8 5.5 13.5t13.5 5.5h64q8 0 13.5 -5.5t5.5 -13.5v-673q0 -8 -5.5 -13t-13.5 -5h-26l-434 516h-1v-487q0 -8 -5.5 -13.5t-13.5 -5.5h-63q-8 0 -13.5 5.5t-5.5 13.5v673z" />
<glyph unicode="O" horiz-adv-x="811" d="M46 349q0 75 28 141t76.5 114.5t114 77t140.5 28.5t140.5 -28.5t114.5 -77t77 -114.5t28 -141t-28 -140.5t-77 -114t-114.5 -76.5t-140.5 -28t-140.5 28t-114 76.5t-76.5 114t-28 140.5zM146 349q0 -54 20.5 -101t55.5 -82t82.5 -55.5t100.5 -20.5q54 0 101 20.5 t82.5 55.5t56 82t20.5 101q0 53 -20.5 100.5t-56 83t-82.5 56.5t-101 21q-53 0 -100.5 -21t-82.5 -56.5t-55.5 -83t-20.5 -100.5z" />
<glyph unicode="P" horiz-adv-x="594" d="M97 681q0 8 5.5 13.5t13.5 5.5h228q46 0 87 -17.5t71.5 -47.5t48 -70.5t17.5 -85.5q0 -47 -17.5 -87.5t-48 -71.5t-71 -48.5t-86.5 -17.5h-145v-235q0 -8 -5.5 -13.5t-13.5 -5.5h-65q-8 0 -13.5 5.5t-5.5 13.5v662zM338 352q26 0 49 10t40.5 27t27.5 40.5t10 50.5 q0 25 -10 47t-27.5 38.5t-40.5 25.5t-49 9h-138v-248h138z" />
<glyph unicode="Q" horiz-adv-x="812" d="M46 349q0 75 28 141t76.5 114.5t114 77t140.5 28.5t140.5 -28.5t114.5 -77t77 -114.5t28 -141q0 -53 -15 -102t-42 -91t-64.5 -76t-82.5 -56l121 -192q7 -11 1.5 -20.5t-17.5 -9.5h-78q-3 0 -8 2.5t-8 7.5l-108 182q-14 -2 -29.5 -3t-29.5 -1q-75 0 -140.5 28t-114 76.5 t-76.5 114t-28 140.5zM146 349q0 -54 20.5 -101t55.5 -82t82.5 -55.5t100.5 -20.5q54 0 101 20.5t82.5 55.5t56 82t20.5 101q0 53 -20.5 100.5t-56 83t-82.5 56.5t-101 21q-53 0 -100.5 -21t-82.5 -56.5t-55.5 -83t-20.5 -100.5z" />
<glyph unicode="R" horiz-adv-x="665" d="M97 681q0 8 5.5 13.5t13.5 5.5h272q45 0 84.5 -16.5t69.5 -45.5t47 -68t17 -84q0 -35 -11 -66t-30.5 -57t-46.5 -46.5t-60 -33.5l137 -254q5 -10 0.5 -19.5t-17.5 -9.5h-78q-6 0 -10 3t-6 6l-133 265h-151v-255q0 -8 -5.5 -13.5t-13.5 -5.5h-65q-8 0 -13.5 5.5t-5.5 13.5 v662zM380 360q24 0 46.5 9.5t39 26.5t26.5 39.5t10 48.5q0 24 -10 46t-26.5 38t-39 25.5t-46.5 9.5h-178v-243h178z" />
<glyph unicode="S" horiz-adv-x="537" d="M58 69q-7 6 -10.5 12.5t4.5 19.5q7 10 13 20.5t13 20.5t16.5 12.5t17.5 -4.5q2 -2 16.5 -13t37 -23.5t50 -22.5t56.5 -10q52 0 82.5 27.5t30.5 65.5q0 45 -38 76.5t-113 62.5q-38 16 -71.5 35t-58 43.5t-38.5 57t-14 76.5q0 29 12 61.5t38 60t67.5 45.5t101.5 18 q37 0 69.5 -8t57 -18.5t39.5 -20t19 -12.5q6 -4 10 -13.5t-4 -20.5q-6 -9 -12.5 -19t-12.5 -19q-6 -10 -15 -13.5t-20 3.5q-3 1 -16 9t-32.5 17t-42 16.5t-44.5 7.5q-32 0 -53.5 -9t-34.5 -22.5t-19 -29t-6 -29.5q0 -43 32 -71.5t95 -54.5q43 -18 82.5 -38t68.5 -46 t46.5 -60t17.5 -80q0 -39 -16.5 -73.5t-46 -60t-70.5 -40.5t-90 -15q-46 0 -83 10t-64.5 23.5t-44.5 26.5t-23 19z" />
<glyph unicode="T" horiz-adv-x="490" d="M193 606h-163q-8 0 -13.5 5.5t-5.5 13.5v56q0 8 5.5 13.5t13.5 5.5h430q8 0 13.5 -5.5t5.5 -13.5v-56q0 -8 -5.5 -13.5t-13.5 -5.5h-163v-587q0 -8 -5.5 -13.5t-13.5 -5.5h-66q-8 0 -13.5 5.5t-5.5 13.5v587z" />
<glyph unicode="U" horiz-adv-x="720" d="M88 681q0 8 5.5 13.5t13.5 5.5h67q8 0 13.5 -5.5t5.5 -13.5v-413q0 -38 11.5 -70.5t33 -56.5t52.5 -37.5t69 -13.5q39 0 70 13.5t52.5 37.5t33.5 56t12 69v415q0 8 5.5 13.5t13.5 5.5h67q8 0 13.5 -5.5t5.5 -13.5v-420q0 -57 -20.5 -106.5t-57 -86t-86.5 -57.5t-109 -21 t-108.5 21t-85.5 57.5t-56.5 86t-20.5 106.5v420z" />
<glyph unicode="V" horiz-adv-x="664" d="M4 674q-5 10 0.5 18t16.5 8h71q6 0 10.5 -3.5t6.5 -7.5l220 -495h6l220 495q2 4 6 7.5t11 3.5h71q11 0 16.5 -8t0.5 -18l-307 -673q-6 -11 -17 -11h-10q-12 0 -17 11z" />
<glyph unicode="W" horiz-adv-x="900" d="M33 676q-3 11 2 17.5t16 6.5h67q6 0 11 -4.5t7 -9.5l121 -459h4l163 472q4 11 17 11h18q13 0 17 -11l165 -472h4l119 459q2 5 7 9.5t11 4.5h67q11 0 16 -6.5t2 -17.5l-189 -672q-4 -14 -18 -14h-16q-13 0 -17 11l-176 497h-5l-173 -497q-4 -11 -17 -11h-16q-6 0 -11 4 t-7 10z" />
<glyph unicode="X" horiz-adv-x="608" d="M241 359l-198 313q-6 10 -1 19t18 9h85q12 0 17 -9l141 -239h1l143 239q2 3 6 6t10 3h85q13 0 18 -9t-1 -19l-198 -313l205 -331q6 -11 1 -19.5t-18 -8.5h-77q-6 0 -10.5 3t-6.5 6l-157 256h-2l-155 -256q-2 -3 -6.5 -6t-10.5 -3h-77q-14 0 -19 9t1 19z" />
<glyph unicode="Y" horiz-adv-x="574" d="M234 337l-234 334q-6 10 -1 19.5t17 9.5h74q6 0 10 -3t6 -6l181 -255l181 255q2 3 6.5 6t9.5 3h75q12 0 17 -9.5t-1 -19.5l-237 -333v-319q0 -8 -5.5 -13.5t-13.5 -5.5h-66q-8 0 -13.5 5.5t-5.5 13.5v318z" />
<glyph unicode="Z" horiz-adv-x="535" d="M27 37l330 563v4h-282q-8 0 -13.5 5.5t-5.5 13.5v58q0 8 5.5 13.5t13.5 5.5h411q8 0 13.5 -5.5t5.5 -13.5v-13l-331 -572v-1h292q8 0 13.5 -5.5t5.5 -13.5v-57q0 -8 -5.5 -13.5t-13.5 -5.5h-420q-8 0 -13.5 5.5t-5.5 13.5v18z" />
<glyph unicode="[" horiz-adv-x="337" d="M297 -219q8 0 13.5 -5t5.5 -13v-44q0 -8 -5.5 -13.5t-13.5 -5.5h-206q-8 0 -13.5 5.5t-5.5 13.5v962q0 8 5.5 13.5t13.5 5.5h206q8 0 13.5 -5.5t5.5 -13.5v-44q0 -8 -5.5 -13.5t-13.5 -5.5h-134v-837h134z" />
<glyph unicode="\" horiz-adv-x="342" d="M22 675q-3 11 2 18t16 7h54q14 0 18 -13l196 -662q3 -11 -2.5 -18t-15.5 -7h-55q-5 0 -10.5 4t-7.5 9z" />
<glyph unicode="]" horiz-adv-x="337" d="M173 -219v837h-133q-8 0 -13.5 5.5t-5.5 13.5v44q0 8 5.5 13.5t13.5 5.5h206q8 0 13.5 -5.5t5.5 -13.5v-962q0 -8 -5.5 -13.5t-13.5 -5.5h-206q-8 0 -13.5 5.5t-5.5 13.5v44q0 8 5.5 13t13.5 5h133z" />
<glyph unicode="^" horiz-adv-x="524" d="M56 391q-12 0 -17 9t1 19l205 285q2 4 7 7t10 3h5q5 0 10 -3t7 -7l199 -285q6 -10 1 -19t-17 -9h-51q-7 0 -11 3.5t-6 6.5l-136 190l-138 -190q-2 -4 -7.5 -7t-10.5 -3h-51v0z" />
<glyph unicode="_" horiz-adv-x="399" d="M21 -29q0 19 19 19h319q19 0 19 -19v-28q0 -8 -5.5 -13t-13.5 -5h-319q-8 0 -13.5 5t-5.5 13v28v0z" />
<glyph unicode="`" horiz-adv-x="302" d="M67 615q-14 7 -6 24l23 44q4 7 12.5 6.5t13.5 -3.5l157 -91q5 -2 7 -7.5t-1 -11.5l-14 -29q-3 -6 -8 -7.5t-16 3.5z" />
<glyph unicode="a" horiz-adv-x="423" d="M36 124q0 55 41.5 92t118.5 37q16 0 30 -2t25 -4l24 -6q1 48 -11.5 68t-50.5 20q-35 0 -65.5 -6.5t-46.5 -11.5q-9 -2 -14.5 3t-7.5 13l-8 37q-2 10 2 15.5t11 7.5q3 1 14.5 5t29.5 8t42 7t52 3q48 0 76 -14t42 -38t18 -56.5t4 -69.5v-213q0 -8 -5.5 -13.5t-13.5 -5.5 h-28q-11 0 -17 14l-10 27q-17 -16 -46.5 -33.5t-76.5 -17.5q-57 0 -93 35.5t-36 98.5zM123 125q0 -27 16.5 -45.5t44.5 -18.5q15 0 29 5t26 12.5t21 16t14 16.5v64q-5 3 -24 9.5t-46 6.5q-36 0 -58.5 -17.5t-22.5 -48.5z" />
<glyph unicode="b" horiz-adv-x="490" d="M65 681q0 8 5.5 13.5t13.5 5.5h58q8 0 13.5 -5.5t5.5 -13.5v-293q7 2 32.5 12t63.5 10q42 0 78 -16.5t62.5 -45t41.5 -66.5t15 -82q0 -43 -14.5 -81.5t-39.5 -67t-59 -45t-74 -16.5q-30 0 -53 8.5t-40 19.5q-19 12 -34 28l-8 -29q-5 -17 -18 -17h-30q-8 0 -13.5 5.5 t-5.5 13.5v662zM160 136q2 -4 8.5 -14t18 -20t28.5 -18t40 -8q24 0 43.5 10t33.5 27t21.5 39.5t7.5 47.5t-8.5 47.5t-23.5 39.5t-36 26.5t-46 9.5q-20 0 -36 -3.5t-27 -8.5q-13 -5 -24 -11v-164z" />
<glyph unicode="c" horiz-adv-x="434" d="M35 199q0 44 17 82.5t46 67t67 45t80 16.5q46 0 81.5 -18t63.5 -53q5 -7 4 -15t-8 -13l-33 -30q-9 -8 -15 -4.5t-12 8.5q-14 15 -34.5 26.5t-45.5 11.5q-24 0 -45.5 -9.5t-37 -26.5t-24.5 -39.5t-9 -47.5q0 -26 9 -48.5t24.5 -39.5t36.5 -26.5t45 -9.5q19 0 33 4.5 t24.5 11t19 14.5t16.5 16q13 13 27 2l27 -22q17 -14 7 -28q-24 -38 -63.5 -61t-91.5 -23q-42 0 -80 16t-66.5 43.5t-45.5 66t-17 83.5z" />
<glyph unicode="d" horiz-adv-x="490" d="M36 200q0 44 15 82t41.5 66.5t62.5 45t78 16.5q38 0 63.5 -10t32.5 -12v293q0 8 5.5 13.5t13.5 5.5h58q8 0 13.5 -5.5t5.5 -13.5v-662q0 -8 -5.5 -13.5t-13.5 -5.5h-30q-13 0 -18 17l-8 29q-15 -16 -34 -28q-17 -11 -40.5 -19.5t-52.5 -8.5q-40 0 -74 16.5t-59 45 t-39.5 67t-14.5 81.5zM129 200q0 -25 7.5 -47.5t21.5 -39.5t33.5 -27t43.5 -10q23 0 40 8t28.5 18t18 20t8.5 14v163q-11 7 -24 12q-11 5 -27 8.5t-36 3.5q-25 0 -46 -9.5t-36 -26.5t-23.5 -39.5t-8.5 -47.5z" />
<glyph unicode="e" horiz-adv-x="451" d="M36 200q0 42 14.5 80.5t40.5 67t63 45.5t82 17q39 0 72.5 -14t58.5 -38.5t39 -58.5t14 -74q0 -5 -0.5 -13.5t-1.5 -13.5q-2 -17 -18 -17h-272q1 -20 10 -39.5t24 -34.5t36 -24t45 -9q27 0 50.5 9.5t38.5 19.5q9 5 15 7t12 -6l28 -38q5 -6 6 -12t-8 -14 q-22 -19 -59.5 -34.5t-88.5 -15.5q-45 0 -82.5 16.5t-63.5 45t-40.5 67t-14.5 81.5zM327 244q-1 18 -8.5 34t-20 28.5t-29 19.5t-34.5 7q-41 0 -69 -25.5t-33 -63.5h194z" />
<glyph unicode="f" horiz-adv-x="335" d="M96 317h-47q-8 0 -13.5 5.5t-5.5 13.5v45q0 19 19 19h47v124q0 46 13 81t36 58.5t54 35t67 11.5q41 0 70.5 -14t43.5 -26q5 -5 6 -11.5t-2 -11.5l-25 -45q-8 -15 -25 -3q-10 7 -29 15.5t-37 8.5q-33 0 -54 -24t-21 -75v-124h108q19 0 19 -19v-45q0 -8 -5.5 -13.5 t-13.5 -5.5h-108v-298q0 -8 -5.5 -13.5t-13.5 -5.5h-59q-8 0 -13.5 5.5t-5.5 13.5v298z" />
<glyph unicode="g" horiz-adv-x="460" d="M25 24q0 29 10.5 50.5t24.5 35.5q16 17 36 28q-9 11 -16 26q-6 13 -10.5 30.5t-4.5 40.5q0 35 12.5 66.5t35 55.5t54.5 38.5t70 14.5h175q19 0 19 -19v-25q0 -5 -3 -10.5t-8 -6.5l-55 -15q11 -10 21 -25q8 -13 15 -33.5t7 -48.5q0 -32 -12 -61.5t-34 -52t-53.5 -36 t-70.5 -13.5q-38 0 -59.5 8t-27.5 8q-3 0 -9.5 -3t-13.5 -9.5t-12.5 -15.5t-5.5 -21q0 -17 12.5 -29t35.5 -12h136q33 0 61.5 -8.5t49.5 -25.5t33.5 -42t12.5 -58t-14.5 -63t-42 -53t-67 -36.5t-89.5 -13.5q-53 0 -90.5 12.5t-61.5 32t-35 44t-11 48.5q0 22 8 39t18 28.5 t19.5 18t13.5 8.5v3q-8 2 -20.5 8.5t-24.5 18.5t-20.5 30t-8.5 43zM239 141q38 0 61 25.5t23 66.5t-23 66.5t-61 25.5t-63 -25.5t-25 -66.5t25 -66.5t63 -25.5zM133 -157q0 -31 29 -51t75 -20q23 0 43.5 5.5t36.5 16t25 25t9 32.5q0 6 -2.5 15.5t-10.5 19t-23 16t-39 6.5 h-44t-44 -2q-2 -1 -11 -4.5t-19 -11t-17.5 -19t-7.5 -28.5z" />
<glyph unicode="h" horiz-adv-x="508" d="M65 681q0 8 5.5 13.5t13.5 5.5h58q8 0 13.5 -5.5t5.5 -13.5v-314q4 3 14 10t25.5 14.5t36 13t44.5 5.5q42 0 73.5 -14.5t52.5 -40t31 -60t10 -75.5v-201q0 -8 -5.5 -13.5t-13.5 -5.5h-56q-8 0 -13.5 5.5t-5.5 13.5v203q0 49 -23 75t-62 26q-23 0 -42 -7.5t-33 -17.5 t-22.5 -21t-10.5 -17v-241q0 -19 -20 -19h-57q-8 0 -13.5 5.5t-5.5 13.5v662z" />
<glyph unicode="i" horiz-adv-x="225" d="M111 563q-24 0 -40.5 17t-16.5 41q0 25 16.5 42t40.5 17q25 0 42 -17t17 -42q0 -24 -17 -41t-42 -17zM65 381q0 8 5.5 13.5t13.5 5.5h57q8 0 13.5 -5.5t5.5 -13.5v-362q0 -8 -5.5 -13.5t-13.5 -5.5h-57q-8 0 -13.5 5.5t-5.5 13.5v362z" />
<glyph unicode="j" horiz-adv-x="226" d="M112 563q-24 0 -40.5 17t-16.5 41q0 25 16.5 42t40.5 17q25 0 42 -17t17 -42q0 -24 -17 -41t-42 -17zM65 381q0 8 5.5 13.5t13.5 5.5h58q8 0 13.5 -5.5t5.5 -13.5v-505q0 -47 -13 -81.5t-36 -58t-54 -35t-67 -11.5q-41 0 -70.5 13.5t-43.5 26.5q-5 4 -6 11t2 12l25 45 q4 7 10.5 7.5t14.5 -4.5q10 -7 29 -16t37 -9q34 0 55 24.5t21 75.5v505z" />
<glyph unicode="k" horiz-adv-x="467" d="M65 681q0 8 5.5 13.5t13.5 5.5h58q8 0 13.5 -5.5t5.5 -13.5v-433l156 140q5 5 11 8.5t14 3.5h70q13 0 15.5 -10.5t-4.5 -16.5l-166 -151l196 -196q7 -7 4.5 -16.5t-15.5 -9.5h-82q-12 0 -18 8l-181 186v-175q0 -8 -5.5 -13.5t-13.5 -5.5h-58q-8 0 -13.5 5.5t-5.5 13.5 v662z" />
<glyph unicode="l" horiz-adv-x="225" d="M65 681q0 8 5.5 13.5t13.5 5.5h57q8 0 13.5 -5.5t5.5 -13.5v-662q0 -8 -5.5 -13.5t-13.5 -5.5h-57q-8 0 -13.5 5.5t-5.5 13.5v662z" />
<glyph unicode="m" horiz-adv-x="771" d="M65 381q0 8 5.5 13.5t13.5 5.5h28q12 0 17 -12l11 -34q3 3 13.5 12.5t27 19t39.5 17t52 7.5q44 0 75.5 -16.5t53.5 -47.5q4 4 16.5 14.5t31.5 21.5t43.5 19.5t53.5 8.5q46 0 77.5 -15t51 -41t28 -60.5t8.5 -73.5v-201q0 -8 -5.5 -13.5t-13.5 -5.5h-56q-8 0 -13.5 5.5 t-5.5 13.5v205q0 48 -21 73.5t-62 25.5q-23 0 -41 -7t-31 -15.5t-20.5 -16.5t-10.5 -10q2 -7 2.5 -20t0.5 -28v-207q0 -8 -5.5 -13.5t-13.5 -5.5h-53q-8 0 -13.5 5.5t-5.5 13.5v205q0 48 -21.5 73.5t-63.5 25.5q-23 0 -40.5 -7.5t-30 -17.5t-19.5 -20t-9 -15v-244 q0 -8 -5.5 -13.5t-13.5 -5.5h-56q-8 0 -13.5 5.5t-5.5 13.5v362z" />
<glyph unicode="n" horiz-adv-x="508" d="M65 381q0 8 5.5 13.5t13.5 5.5h29q13 0 16 -12l12 -34q3 3 14 12t29 19t42.5 17.5t54.5 7.5q46 0 77.5 -15t51.5 -41t29 -60.5t9 -73.5v-201q0 -8 -5.5 -13.5t-13.5 -5.5h-57q-8 0 -13.5 5.5t-5.5 13.5v205q0 48 -22 73.5t-61 25.5q-24 0 -43.5 -7.5t-34 -17.5t-23 -20 t-10.5 -15v-244q0 -19 -23 -19h-52q-8 0 -13.5 5.5t-5.5 13.5v362z" />
<glyph unicode="o" horiz-adv-x="474" d="M35 201q0 42 16 80t43 66.5t64 45.5t79 17t79 -17t64 -45.5t43 -66.5t16 -80q0 -43 -16 -81.5t-43 -67t-64 -45.5t-79 -17t-79 17t-64 45.5t-43 67t-16 81.5zM124 201q0 -26 9 -48.5t24 -39.5t35.5 -27t44.5 -10t44.5 10t35.5 27t24 39.5t9 48.5q0 25 -9 47.5t-24 39 t-35.5 26t-44.5 9.5t-44.5 -9.5t-35.5 -26t-24 -39t-9 -47.5z" />
<glyph unicode="p" horiz-adv-x="490" d="M161 -281q0 -19 -21 -19h-56q-8 0 -13.5 5.5t-5.5 13.5v662q0 8 5.5 13.5t13.5 5.5h30q11 0 17 -13l10 -26q3 3 12 11t24 16.5t36.5 15t49.5 6.5q41 0 76 -17t60.5 -45.5t40 -67t14.5 -81.5q0 -44 -15 -82t-41.5 -66.5t-62 -44.5t-76.5 -16q-20 0 -36.5 3.5t-29.5 8.5 t-21 9t-11 6v-298zM159 105q11 -9 24 -15q11 -5 27.5 -9.5t36.5 -4.5q25 0 46 9.5t36 26.5t23.5 39t8.5 48q0 25 -7.5 47.5t-22 39.5t-35 27t-45.5 10q-22 0 -38.5 -7.5t-28 -17t-18 -19.5t-7.5 -14v-160z" />
<glyph unicode="q" horiz-adv-x="490" d="M36 199q0 43 14.5 81.5t40 67t60.5 45.5t76 17q28 0 49.5 -6.5t36.5 -15t24 -16.5t12 -11l10 25q5 14 19 14h28q8 0 13.5 -5.5t5.5 -13.5v-662q0 -8 -5.5 -13.5t-13.5 -5.5h-57q-8 0 -14 5t-6 14v299q-3 -1 -11 -5.5t-21 -9.5t-30 -9t-36 -4q-41 0 -76.5 16t-62 44.5 t-41.5 66.5t-15 82zM128 199q0 -26 8.5 -48t23.5 -39t36 -26.5t46 -9.5q20 0 36.5 4.5t27.5 9.5q13 6 24 14v157q-2 4 -8 14.5t-17.5 21t-28 18.5t-38.5 8q-26 0 -46 -10t-34.5 -27t-22 -39.5t-7.5 -47.5z" />
<glyph unicode="r" horiz-adv-x="336" d="M65 381q0 8 5.5 13.5t13.5 5.5h29q13 0 17 -14l11 -34q3 4 11 13.5t22.5 19.5t35.5 17.5t48 7.5q14 0 29 -2t26 -6.5t16.5 -11.5t1.5 -17l-24 -49q-4 -8 -10.5 -10t-13.5 1q-5 2 -14.5 4.5t-19.5 2.5q-22 0 -38 -6.5t-27 -15t-17.5 -16.5t-7.5 -11v-254q0 -13 -7.5 -16 t-19.5 -3h-48q-8 0 -13.5 5.5t-5.5 13.5v362z" />
<glyph unicode="s" horiz-adv-x="358" d="M47 31q-5 3 -7 9t1 12l21 39q3 6 10 8t15 -3q13 -8 28 -13q13 -5 29.5 -9t35.5 -4q23 0 36 8.5t13 25.5q0 20 -17.5 33t-59.5 32q-23 10 -44 22.5t-36.5 28.5t-24.5 35.5t-9 44.5q0 19 8 38.5t24.5 35.5t42.5 26t62 10q42 0 72.5 -10.5t45.5 -20.5q7 -5 10 -13t-2 -16 l-18 -34q-4 -7 -12 -9t-14 1q-13 6 -27 10q-12 4 -26.5 7.5t-28.5 3.5q-26 0 -35.5 -9.5t-9.5 -20.5q0 -20 17.5 -30.5t46.5 -23.5q27 -12 51.5 -24.5t42.5 -28.5t28.5 -36.5t10.5 -48.5q0 -23 -10.5 -44.5t-30 -37.5t-47 -25.5t-60.5 -9.5q-51 0 -83.5 14t-48.5 27z" />
<glyph unicode="t" horiz-adv-x="346" d="M91 317h-42q-8 0 -13.5 5.5t-5.5 13.5v45q0 19 19 19h42v111q0 8 5.5 13.5t13.5 5.5l57 1q8 0 13 -5.5t5 -13.5v-112h102q19 0 19 -19v-45q0 -8 -5.5 -13.5t-13.5 -5.5h-102v-198q0 -26 9 -33t23 -7q16 0 34 6.5t27 11.5q10 5 15 1.5t8 -10.5l18 -44q7 -16 -9 -24 q-4 -2 -16 -7t-28.5 -10t-35.5 -9t-37 -4q-30 0 -49.5 8.5t-31 24.5t-16.5 37.5t-5 48.5v208z" />
<glyph unicode="u" horiz-adv-x="493" d="M59 381q0 8 5.5 13.5t13.5 5.5h57q8 0 13.5 -5.5t5.5 -13.5v-205q0 -49 22 -74.5t60 -25.5q22 0 40 8t30.5 18.5t20 21.5t8.5 18v239q0 12 5.5 15.5t16.5 3.5h52q8 0 13.5 -5.5t5.5 -13.5v-362q0 -8 -5.5 -13.5t-13.5 -5.5h-28q-13 0 -18 16l-10 29q-3 -3 -13 -12 t-26 -18.5t-39.5 -17t-53.5 -7.5q-45 0 -76 15t-50 40.5t-27.5 60t-8.5 73.5v202z" />
<glyph unicode="v" horiz-adv-x="415" d="M11 377q-5 10 -0.5 16.5t15.5 6.5h59q8 0 12 -3t6 -8l104 -236h1l108 236q4 8 11.5 9.5t15.5 1.5h46q11 0 15.5 -6.5t-0.5 -16.5l-177 -377q-4 -10 -17 -10h-5q-13 0 -17 10z" />
<glyph unicode="w" horiz-adv-x="613" d="M27 377q-5 10 -1 16.5t15 6.5h54q5 0 10.5 -3.5t7.5 -8.5l67 -221h1l107 233q4 10 17 10h6q13 0 17 -10l106 -234h1l66 222q4 9 13.5 10.5t17.5 1.5h39q11 0 15.5 -6.5t-0.5 -16.5l-117 -377q-3 -10 -18 -10h-4q-13 0 -17 9l-123 267h-1l-122 -267q-4 -9 -16 -9h-5 q-14 0 -17 10z" />
<glyph unicode="x" horiz-adv-x="430" d="M159 204l-126 169q-8 10 -3.5 18.5t15.5 8.5h65q16 0 24 -11l80 -115h1l82 115q8 11 23 11h66q13 0 16.5 -8t-4.5 -18l-126 -169l127 -179q7 -10 3.5 -18t-15.5 -8h-63q-12 0 -21 12l-88 124h-1l-90 -128q-6 -8 -16 -8h-67q-13 0 -16 8t4 18z" />
<glyph unicode="y" horiz-adv-x="463" d="M11 374q-5 10 0.5 18t16.5 8h66q11 0 17 -11l124 -266h1l120 266q5 11 21 11h57q12 0 17 -8t0 -18l-306 -662q-2 -5 -6.5 -8.5t-10.5 -3.5h-60q-11 0 -16.5 8t-0.5 19l134 287z" />
<glyph unicode="z" horiz-adv-x="364" d="M32 29l170 285v1h-142q-8 0 -13 5.5t-5 13.5v47q0 8 5 13.5t13 5.5h258q11 0 17 -8.5t0 -18.5l-169 -288v-1h132q19 0 19 -19v-46q0 -8 -5.5 -13.5t-13.5 -5.5h-247q-8 0 -13.5 5.5t-5.5 13.5v10z" />
<glyph unicode="{" horiz-adv-x="394" d="M105 88q0 17 -7.5 30t-18 22t-22.5 14t-21 7q-6 1 -10.5 6.5t-4.5 11.5v40q0 6 4.5 10t9.5 6q6 1 17.5 6t23.5 14.5t20.5 22.5t8.5 30v144q0 75 24 124.5t60.5 78.5t79.5 41t82 13q8 1 14 -3.5t6 -13.5l2 -41q1 -6 -3.5 -11.5t-9.5 -6.5q-33 -6 -61.5 -20t-50.5 -36.5 t-34.5 -54t-12.5 -70.5v-119q0 -35 -10 -59t-23.5 -39.5t-27 -23.5t-20.5 -11v-3q10 -5 24 -13t27 -23t21.5 -38t8.5 -57v-120q0 -39 12.5 -70t34.5 -53.5t50.5 -36.5t61.5 -20q5 -1 9.5 -5.5t3.5 -12.5l-2 -41q0 -8 -6 -13t-14 -4q-39 1 -82 12.5t-79.5 40.5t-60.5 78.5 t-24 124.5v142z" />
<glyph unicode="|" horiz-adv-x="189" d="M71 741q0 8 5.5 13.5t13.5 5.5h10q8 0 13 -5.5t5 -13.5v-1023q0 -8 -5.5 -13t-13.5 -5h-9q-8 0 -13.5 5t-5.5 13v1023z" />
<glyph unicode="}" horiz-adv-x="394" d="M193 66q0 34 8.5 57t21.5 38t26.5 23t24.5 13v3q-7 3 -20.5 11t-27 23.5t-23.5 39.5t-10 59v119q0 39 -12.5 70.5t-34.5 54t-50.5 36.5t-61.5 20q-5 1 -9.5 6.5t-3.5 11.5l2 41q0 9 6 13.5t14 3.5q39 -1 82 -13t79.5 -41t60.5 -78.5t24 -124.5v-144q0 -17 8.5 -30 t20.5 -22.5t23.5 -14.5t17.5 -6q5 -2 9.5 -6t4.5 -10v-40q0 -6 -4.5 -11.5t-10.5 -6.5q-9 -2 -21 -7t-22.5 -14t-18 -22t-7.5 -30v-142q0 -75 -24 -124.5t-60.5 -78.5t-79.5 -40.5t-82 -12.5q-8 -1 -14 4t-6 13l-2 41q-1 8 3.5 12.5t9.5 5.5q33 6 61.5 20t50.5 36.5 t34.5 53.5t12.5 70v120z" />
<glyph unicode="~" horiz-adv-x="544" d="M79 212q-9 8 -17 14.5t-17 14.5q-5 5 -6 12t4 12q18 27 41 48q20 18 45.5 33t55.5 15q33 0 58 -14.5t46 -28.5q13 -9 33 -21t40 -12q15 0 27.5 6t22 15t17 19t12.5 17q13 16 28 3l32 -29q5 -5 6 -12t-4 -12q-19 -27 -41 -48q-19 -18 -45 -32.5t-55 -14.5q-35 0 -60 14.5 t-47 28.5q-14 10 -31.5 21t-38.5 11q-15 0 -27.5 -6t-22 -15t-17 -19t-12.5 -17q-5 -8 -13 -8.5t-14 5.5z" />
<glyph unicode="&#xa1;" horiz-adv-x="229" d="M115 271q-29 0 -49.5 20.5t-20.5 49.5t20.5 49t49.5 20q28 0 48.5 -20t20.5 -49t-20.5 -49.5t-48.5 -20.5zM84 112q1 6 6.5 11t12.5 5h22q7 0 12.5 -5t6.5 -11l29 -279v-114q0 -8 -5.5 -13.5t-13.5 -5.5h-80q-8 0 -13.5 5.5t-5.5 13.5v112z" />
<glyph unicode="&#xa2;" horiz-adv-x="419" d="M152 6q-57 23 -93 74t-36 119q0 44 17 82.5t46 67t67 45t80 16.5q7 0 14 -0.5t14 -1.5l11 41q2 8 8.5 11.5t14.5 1.5l10 -3q8 -2 11.5 -8.5t1.5 -14.5l-11 -41q38 -17 71 -56q5 -7 4 -15t-8 -13l-33 -30q-9 -8 -15 -4.5t-12 8.5q-12 13 -31 23l-62 -231h12q19 0 33 4 t24.5 11t19 14.5t16.5 15.5q13 13 27 2l27 -22q17 -14 7 -28q-24 -38 -63.5 -61t-91.5 -23q-18 0 -34 3l-26 -97q-2 -8 -8.5 -11.5t-14.5 -1.5l-9 3q-8 2 -12 8t-2 14zM237 321h-3q-24 0 -45.5 -9.5t-37 -25.5t-24.5 -38.5t-9 -47.5q0 -35 16 -63.5t42 -44.5z" />
<glyph unicode="&#xa3;" horiz-adv-x="494" d="M74 37q19 35 29 69t14 66t2 62t-7 58h-44q-8 0 -13 5.5t-5 13.5v10q0 8 5 13.5t13 5.5h32q-3 13 -8 30.5t-10.5 38.5t-9 44t-3.5 48q0 49 16.5 87.5t45 65.5t66.5 41.5t82 14.5q32 0 59 -8t48.5 -19.5t37 -23.5t24.5 -20q6 -5 6.5 -12.5t-4.5 -13.5l-35 -43 q-7 -9 -14.5 -8.5t-13.5 6.5q-16 15 -34 26q-15 10 -35 18t-40 8q-47 0 -79.5 -31.5t-32.5 -85.5q0 -24 4.5 -47t10.5 -44t12 -39.5t9 -32.5h140q8 0 13.5 -5.5t5.5 -13.5v-11q0 -8 -5.5 -13t-13.5 -5h-130q3 -19 4 -44t-0.5 -53t-7 -56t-14.5 -52h223q8 0 13 -5.5t5 -13.5 v-49q0 -8 -5 -13.5t-13 -5.5h-324q-8 0 -13.5 5.5t-5.5 13.5v18z" />
<glyph unicode="&#xa4;" horiz-adv-x="464" d="M68 198q-5 5 -5 13.5t5 13.5l45 44q-16 30 -16 63t16 62l-44 45q-5 5 -5 13.5t5 13.5l30 29q5 5 13.5 5t13.5 -5l44 -44q29 16 62.5 16.5t62.5 -16.5l44 45q5 5 13 4.5t14 -5.5l29 -30q5 -5 5.5 -13t-4.5 -13l-44 -44q16 -29 16 -63t-16 -64l44 -44q5 -5 5 -13t-5 -13 l-30 -30q-5 -5 -13 -5.5t-13 4.5l-45 45q-29 -16 -63 -16t-63 17l-44 -45q-5 -5 -13.5 -5t-13.5 5zM233 269q26 0 44.5 18.5t18.5 44.5t-18.5 44.5t-44.5 18.5t-44.5 -18.5t-18.5 -44.5t18.5 -44.5t44.5 -18.5z" />
<glyph unicode="&#xa5;" horiz-adv-x="624" d="M138 121q-8 0 -13 5.5t-5 13.5v10q0 8 5 13.5t13 5.5h121v72h-121q-8 0 -13 5.5t-5 13.5v10q0 8 5 13.5t13 5.5h121v48l-235 334q-6 10 -1 19.5t17 9.5h75q5 0 9.5 -3t6.5 -6l181 -255l181 255q2 3 6 6t10 3h75q12 0 17 -9.5t-1 -19.5l-238 -333v-49h119q8 0 13.5 -5.5 t5.5 -13.5v-11q0 -8 -5.5 -13t-13.5 -5h-119v-72h119q8 0 13.5 -5.5t5.5 -13.5v-11q0 -8 -5.5 -13t-13.5 -5h-119v-102q0 -8 -5.5 -13.5t-13.5 -5.5h-65q-8 0 -13.5 5.5t-5.5 13.5v102h-121v0z" />
<glyph unicode="&#xa6;" horiz-adv-x="333" d="M162 392q-8 0 -13.5 5t-5.5 13v331q0 8 5.5 13.5t13.5 5.5h10q8 0 13 -5.5t5 -13.5v-331q0 -8 -5.5 -13t-13.5 -5h-9zM143 49q0 8 5.5 13.5t13.5 5.5h10q8 0 13 -5.5t5 -13.5v-331q0 -8 -5.5 -13t-13.5 -5h-9q-8 0 -13.5 5t-5.5 13v331z" />
<glyph unicode="&#xa7;" horiz-adv-x="518" d="M68 -99q6 8 14.5 10.5t18.5 -5.5q2 -2 16 -12.5t35.5 -22.5t48.5 -22t56 -10q19 0 38 5t34 14.5t25 24t12 34.5q3 46 -34.5 79t-112.5 65q-37 15 -69.5 34.5t-56.5 43.5t-38 54t-14 67q0 28 10 50.5t22.5 39t25 27t18.5 15.5q-5 4 -17.5 15.5t-25.5 29.5t-23 42.5 t-10 55.5q0 29 12 60t38 56.5t66.5 42t97.5 16.5q37 0 68.5 -8t55.5 -18.5t39 -19.5t18 -12q5 -3 9.5 -12t-2.5 -20l-28 -41q-12 -19 -33 -5q-4 2 -16.5 10t-30.5 16.5t-40 15t-43 6.5q-30 0 -51 -8t-34.5 -20t-20 -26.5t-6.5 -27.5q0 -38 32 -66t92 -52q43 -18 81.5 -37 t67.5 -43t46 -55t17 -71q0 -28 -10.5 -51t-24 -41t-26.5 -30t-18 -17q5 -4 18 -16t26.5 -30.5t24 -44.5t10.5 -58q0 -38 -17 -70.5t-46.5 -56.5t-69 -37.5t-85.5 -13.5q-45 0 -81.5 10t-63 23.5t-43 26.5t-22.5 18q-7 6 -11 13.5t6 20.5zM138 266q0 -27 13 -45.5t37 -34 t57 -30.5t73 -34q15 8 26 21q10 11 18 28t8 40q0 21 -10 37.5t-30 31t-49 28.5t-66 30q-7 3 -14.5 6t-14.5 5q-1 -1 -8.5 -6.5t-16.5 -15.5t-16 -25t-7 -36z" />
<glyph unicode="&#xa8;" horiz-adv-x="414" d="M316 567q-23 0 -39.5 16.5t-16.5 39.5q0 24 16.5 40.5t39.5 16.5q24 0 40.5 -16.5t16.5 -40.5q0 -23 -16.5 -39.5t-40.5 -16.5zM119 567q-23 0 -39.5 16.5t-16.5 39.5q0 24 16.5 40.5t39.5 16.5q24 0 40.5 -16.5t16.5 -40.5q0 -23 -16.5 -39.5t-40.5 -16.5z" />
<glyph unicode="&#xa9;" horiz-adv-x="812" d="M47 350q0 74 28 139.5t77 114.5t114.5 77.5t139.5 28.5t139.5 -28.5t114.5 -77.5t77.5 -114.5t28.5 -139.5t-28.5 -139.5t-77.5 -114.5t-114.5 -77t-139.5 -28t-139.5 28t-114.5 77t-77 114.5t-28 139.5zM116 350q0 -60 23 -113t62 -92t92 -62t113 -23t113 23t92.5 62 t62 92t22.5 113t-22.5 113t-62 92.5t-92.5 62t-113 22.5t-113 -22.5t-92 -62t-62 -92.5t-23 -113zM228 348q0 39 14.5 73.5t40 60t59.5 40t73 14.5q30 0 60 -9t55 -29q7 -6 7.5 -14t-5.5 -15l-26 -28q-5 -8 -12.5 -7t-13.5 5q-29 20 -64 20q-23 0 -42 -8.5t-33 -23.5 t-22 -34.5t-8 -41.5q0 -46 29.5 -77t75.5 -31q34 0 62 19q17 10 27 -2l28 -29q5 -6 5 -14t-6 -14q-26 -23 -55.5 -32.5t-61.5 -9.5q-39 0 -73 14.5t-59.5 40t-40 59.5t-14.5 73z" />
<glyph unicode="&#xaa;" horiz-adv-x="311" d="M122 401q-41 0 -67.5 27t-26.5 72q0 41 30 68t87 27q11 0 21.5 -1.5t18.5 -3.5q9 -2 17 -4q0 35 -7.5 50.5t-36.5 15.5q-26 0 -48 -6t-34 -9q-13 -3 -16 13l-5 25q-3 12 8 17q4 2 32.5 10t69.5 8q34 0 54.5 -10t31 -27.5t13.5 -41.5t3 -52v-156q0 -6 -4.5 -10t-9.5 -4 h-22q-9 0 -13 10q-2 5 -3.5 10.5t-3.5 10.5q-13 -12 -33.5 -25.5t-55.5 -13.5zM135 456q22 0 40 12t25 25v44q-6 5 -21 8.5t-32 3.5q-23 0 -39.5 -13.5t-16.5 -34.5q0 -19 12 -32t32 -13z" />
<glyph unicode="&#xab;" horiz-adv-x="443" d="M216 194q-5 6 -4 12.5t4 11.5l109 148q2 4 7 8t11 4h35q13 0 17 -9.5t-2 -21.5l-71 -139l68 -147q5 -12 1.5 -21t-16.5 -9h-40q-6 0 -9.5 2.5t-5.5 5.5zM35 194q-5 6 -4 12.5t4 11.5l109 148q2 4 7 8t11 4h35q13 0 17 -9.5t-2 -21.5l-71 -139l68 -147q5 -12 1.5 -21 t-16.5 -9h-40q-6 0 -9.5 2.5t-5.5 5.5z" />
<glyph unicode="&#xac;" horiz-adv-x="511" d="M49 307q-8 0 -13.5 5.5t-5.5 13.5v42q0 8 5.5 13.5t13.5 5.5h386q8 0 13.5 -6t5.5 -13v-215q0 -8 -5.5 -13t-13.5 -5h-42q-8 0 -13.5 5t-5.5 13v154h-325v0z" />
<glyph unicode="&#xad;" horiz-adv-x="347" d="M65 206q-8 0 -13.5 5t-5.5 13v43q0 19 19 19h216q19 0 19 -19v-43q0 -8 -5.5 -13t-13.5 -5h-216v0z" />
<glyph unicode="&#xae;" horiz-adv-x="814" d="M47 350q0 74 28 139.5t77 114.5t114.5 77.5t139.5 28.5t139.5 -28.5t114.5 -77.5t77.5 -114.5t28.5 -139.5t-28.5 -139.5t-77.5 -114.5t-114.5 -77t-139.5 -28t-139.5 28t-114.5 77t-77 114.5t-28 139.5zM116 350q0 -60 23 -113t62 -92t92 -62t113 -23t113 23t92.5 62 t62 92t22.5 113t-22.5 113t-62 92.5t-92.5 62t-113 22.5t-113 -22.5t-92 -62t-62 -92.5t-23 -113zM277 515q0 8 5.5 13.5t13.5 5.5h148q23 0 45 -8t39.5 -23t28 -37t10.5 -50q0 -27 -7.5 -46t-19 -31.5t-25 -20.5t-24.5 -12q14 -28 27 -56t26 -55q5 -10 -0.5 -18.5 t-16.5 -8.5h-45q-6 0 -11 4.5t-7 9.5l-50 118h-62v-113q0 -8 -5.5 -13.5t-13.5 -5.5h-37q-8 0 -13.5 5.5t-5.5 13.5v328zM439 366q23 0 36.5 14.5t13.5 34.5q0 22 -13.5 35.5t-36.5 13.5h-89v-98h89z" />
<glyph unicode="&#xaf;" horiz-adv-x="414" d="M79 576q-8 0 -13.5 5t-5.5 13v28q0 19 19 19h256q19 0 19 -19v-28q0 -8 -5.5 -13t-13.5 -5h-256v0z" />
<glyph unicode="&#xb0;" horiz-adv-x="320" d="M160 440q-28 0 -52.5 10.5t-43 29t-29 43t-10.5 52.5t10.5 52.5t29 43t43 29t52.5 10.5t52.5 -10.5t43 -29t29 -43t10.5 -52.5t-10.5 -52.5t-29 -43t-43 -29t-52.5 -10.5zM160 508q12 0 23.5 5.5t20.5 15t14.5 21.5t5.5 25q0 25 -19.5 44.5t-44.5 19.5q-13 0 -25 -5.5 t-21.5 -14.5t-15 -20.5t-5.5 -23.5q0 -26 20.5 -46.5t46.5 -20.5z" />
<glyph unicode="&#xb1;" horiz-adv-x="574" d="M247 373h-153q-8 0 -13.5 5.5t-5.5 13.5v42q0 8 5.5 13.5t13.5 5.5h153v148q0 8 5.5 13t13.5 5h42q8 0 13.5 -5t5.5 -13v-148h154q8 0 13 -5.5t5 -13.5v-42q0 -8 -5 -13.5t-13 -5.5h-154v-110q0 -8 -5.5 -13t-13.5 -5h-42q-8 0 -13.5 5t-5.5 13v110zM75 113q0 8 5.5 13.5 t13.5 5.5h387q8 0 13 -5.5t5 -13.5v-42q0 -8 -5 -13.5t-13 -5.5h-387q-8 0 -13.5 5.5t-5.5 13.5v42z" />
<glyph unicode="&#xb2;" horiz-adv-x="292" d="M46 504q-10 0 -10 9v15l118 130q29 31 29 53q0 15 -12 28t-37 13q-15 0 -29.5 -8t-23.5 -17q-7 -7 -14 1l-21 26q-3 5 -3.5 8.5t5.5 7.5q1 1 8.5 7.5t19.5 13.5t29 13t38 6q51 0 79 -26t28 -65q0 -23 -11.5 -44.5t-31.5 -43.5l-67 -73h100q9 0 9 -10v-35q0 -9 -9 -9h-194 v0z" />
<glyph unicode="&#xb3;" horiz-adv-x="279" d="M132 494q-23 0 -39.5 4.5t-28.5 10.5t-19.5 12t-11.5 10q-8 6 0 14l21 25q7 7 15 0q2 -1 18 -11t39 -10q21 0 36 10.5t15 27.5t-14.5 29t-45.5 12h-30q-13 0 -13 11v28q0 12 13 12h30q26 0 39.5 10.5t13.5 26.5q0 17 -13.5 27.5t-32.5 10.5q-17 0 -28.5 -6.5t-19.5 -13.5 q-7 -6 -14 1l-22 24q-3 3 -3.5 7.5t4.5 7.5q10 10 24 18q12 7 29 12.5t38 5.5q46 0 76 -22.5t30 -60.5q0 -26 -17 -44.5t-34 -25.5v-2q9 -3 19.5 -9.5t19.5 -16t15 -22t6 -27.5q0 -39 -32.5 -62.5t-82.5 -23.5z" />
<glyph unicode="&#xb4;" horiz-adv-x="302" d="M97 543q-11 -5 -16 -3.5t-8 7.5l-14 29q-3 6 -1 11.5t7 7.5l157 91q5 3 13.5 3.5t12.5 -6.5l23 -44q8 -17 -6 -24l-168 -72v0z" />
<glyph unicode="&#xb5;" horiz-adv-x="513" d="M161 -281q0 -8 -5.5 -13.5t-13.5 -5.5h-56q-8 0 -13.5 5.5t-5.5 13.5v662q0 8 5.5 13.5t13.5 5.5h57q8 0 13.5 -5.5t5.5 -13.5v-201q0 -49 22 -74.5t60 -25.5q22 0 40 8t30.5 18.5t20 21.5t8.5 18v235q0 12 5.5 15.5t16.5 3.5h52q8 0 13.5 -5.5t5.5 -13.5v-362 q0 -8 -5.5 -13.5t-13.5 -5.5h-28q-13 0 -18 16l-10 29q-3 -3 -13 -12t-26 -18.5t-39.5 -17t-53.5 -7.5q-38 0 -68 11v-282z" />
<glyph unicode="&#xb6;" horiz-adv-x="699" d="M229 281q-42 0 -80 16t-66.5 44.5t-45 67t-16.5 82.5q0 43 15 81t41 66.5t61.5 45t76.5 16.5l449 -1q8 0 13.5 -5.5t5.5 -13.5v-33q0 -8 -5.5 -13.5t-13.5 -5.5h-94v-909q0 -8 -5.5 -13.5t-13.5 -5.5h-38q-8 0 -13.5 5.5t-5.5 13.5v909h-146v-909q0 -8 -5.5 -13.5 t-13.5 -5.5h-37q-8 0 -13.5 5.5t-5.5 13.5v562h-44v0z" />
<glyph unicode="&#xb7;" horiz-adv-x="237" d="M118 245q-30 0 -51.5 22t-21.5 51q0 32 21.5 53.5t51.5 21.5q31 0 52.5 -21.5t21.5 -53.5q0 -29 -21.5 -51t-52.5 -22z" />
<glyph unicode="&#xb8;" horiz-adv-x="247" d="M114 0v-53q46 -6 73.5 -33t27.5 -70q0 -44 -30 -74t-75 -30q-23 0 -43 10t-33 25t1 27l17 14q5 4 11.5 4t10.5 -5q8 -8 18 -11.5t18 -3.5q17 0 28 12.5t11 29.5q0 26 -23 39t-55 17q-11 2 -14 8.5t-3 10.5v83h60z" />
<glyph unicode="&#xb9;" horiz-adv-x="193" d="M86 504q-10 0 -10 9v201l-45 -7q-9 -2 -9 6l-4 24q0 6 5 11l72 52h40q9 0 9 -9v-278q0 -9 -9 -9h-49v0z" />
<glyph unicode="&#xba;" horiz-adv-x="314" d="M157 395q-61 0 -93.5 41.5t-32.5 115.5q0 75 32.5 116.5t93.5 41.5t93.5 -41.5t32.5 -116.5q0 -74 -32.5 -115.5t-93.5 -41.5zM157 456q26 0 41 24.5t15 71.5t-15 72t-41 25t-40.5 -25t-14.5 -72t14.5 -71.5t40.5 -24.5z" />
<glyph unicode="&#xbb;" horiz-adv-x="443" d="M301 208l-71 139q-6 12 -2 21.5t17 9.5h35q6 0 11 -4t7 -8l109 -148q3 -5 4 -11.5t-4 -12.5l-104 -155q-2 -3 -5.5 -5.5t-9.5 -2.5h-40q-13 0 -16.5 9t1.5 21zM67 31q-13 0 -16.5 9t1.5 21l68 147l-71 139q-6 12 -2 21.5t17 9.5h35q6 0 11 -4t7 -8l109 -148q3 -5 4 -11.5 t-4 -12.5l-104 -155q-2 -3 -5.5 -5.5t-9.5 -2.5h-40z" />
<glyph unicode="&#xbc;" horiz-adv-x="648" d="M431 690q7 10 17 10h33q11 0 16.5 -8.5t0.5 -18.5l-345 -663q-2 -3 -7.5 -6.5t-9.5 -3.5h-31q-11 0 -16.5 8.5t-0.5 18.5zM96 404q-10 0 -10 9v201l-45 -7q-9 -2 -9 6l-4 24q0 6 5 11l72 52h40q9 0 9 -9v-278q0 -9 -9 -9h-49zM333 106l167 187q3 3 8 3h31q10 0 10 -9 v-178h40q9 0 9 -8v-34q0 -9 -9 -9h-40v-49q0 -9 -10 -9h-44q-10 0 -10 9v49h-143q-9 0 -9 8v40zM487 109v101l-90 -101h90z" />
<glyph unicode="&#xbd;" horiz-adv-x="643" d="M431 690q7 10 17 10h33q11 0 16.5 -8.5t0.5 -18.5l-345 -663q-2 -3 -7.5 -6.5t-9.5 -3.5h-31q-11 0 -16.5 8.5t-0.5 18.5zM96 404q-10 0 -10 9v201l-45 -7q-9 -2 -9 6l-4 24q0 6 5 11l72 52h40q9 0 9 -9v-278q0 -9 -9 -9h-49zM368 24l118 130q29 31 29 53q0 15 -12 28 t-37 13q-15 0 -29.5 -8t-23.5 -17q-7 -7 -14 1l-21 26q-3 5 -3.5 8.5t5.5 7.5q1 1 8.5 7.5t19.5 13.5t29 13t38 6q51 0 79 -26t28 -65q0 -23 -11.5 -44.5t-31.5 -43.5l-67 -73h100q9 0 9 -10v-35q0 -9 -9 -9h-194q-10 0 -10 9v15z" />
<glyph unicode="&#xbe;" horiz-adv-x="689" d="M137 394q-23 0 -39.5 4.5t-28.5 10.5t-19.5 12t-11.5 10q-8 6 0 14l21 25q7 7 15 0q2 -1 18 -11t39 -10q21 0 36 10.5t15 27.5t-14.5 29t-45.5 12h-30q-13 0 -13 11v28q0 12 13 12h30q26 0 39.5 10.5t13.5 26.5q0 17 -13.5 27.5t-32.5 10.5q-17 0 -28.5 -6.5t-19.5 -13.5 q-7 -6 -14 1l-22 24q-3 3 -3.5 7.5t4.5 7.5q10 10 24 18q12 7 29 12.5t38 5.5q46 0 76 -22.5t30 -60.5q0 -26 -17 -44.5t-34 -25.5v-2q9 -3 19.5 -9.5t19.5 -16t15 -22t6 -27.5q0 -39 -32.5 -62.5t-82.5 -23.5zM472 690q7 10 17 10h33q11 0 16.5 -8.5t0.5 -18.5l-345 -663 q-2 -3 -7.5 -6.5t-9.5 -3.5h-31q-11 0 -16.5 8.5t-0.5 18.5zM374 106l167 187q3 3 8 3h31q10 0 10 -9v-178h40q9 0 9 -8v-34q0 -9 -9 -9h-40v-49q0 -9 -10 -9h-44q-10 0 -10 9v49h-143q-9 0 -9 8v40zM528 109v101l-90 -101h90z" />
<glyph unicode="&#xbf;" horiz-adv-x="251" d="M134 271q-29 0 -49.5 20.5t-20.5 49.5t20.5 49t49.5 20t49 -20t20 -49t-20 -49.5t-49 -20.5zM85 108q0 10 6 15t15 5h54q8 0 13.5 -5.5t5.5 -13.5v-42q0 -27 -10.5 -47t-27 -36.5t-35 -30t-35 -28.5t-27 -32t-10.5 -40q0 -31 23 -54t67 -23q27 0 46.5 7t34 16.5t24.5 20 t18 16.5q12 10 24 0l33 -32q6 -5 5.5 -12.5t-5.5 -13.5q-19 -25 -47 -44q-24 -17 -59.5 -30.5t-83.5 -13.5q-39 0 -72.5 12t-58.5 33t-39 50.5t-14 65.5q0 31 11.5 55t28.5 42.5t37.5 33t37.5 28.5t28.5 28.5t11.5 32.5v37z" />
<glyph unicode="&#xc0;" d="M20 0q-11 0 -16.5 8t-0.5 18l307 673q2 5 7.5 8t9.5 3h10q4 0 9.5 -3t7.5 -8l305 -673q5 -10 -0.5 -18t-16.5 -8h-63q-16 0 -23 15l-62 137h-327q-15 -35 -30.5 -68.5t-30.5 -68.5q-2 -5 -8 -10t-15 -5h-63zM456 238l-123 274h-5l-122 -274h250zM232 846q-14 7 -6 24 l23 44q4 7 12.5 6.5t13.5 -3.5l157 -91q5 -2 7 -7.5t-1 -11.5l-14 -28q-3 -7 -8 -8.5t-16 3.5z" />
<glyph unicode="&#xc1;" d="M20 0q-11 0 -16.5 8t-0.5 18l307 673q2 5 7.5 8t9.5 3h10q4 0 9.5 -3t7.5 -8l305 -673q5 -10 -0.5 -18t-16.5 -8h-63q-16 0 -23 15l-62 137h-327q-15 -35 -30.5 -68.5t-30.5 -68.5q-2 -5 -8 -10t-15 -5h-63zM456 238l-123 274h-5l-122 -274h250zM262 774q-18 -8 -24 5 l-14 28q-3 6 -0.5 11.5t6.5 7.5l157 91q5 3 13.5 3.5t12.5 -6.5l23 -44q5 -8 2.5 -14.5t-8.5 -9.5l-168 -72v0z" />
<glyph unicode="&#xc2;" d="M20 0q-11 0 -16.5 8t-0.5 18l307 673q2 5 7.5 8t9.5 3h10q4 0 9.5 -3t7.5 -8l305 -673q5 -10 -0.5 -18t-16.5 -8h-63q-16 0 -23 15l-62 137h-327q-15 -35 -30.5 -68.5t-30.5 -68.5q-2 -5 -8 -10t-15 -5h-63zM456 238l-123 274h-5l-122 -274h250zM235 769q-9 -5 -13.5 -4 t-9.5 7l-20 27q-4 5 -1.5 10.5t7.5 8.5l125 98q5 4 12 4t12 -4l125 -98q5 -3 7.5 -8.5t-1.5 -10.5l-20 -27q-5 -6 -9.5 -7.5t-13.5 4.5l-100 65l-100 -65v0z" />
<glyph unicode="&#xc3;" d="M20 0q-11 0 -16.5 8t-0.5 18l307 673q2 5 7.5 8t9.5 3h10q4 0 9.5 -3t7.5 -8l305 -673q5 -10 -0.5 -18t-16.5 -8h-63q-16 0 -23 15l-62 137h-327q-15 -35 -30.5 -68.5t-30.5 -68.5q-2 -5 -8 -10t-15 -5h-63zM456 238l-123 274h-5l-122 -274h250zM188 807q-8 5 -8 11.5 t2 11.5q3 7 10.5 21t19.5 28t29 24.5t39 10.5t37 -10t27 -22t22.5 -22t22.5 -10q9 0 15 4t10.5 10t8 13t7.5 13q5 8 10.5 11t14.5 -2q6 -5 13.5 -9t12.5 -10q4 -6 2.5 -12.5t-5.5 -14.5t-11.5 -21t-19 -25t-27 -20.5t-36.5 -8.5q-19 0 -34 10t-27.5 22.5t-23.5 22.5t-22 10 q-18 0 -28 -15.5t-15 -25.5q-4 -8 -8.5 -11.5t-14.5 1.5z" />
<glyph unicode="&#xc4;" d="M20 0q-11 0 -16.5 8t-0.5 18l307 673q2 5 7.5 8t9.5 3h10q4 0 9.5 -3t7.5 -8l305 -673q5 -10 -0.5 -18t-16.5 -8h-63q-16 0 -23 15l-62 137h-327q-15 -35 -30.5 -68.5t-30.5 -68.5q-2 -5 -8 -10t-15 -5h-63zM456 238l-123 274h-5l-122 -274h250zM444 782q-23 0 -39.5 17 t-16.5 40t16.5 39.5t39.5 16.5t40 -16.5t17 -39.5t-17 -40t-40 -17zM215 782q-23 0 -39.5 17t-16.5 40t16.5 39.5t39.5 16.5t40 -16.5t17 -39.5t-17 -40t-40 -17z" />
<glyph unicode="&#xc5;" d="M20 0q-11 0 -16.5 8t-0.5 18l307 673q2 5 7.5 8t9.5 3h10q4 0 9.5 -3t7.5 -8l305 -673q5 -10 -0.5 -18t-16.5 -8h-63q-16 0 -23 15l-62 137h-327q-15 -35 -30.5 -68.5t-30.5 -68.5q-2 -5 -8 -10t-15 -5h-63zM456 238l-123 274h-5l-122 -274h250zM330 756q-23 0 -43.5 8.5 t-35.5 23.5t-23.5 35.5t-8.5 43.5t8.5 43.5t23.5 35.5t35.5 23.5t43.5 8.5t43 -8.5t35 -23.5t24 -35.5t9 -43.5t-9 -43.5t-24 -35.5t-35 -23.5t-43 -8.5zM330 811q22 0 37.5 17t15.5 39t-15.5 37.5t-37.5 15.5q-23 0 -39.5 -15.5t-16.5 -37.5t16 -39t40 -17z" />
<glyph unicode="&#xc6;" horiz-adv-x="897" d="M3 0q-11 0 -14.5 8t2.5 18l401 643q10 15 17 23t27 8h388q8 0 13.5 -5.5t5.5 -13.5v-56q0 -8 -5.5 -13.5t-13.5 -5.5h-320v-204h271q8 0 13.5 -5.5t5.5 -13.5v-56q0 -8 -5.5 -13.5t-13.5 -5.5h-271v-215h320q8 0 13.5 -5.5t5.5 -13.5v-55q0 -8 -5.5 -13.5t-13.5 -5.5 h-401q-8 0 -13.5 5.5t-5.5 13.5v133h-222l-87 -139q-4 -5 -9 -9t-13 -4h-70zM404 238v274l-170 -274h170z" />
<glyph unicode="&#xc7;" horiz-adv-x="698" d="M349 -5q-65 10 -120 41.5t-95.5 78.5t-63.5 106.5t-23 127.5q0 75 28.5 141t77 114.5t114.5 77t141 28.5q76 0 133.5 -24t108.5 -69q15 -14 1 -28l-44 -45q-11 -14 -25 0q-35 31 -80.5 49t-92.5 18q-54 0 -99.5 -21t-79.5 -56.5t-53 -83t-19 -99.5q0 -53 19.5 -100 t53 -82t79.5 -56t100 -21q55 0 95.5 19t76.5 47q13 10 24 1l46 -45q6 -5 5 -13.5t-6 -13.5q-51 -50 -113.5 -73.5t-128.5 -23.5v-43q46 -6 73.5 -33t27.5 -70q0 -44 -30 -74t-75 -30q-23 0 -43 10t-33 25t1 27l17 14q5 4 11.5 4t10.5 -5q8 -8 18 -11.5t18 -3.5q17 0 28 12.5 t11 29.5q0 26 -23 39t-55 17q-11 2 -14 8.5t-3 10.5v78v0z" />
<glyph unicode="&#xc8;" horiz-adv-x="589" d="M97 681q0 8 5.5 13.5t13.5 5.5h400q8 0 13.5 -5.5t5.5 -13.5v-56q0 -8 -5.5 -13.5t-13.5 -5.5h-316v-204h267q8 0 13.5 -5.5t5.5 -13.5v-56q0 -8 -5.5 -13.5t-13.5 -5.5h-267v-215h316q8 0 13.5 -5.5t5.5 -13.5v-55q0 -8 -5.5 -13.5t-13.5 -5.5h-400q-8 0 -13.5 5.5 t-5.5 13.5v662zM214 846q-14 7 -6 24l23 44q4 7 12.5 6.5t13.5 -3.5l157 -91q5 -2 7 -7.5t-1 -11.5l-14 -28q-3 -7 -8 -8.5t-16 3.5z" />
<glyph unicode="&#xc9;" horiz-adv-x="589" d="M97 681q0 8 5.5 13.5t13.5 5.5h400q8 0 13.5 -5.5t5.5 -13.5v-56q0 -8 -5.5 -13.5t-13.5 -5.5h-316v-204h267q8 0 13.5 -5.5t5.5 -13.5v-56q0 -8 -5.5 -13.5t-13.5 -5.5h-267v-215h316q8 0 13.5 -5.5t5.5 -13.5v-55q0 -8 -5.5 -13.5t-13.5 -5.5h-400q-8 0 -13.5 5.5 t-5.5 13.5v662zM245 774q-18 -8 -24 5l-14 28q-3 6 -0.5 11.5t6.5 7.5l157 91q5 3 13.5 3.5t12.5 -6.5l23 -44q5 -8 2.5 -14.5t-8.5 -9.5l-168 -72v0z" />
<glyph unicode="&#xca;" horiz-adv-x="589" d="M97 681q0 8 5.5 13.5t13.5 5.5h400q8 0 13.5 -5.5t5.5 -13.5v-56q0 -8 -5.5 -13.5t-13.5 -5.5h-316v-204h267q8 0 13.5 -5.5t5.5 -13.5v-56q0 -8 -5.5 -13.5t-13.5 -5.5h-267v-215h316q8 0 13.5 -5.5t5.5 -13.5v-55q0 -8 -5.5 -13.5t-13.5 -5.5h-400q-8 0 -13.5 5.5 t-5.5 13.5v662zM211 769q-9 -5 -13.5 -4t-9.5 7l-20 27q-4 5 -1.5 10.5t7.5 8.5l125 98q5 4 12 4t12 -4l125 -98q5 -3 7.5 -8.5t-1.5 -10.5l-20 -27q-5 -6 -9.5 -7.5t-13.5 4.5l-100 65l-100 -65v0z" />
<glyph unicode="&#xcb;" horiz-adv-x="589" d="M97 681q0 8 5.5 13.5t13.5 5.5h400q8 0 13.5 -5.5t5.5 -13.5v-56q0 -8 -5.5 -13.5t-13.5 -5.5h-316v-204h267q8 0 13.5 -5.5t5.5 -13.5v-56q0 -8 -5.5 -13.5t-13.5 -5.5h-267v-215h316q8 0 13.5 -5.5t5.5 -13.5v-55q0 -8 -5.5 -13.5t-13.5 -5.5h-400q-8 0 -13.5 5.5 t-5.5 13.5v662zM429 782q-23 0 -39.5 17t-16.5 40t16.5 39.5t39.5 16.5t40 -16.5t17 -39.5t-17 -40t-40 -17zM200 782q-23 0 -39.5 17t-16.5 40t16.5 39.5t39.5 16.5t40 -16.5t17 -39.5t-17 -40t-40 -17z" />
<glyph unicode="&#xcc;" horiz-adv-x="298" d="M97 681q0 8 5.5 13.5t13.5 5.5h66q8 0 13.5 -5.5t5.5 -13.5v-662q0 -8 -5.5 -13.5t-13.5 -5.5h-66q-8 0 -13.5 5.5t-5.5 13.5v662zM50 846q-14 7 -6 24l23 44q4 7 12.5 6.5t13.5 -3.5l157 -91q5 -2 7 -7.5t-1 -11.5l-14 -28q-3 -7 -8 -8.5t-16 3.5z" />
<glyph unicode="&#xcd;" horiz-adv-x="298" d="M97 681q0 8 5.5 13.5t13.5 5.5h66q8 0 13.5 -5.5t5.5 -13.5v-662q0 -8 -5.5 -13.5t-13.5 -5.5h-66q-8 0 -13.5 5.5t-5.5 13.5v662zM81 774q-18 -8 -24 5l-14 28q-3 6 -0.5 11.5t6.5 7.5l157 91q5 3 13.5 3.5t12.5 -6.5l23 -44q5 -8 2.5 -14.5t-8.5 -9.5l-168 -72v0z" />
<glyph unicode="&#xce;" horiz-adv-x="298" d="M97 681q0 8 5.5 13.5t13.5 5.5h66q8 0 13.5 -5.5t5.5 -13.5v-662q0 -8 -5.5 -13.5t-13.5 -5.5h-66q-8 0 -13.5 5.5t-5.5 13.5v662zM49 769q-9 -5 -13.5 -4t-9.5 7l-20 27q-4 5 -1.5 10.5t7.5 8.5l125 98q5 4 12 4t12 -4l125 -98q5 -3 7.5 -8.5t-1.5 -10.5l-20 -27 q-5 -6 -9.5 -7.5t-13.5 4.5l-100 65l-100 -65v0z" />
<glyph unicode="&#xcf;" horiz-adv-x="298" d="M97 681q0 8 5.5 13.5t13.5 5.5h66q8 0 13.5 -5.5t5.5 -13.5v-662q0 -8 -5.5 -13.5t-13.5 -5.5h-66q-8 0 -13.5 5.5t-5.5 13.5v662zM265 782q-23 0 -39.5 17t-16.5 40t16.5 39.5t39.5 16.5t40 -16.5t17 -39.5t-17 -40t-40 -17zM36 782q-23 0 -39.5 17t-16.5 40t16.5 39.5 t39.5 16.5t40 -16.5t17 -39.5t-17 -40t-40 -17z" />
<glyph unicode="&#xd0;" horiz-adv-x="747" d="M101 322h-29q-8 0 -13 5.5t-5 13.5v10q0 8 5 13.5t13 5.5h29v311q0 8 5 13.5t13 5.5h230q72 0 136 -27.5t112 -75t75.5 -111t27.5 -135.5q0 -73 -27.5 -137t-75.5 -111.5t-112 -75t-136 -27.5h-230q-8 0 -13 5.5t-5 13.5v303zM335 95q55 0 101.5 19t80.5 53.5t53 81 t19 102.5q0 55 -19 101.5t-53 80.5t-80.5 53t-101.5 19h-132v-235h188q8 0 13.5 -5.5t5.5 -13.5v-11q0 -8 -5.5 -13t-13.5 -5h-188v-227h132z" />
<glyph unicode="&#xd1;" horiz-adv-x="775" d="M97 692q0 8 5.5 13t13.5 5h25l434 -502h1v473q0 8 5.5 13.5t13.5 5.5h64q8 0 13.5 -5.5t5.5 -13.5v-673q0 -8 -5.5 -13t-13.5 -5h-26l-434 516h-1v-487q0 -8 -5.5 -13.5t-13.5 -5.5h-63q-8 0 -13.5 5.5t-5.5 13.5v673zM247 807q-8 5 -8 11.5t2 11.5q3 7 10.5 21t19.5 28 t29 24.5t39 10.5t37 -10t27 -22t22.5 -22t22.5 -10q9 0 15 4t10.5 10t8 13t7.5 13q5 8 10.5 11t14.5 -2q6 -5 13.5 -9t12.5 -10q4 -6 2.5 -12.5t-5.5 -14.5t-11.5 -21t-19 -25t-27 -20.5t-36.5 -8.5q-19 0 -34 10t-27.5 22.5t-23.5 22.5t-22 10q-18 0 -28 -15.5t-15 -25.5 q-4 -8 -8.5 -11.5t-14.5 1.5z" />
<glyph unicode="&#xd2;" horiz-adv-x="811" d="M46 349q0 75 28 141t76.5 114.5t114 77t140.5 28.5t140.5 -28.5t114.5 -77t77 -114.5t28 -141t-28 -140.5t-77 -114t-114.5 -76.5t-140.5 -28t-140.5 28t-114 76.5t-76.5 114t-28 140.5zM146 349q0 -54 20.5 -101t55.5 -82t82.5 -55.5t100.5 -20.5q54 0 101 20.5 t82.5 55.5t56 82t20.5 101q0 53 -20.5 100.5t-56 83t-82.5 56.5t-101 21q-53 0 -100.5 -21t-82.5 -56.5t-55.5 -83t-20.5 -100.5zM306 846q-14 7 -6 24l23 44q4 7 12.5 6.5t13.5 -3.5l157 -91q5 -2 7 -7.5t-1 -11.5l-14 -28q-3 -7 -8 -8.5t-16 3.5z" />
<glyph unicode="&#xd3;" horiz-adv-x="811" d="M46 349q0 75 28 141t76.5 114.5t114 77t140.5 28.5t140.5 -28.5t114.5 -77t77 -114.5t28 -141t-28 -140.5t-77 -114t-114.5 -76.5t-140.5 -28t-140.5 28t-114 76.5t-76.5 114t-28 140.5zM146 349q0 -54 20.5 -101t55.5 -82t82.5 -55.5t100.5 -20.5q54 0 101 20.5 t82.5 55.5t56 82t20.5 101q0 53 -20.5 100.5t-56 83t-82.5 56.5t-101 21q-53 0 -100.5 -21t-82.5 -56.5t-55.5 -83t-20.5 -100.5zM338 774q-18 -8 -24 5l-14 28q-3 6 -0.5 11.5t6.5 7.5l157 91q5 3 13.5 3.5t12.5 -6.5l23 -44q5 -8 2.5 -14.5t-8.5 -9.5l-168 -72v0z" />
<glyph unicode="&#xd4;" horiz-adv-x="811" d="M46 349q0 75 28 141t76.5 114.5t114 77t140.5 28.5t140.5 -28.5t114.5 -77t77 -114.5t28 -141t-28 -140.5t-77 -114t-114.5 -76.5t-140.5 -28t-140.5 28t-114 76.5t-76.5 114t-28 140.5zM146 349q0 -54 20.5 -101t55.5 -82t82.5 -55.5t100.5 -20.5q54 0 101 20.5 t82.5 55.5t56 82t20.5 101q0 53 -20.5 100.5t-56 83t-82.5 56.5t-101 21q-53 0 -100.5 -21t-82.5 -56.5t-55.5 -83t-20.5 -100.5zM304 769q-9 -5 -13.5 -4t-9.5 7l-20 27q-4 5 -1.5 10.5t7.5 8.5l125 98q5 4 12 4t12 -4l125 -98q5 -3 7.5 -8.5t-1.5 -10.5l-20 -27 q-5 -6 -9.5 -7.5t-13.5 4.5l-100 65l-100 -65v0z" />
<glyph unicode="&#xd5;" horiz-adv-x="811" d="M46 349q0 75 28 141t76.5 114.5t114 77t140.5 28.5t140.5 -28.5t114.5 -77t77 -114.5t28 -141t-28 -140.5t-77 -114t-114.5 -76.5t-140.5 -28t-140.5 28t-114 76.5t-76.5 114t-28 140.5zM146 349q0 -54 20.5 -101t55.5 -82t82.5 -55.5t100.5 -20.5q54 0 101 20.5 t82.5 55.5t56 82t20.5 101q0 53 -20.5 100.5t-56 83t-82.5 56.5t-101 21q-53 0 -100.5 -21t-82.5 -56.5t-55.5 -83t-20.5 -100.5zM260 807q-8 5 -8 11.5t2 11.5q3 7 10.5 21t19.5 28t29 24.5t39 10.5t37 -10t27 -22t22.5 -22t22.5 -10q9 0 15 4t10.5 10t8 13t7.5 13 q5 8 10.5 11t14.5 -2q6 -5 13.5 -9t12.5 -10q4 -6 2.5 -12.5t-5.5 -14.5t-11.5 -21t-19 -25t-27 -20.5t-36.5 -8.5q-19 0 -34 10t-27.5 22.5t-23.5 22.5t-22 10q-18 0 -28 -15.5t-15 -25.5q-4 -8 -8.5 -11.5t-14.5 1.5z" />
<glyph unicode="&#xd6;" horiz-adv-x="811" d="M46 349q0 75 28 141t76.5 114.5t114 77t140.5 28.5t140.5 -28.5t114.5 -77t77 -114.5t28 -141t-28 -140.5t-77 -114t-114.5 -76.5t-140.5 -28t-140.5 28t-114 76.5t-76.5 114t-28 140.5zM146 349q0 -54 20.5 -101t55.5 -82t82.5 -55.5t100.5 -20.5q54 0 101 20.5 t82.5 55.5t56 82t20.5 101q0 53 -20.5 100.5t-56 83t-82.5 56.5t-101 21q-53 0 -100.5 -21t-82.5 -56.5t-55.5 -83t-20.5 -100.5zM520 782q-23 0 -39.5 17t-16.5 40t16.5 39.5t39.5 16.5t40 -16.5t17 -39.5t-17 -40t-40 -17zM291 782q-23 0 -39.5 17t-16.5 40t16.5 39.5 t39.5 16.5t40 -16.5t17 -39.5t-17 -40t-40 -17z" />
<glyph unicode="&#xd7;" horiz-adv-x="471" d="M71 212q-5 5 -5 13t5 13l108 109l-108 108q-5 5 -5 13.5t5 13.5l29 30q5 5 13.5 5t13.5 -5l108 -108l109 109q5 5 13 4.5t13 -5.5l30 -30q5 -5 5.5 -13t-4.5 -13l-109 -109l109 -109q5 -6 4.5 -14t-5.5 -13l-30 -29q-5 -5 -13 -5.5t-13 4.5l-109 110l-108 -109 q-5 -5 -13 -5t-13 5z" />
<glyph unicode="&#xd8;" horiz-adv-x="811" d="M72 22q-5 5 -5.5 13t4.5 13l63 63q-42 48 -65 108.5t-23 129.5q0 75 28 141t76.5 114.5t114 77t140.5 28.5q69 0 129.5 -24t108.5 -66l66 65q5 5 13 5t13 -5l7 -7q5 -5 5 -13t-5 -13l-65 -66q41 -48 64.5 -108t23.5 -129q0 -75 -28 -140.5t-77 -114t-114.5 -76.5 t-140.5 -28q-69 0 -129 22.5t-108 64.5l-63 -63q-5 -5 -13 -4.5t-13 5.5zM572 549q-34 28 -76.5 44.5t-90.5 16.5q-53 0 -100.5 -21t-82.5 -56.5t-55.5 -83t-20.5 -100.5q0 -48 16 -90t45 -76zM240 149q34 -28 76 -43.5t89 -15.5q54 0 101 20.5t82.5 55.5t56 82.5 t20.5 100.5q0 48 -15.5 90t-44.5 75z" />
<glyph unicode="&#xd9;" horiz-adv-x="721" d="M88 681q0 8 5.5 13.5t13.5 5.5h67q8 0 13.5 -5.5t5.5 -13.5v-413q0 -38 11.5 -70.5t33 -56.5t52.5 -37.5t69 -13.5q39 0 70 13.5t52.5 37.5t33.5 56t12 69v415q0 8 5.5 13.5t13.5 5.5h67q8 0 13.5 -5.5t5.5 -13.5v-420q0 -57 -20.5 -106.5t-57 -86t-86.5 -57.5t-109 -21 t-108.5 21t-85.5 57.5t-56.5 86t-20.5 106.5v420zM259 846q-14 7 -6 24l23 44q4 7 12.5 6.5t13.5 -3.5l157 -91q5 -2 7 -7.5t-1 -11.5l-14 -28q-3 -7 -8 -8.5t-16 3.5z" />
<glyph unicode="&#xda;" horiz-adv-x="721" d="M88 681q0 8 5.5 13.5t13.5 5.5h67q8 0 13.5 -5.5t5.5 -13.5v-413q0 -38 11.5 -70.5t33 -56.5t52.5 -37.5t69 -13.5q39 0 70 13.5t52.5 37.5t33.5 56t12 69v415q0 8 5.5 13.5t13.5 5.5h67q8 0 13.5 -5.5t5.5 -13.5v-420q0 -57 -20.5 -106.5t-57 -86t-86.5 -57.5t-109 -21 t-108.5 21t-85.5 57.5t-56.5 86t-20.5 106.5v420zM291 774q-18 -8 -24 5l-14 28q-3 6 -0.5 11.5t6.5 7.5l157 91q5 3 13.5 3.5t12.5 -6.5l23 -44q5 -8 2.5 -14.5t-8.5 -9.5l-168 -72v0z" />
<glyph unicode="&#xdb;" horiz-adv-x="721" d="M88 681q0 8 5.5 13.5t13.5 5.5h67q8 0 13.5 -5.5t5.5 -13.5v-413q0 -38 11.5 -70.5t33 -56.5t52.5 -37.5t69 -13.5q39 0 70 13.5t52.5 37.5t33.5 56t12 69v415q0 8 5.5 13.5t13.5 5.5h67q8 0 13.5 -5.5t5.5 -13.5v-420q0 -57 -20.5 -106.5t-57 -86t-86.5 -57.5t-109 -21 t-108.5 21t-85.5 57.5t-56.5 86t-20.5 106.5v420zM261 769q-9 -5 -13.5 -4t-9.5 7l-20 27q-4 5 -1.5 10.5t7.5 8.5l125 98q5 4 12 4t12 -4l125 -98q5 -3 7.5 -8.5t-1.5 -10.5l-20 -27q-5 -6 -9.5 -7.5t-13.5 4.5l-100 65l-100 -65v0z" />
<glyph unicode="&#xdc;" horiz-adv-x="721" d="M88 681q0 8 5.5 13.5t13.5 5.5h67q8 0 13.5 -5.5t5.5 -13.5v-413q0 -38 11.5 -70.5t33 -56.5t52.5 -37.5t69 -13.5q39 0 70 13.5t52.5 37.5t33.5 56t12 69v415q0 8 5.5 13.5t13.5 5.5h67q8 0 13.5 -5.5t5.5 -13.5v-420q0 -57 -20.5 -106.5t-57 -86t-86.5 -57.5t-109 -21 t-108.5 21t-85.5 57.5t-56.5 86t-20.5 106.5v420zM478 782q-23 0 -39.5 17t-16.5 40t16.5 39.5t39.5 16.5t40 -16.5t17 -39.5t-17 -40t-40 -17zM249 782q-23 0 -39.5 17t-16.5 40t16.5 39.5t39.5 16.5t40 -16.5t17 -39.5t-17 -40t-40 -17z" />
<glyph unicode="&#xdd;" horiz-adv-x="574" d="M234 337l-234 334q-6 10 -1 19.5t17 9.5h74q6 0 10 -3t6 -6l181 -255l181 255q2 3 6.5 6t9.5 3h75q12 0 17 -9.5t-1 -19.5l-237 -333v-319q0 -8 -5.5 -13.5t-13.5 -5.5h-66q-8 0 -13.5 5.5t-5.5 13.5v318zM218 774q-18 -8 -24 5l-14 28q-3 6 -0.5 11.5t6.5 7.5l157 91 q5 3 13.5 3.5t12.5 -6.5l23 -44q5 -8 2.5 -14.5t-8.5 -9.5l-168 -72v0z" />
<glyph unicode="&#xde;" horiz-adv-x="594" d="M97 681q0 8 5.5 13.5t13.5 5.5h65q8 0 13.5 -5.5t5.5 -13.5v-108h144q46 0 87 -17.5t71.5 -47.5t48 -70.5t17.5 -85.5q0 -47 -17.5 -87.5t-48 -71.5t-71 -48.5t-86.5 -17.5h-145v-108q0 -8 -5.5 -13.5t-13.5 -5.5h-65q-8 0 -13.5 5.5t-5.5 13.5v662zM338 225q26 0 49 10 t40.5 27t27.5 41t10 51q0 25 -10 47t-27.5 38.5t-40.5 25.5t-49 9h-138v-249h138z" />
<glyph unicode="&#xdf;" horiz-adv-x="519" d="M65 411q0 150 59 224.5t164 74.5q31 0 61.5 -9t54 -27.5t38 -48t14.5 -69.5q0 -35 -13 -64.5t-29 -55t-29 -46.5t-13 -39q0 -12 17.5 -28.5t39 -40t39 -55t17.5 -73.5q0 -32 -11.5 -62t-33 -52.5t-53.5 -36t-74 -13.5q-15 0 -24 0.5t-20 2.5q-15 1 -15 21v46q0 6 4 11.5 t15 4.5q8 -1 17 -2.5t23 -1.5q34 0 54 22t20 59q0 30 -18.5 54t-40 45t-40 42t-18.5 46q0 24 13.5 51t30 54.5t30.5 54.5t14 52q0 35 -23.5 54t-53.5 19q-52 0 -86 -50.5t-34 -164.5v-391q0 -8 -5.5 -13.5t-13.5 -5.5h-58q-8 0 -13.5 5.5t-5.5 13.5v392z" />
<glyph unicode="&#xe0;" horiz-adv-x="422" d="M36 124q0 55 41.5 92t118.5 37q16 0 30 -2t25 -4l24 -6q1 48 -11.5 68t-50.5 20q-35 0 -65.5 -6.5t-46.5 -11.5q-9 -2 -14.5 3t-7.5 13l-8 37q-2 10 2 15.5t11 7.5q3 1 14.5 5t29.5 8t42 7t52 3q48 0 76 -14t42 -38t18 -56.5t4 -69.5v-213q0 -8 -5.5 -13.5t-13.5 -5.5 h-28q-11 0 -17 14l-10 27q-17 -16 -46.5 -33.5t-76.5 -17.5q-57 0 -93 35.5t-36 98.5zM123 125q0 -27 16.5 -45.5t44.5 -18.5q15 0 29 5t26 12.5t21 16t14 16.5v64q-5 3 -24 9.5t-46 6.5q-36 0 -58.5 -17.5t-22.5 -48.5zM124 615q-14 7 -6 24l23 44q4 7 12.5 6.5t13.5 -3.5 l157 -91q5 -2 7 -7.5t-1 -11.5l-14 -29q-3 -6 -8 -7.5t-16 3.5z" />
<glyph unicode="&#xe1;" horiz-adv-x="422" d="M36 124q0 55 41.5 92t118.5 37q16 0 30 -2t25 -4l24 -6q1 48 -11.5 68t-50.5 20q-35 0 -65.5 -6.5t-46.5 -11.5q-9 -2 -14.5 3t-7.5 13l-8 37q-2 10 2 15.5t11 7.5q3 1 14.5 5t29.5 8t42 7t52 3q48 0 76 -14t42 -38t18 -56.5t4 -69.5v-213q0 -8 -5.5 -13.5t-13.5 -5.5 h-28q-11 0 -17 14l-10 27q-17 -16 -46.5 -33.5t-76.5 -17.5q-57 0 -93 35.5t-36 98.5zM123 125q0 -27 16.5 -45.5t44.5 -18.5q15 0 29 5t26 12.5t21 16t14 16.5v64q-5 3 -24 9.5t-46 6.5q-36 0 -58.5 -17.5t-22.5 -48.5zM139 543q-11 -5 -16 -3.5t-8 7.5l-14 29 q-3 6 -1 11.5t7 7.5l157 91q5 3 13.5 3.5t12.5 -6.5l23 -44q8 -17 -6 -24l-168 -72v0z" />
<glyph unicode="&#xe2;" horiz-adv-x="422" d="M36 124q0 55 41.5 92t118.5 37q16 0 30 -2t25 -4l24 -6q1 48 -11.5 68t-50.5 20q-35 0 -65.5 -6.5t-46.5 -11.5q-9 -2 -14.5 3t-7.5 13l-8 37q-2 10 2 15.5t11 7.5q3 1 14.5 5t29.5 8t42 7t52 3q48 0 76 -14t42 -38t18 -56.5t4 -69.5v-213q0 -8 -5.5 -13.5t-13.5 -5.5 h-28q-11 0 -17 14l-10 27q-17 -16 -46.5 -33.5t-76.5 -17.5q-57 0 -93 35.5t-36 98.5zM123 125q0 -27 16.5 -45.5t44.5 -18.5q15 0 29 5t26 12.5t21 16t14 16.5v64q-5 3 -24 9.5t-46 6.5q-36 0 -58.5 -17.5t-22.5 -48.5zM70 569q-4 5 -1.5 10.5t7.5 8.5l125 98q5 4 12 4 t12 -4l125 -98q5 -3 7.5 -8.5t-1.5 -10.5l-20 -27q-5 -6 -9.5 -7.5t-13.5 4.5l-100 65l-100 -65q-9 -5 -13.5 -4t-9.5 7z" />
<glyph unicode="&#xe3;" horiz-adv-x="422" d="M36 124q0 55 41.5 92t118.5 37q16 0 30 -2t25 -4l24 -6q1 48 -11.5 68t-50.5 20q-35 0 -65.5 -6.5t-46.5 -11.5q-9 -2 -14.5 3t-7.5 13l-8 37q-2 10 2 15.5t11 7.5q3 1 14.5 5t29.5 8t42 7t52 3q48 0 76 -14t42 -38t18 -56.5t4 -69.5v-213q0 -8 -5.5 -13.5t-13.5 -5.5 h-28q-11 0 -17 14l-10 27q-17 -16 -46.5 -33.5t-76.5 -17.5q-57 0 -93 35.5t-36 98.5zM123 125q0 -27 16.5 -45.5t44.5 -18.5q15 0 29 5t26 12.5t21 16t14 16.5v64q-5 3 -24 9.5t-46 6.5q-36 0 -58.5 -17.5t-22.5 -48.5zM68 583q-8 5 -8 11.5t2 11.5q3 7 10.5 21t19.5 28 t29 24.5t39 10.5t37 -10t27 -22t22.5 -22t22.5 -10q9 0 15 4t10.5 10t8 13t7.5 13q5 8 10.5 11t14.5 -2q6 -5 13.5 -9t12.5 -10q4 -6 2.5 -12.5t-5.5 -14.5t-11.5 -21t-19 -25t-27 -20.5t-36.5 -8.5q-19 0 -34 10t-27.5 22.5t-23.5 22.5t-22 10q-18 0 -28 -15.5t-15 -25.5 q-4 -8 -8.5 -11.5t-14.5 1.5z" />
<glyph unicode="&#xe4;" horiz-adv-x="422" d="M36 124q0 55 41.5 92t118.5 37q16 0 30 -2t25 -4l24 -6q1 48 -11.5 68t-50.5 20q-35 0 -65.5 -6.5t-46.5 -11.5q-9 -2 -14.5 3t-7.5 13l-8 37q-2 10 2 15.5t11 7.5q3 1 14.5 5t29.5 8t42 7t52 3q48 0 76 -14t42 -38t18 -56.5t4 -69.5v-213q0 -8 -5.5 -13.5t-13.5 -5.5 h-28q-11 0 -17 14l-10 27q-17 -16 -46.5 -33.5t-76.5 -17.5q-57 0 -93 35.5t-36 98.5zM123 125q0 -27 16.5 -45.5t44.5 -18.5q15 0 29 5t26 12.5t21 16t14 16.5v64q-5 3 -24 9.5t-46 6.5q-36 0 -58.5 -17.5t-22.5 -48.5zM317 567q-23 0 -39.5 16.5t-16.5 39.5 q0 24 16.5 40.5t39.5 16.5q24 0 40.5 -16.5t16.5 -40.5q0 -23 -16.5 -39.5t-40.5 -16.5zM120 567q-23 0 -39.5 16.5t-16.5 39.5q0 24 16.5 40.5t39.5 16.5q24 0 40.5 -16.5t16.5 -40.5q0 -23 -16.5 -39.5t-40.5 -16.5z" />
<glyph unicode="&#xe5;" horiz-adv-x="422" d="M36 124q0 55 41.5 92t118.5 37q16 0 30 -2t25 -4l24 -6q1 48 -11.5 68t-50.5 20q-35 0 -65.5 -6.5t-46.5 -11.5q-9 -2 -14.5 3t-7.5 13l-8 37q-2 10 2 15.5t11 7.5q3 1 14.5 5t29.5 8t42 7t52 3q48 0 76 -14t42 -38t18 -56.5t4 -69.5v-213q0 -8 -5.5 -13.5t-13.5 -5.5 h-28q-11 0 -17 14l-10 27q-17 -16 -46.5 -33.5t-76.5 -17.5q-57 0 -93 35.5t-36 98.5zM123 125q0 -27 16.5 -45.5t44.5 -18.5q15 0 29 5t26 12.5t21 16t14 16.5v64q-5 3 -24 9.5t-46 6.5q-36 0 -58.5 -17.5t-22.5 -48.5zM217 488q-23 0 -43.5 8.5t-35.5 23.5t-23.5 35.5 t-8.5 43.5t8.5 43.5t23.5 35.5t35.5 23.5t43.5 8.5t43 -8.5t35 -23.5t24 -35.5t9 -43.5t-9 -43.5t-24 -35.5t-35 -23.5t-43 -8.5zM217 543q22 0 37.5 17t15.5 39t-15.5 37.5t-37.5 15.5q-25 0 -40.5 -15.5t-15.5 -37.5t15.5 -39t40.5 -17z" />
<glyph unicode="&#xe6;" horiz-adv-x="677" d="M36 125q0 56 40 92t112 36q17 0 33 -1t27 -2q13 -2 24 -3q-1 47 -11 67t-45 20q-38 0 -70 -7.5t-48 -12.5q-8 -2 -14 2.5t-8 12.5l-7 40q-1 15 16 20q20 6 43 10q20 4 44.5 7.5t50.5 3.5q50 0 76.5 -12t40.5 -35q25 22 55 34.5t67 12.5q38 0 71.5 -13.5t58.5 -38 t39.5 -58.5t14.5 -75q0 -14 -3 -29t-18 -15h-275q1 -21 10 -40.5t24.5 -34.5t36.5 -24t47 -9q28 0 50.5 8.5t38.5 18.5q9 5 15.5 7t11.5 -6q8 -9 14.5 -17.5t14.5 -17.5q5 -6 6 -12t-9 -14q-22 -19 -59.5 -34.5t-88.5 -15.5q-94 0 -147 68q-8 -11 -22 -23t-32.5 -22 t-41 -16.5t-48.5 -6.5q-60 0 -97.5 36.5t-37.5 98.5zM553 245q-2 38 -28.5 63t-64.5 25q-40 0 -70 -25t-35 -63h198zM123 126q0 -32 21 -47.5t47 -15.5q16 0 29.5 5.5t24 13t18 15t10.5 12.5v72q-9 2 -20 5q-10 2 -23 3.5t-30 1.5q-31 0 -54 -17t-23 -48z" />
<glyph unicode="&#xe7;" horiz-adv-x="434" d="M185 -1q-32 9 -59.5 27.5t-47.5 44.5t-31.5 58.5t-11.5 69.5q0 44 17 82.5t46 67t67 45t80 16.5q46 0 81.5 -18t63.5 -53q5 -7 4 -15t-8 -13l-33 -30q-9 -8 -15 -4.5t-12 8.5q-14 15 -34.5 26.5t-45.5 11.5q-24 0 -45.5 -9.5t-37 -26.5t-24.5 -39.5t-9 -47.5 q0 -26 9 -48.5t24.5 -39.5t36.5 -26.5t45 -9.5q19 0 33 4.5t24.5 11t19 14.5t16.5 16q13 13 27 2l27 -22q17 -14 7 -28q-24 -38 -63.5 -60.5t-90.5 -23.5v-43q46 -6 73.5 -33t27.5 -70q0 -44 -30 -74t-75 -30q-23 0 -43 10t-33 25t1 27l17 14q5 4 11.5 4t10.5 -5 q8 -8 18 -11.5t18 -3.5q17 0 28 12.5t11 29.5q0 26 -23 39t-55 17q-11 2 -14 8.5t-3 10.5v82v0z" />
<glyph unicode="&#xe8;" horiz-adv-x="451" d="M36 200q0 42 14.5 80.5t40.5 67t63 45.5t82 17q39 0 72.5 -14t58.5 -38.5t39 -58.5t14 -74q0 -5 -0.5 -13.5t-1.5 -13.5q-2 -17 -18 -17h-272q1 -20 10 -39.5t24 -34.5t36 -24t45 -9q27 0 50.5 9.5t38.5 19.5q9 5 15 7t12 -6l28 -38q5 -6 6 -12t-8 -14 q-22 -19 -59.5 -34.5t-88.5 -15.5q-45 0 -82.5 16.5t-63.5 45t-40.5 67t-14.5 81.5zM327 244q-1 18 -8.5 34t-20 28.5t-29 19.5t-34.5 7q-41 0 -69 -25.5t-33 -63.5h194zM135 615q-14 7 -6 24l23 44q4 7 12.5 6.5t13.5 -3.5l157 -91q5 -2 7 -7.5t-1 -11.5l-14 -29 q-3 -6 -8 -7.5t-16 3.5z" />
<glyph unicode="&#xe9;" horiz-adv-x="451" d="M36 200q0 42 14.5 80.5t40.5 67t63 45.5t82 17q39 0 72.5 -14t58.5 -38.5t39 -58.5t14 -74q0 -5 -0.5 -13.5t-1.5 -13.5q-2 -17 -18 -17h-272q1 -20 10 -39.5t24 -34.5t36 -24t45 -9q27 0 50.5 9.5t38.5 19.5q9 5 15 7t12 -6l28 -38q5 -6 6 -12t-8 -14 q-22 -19 -59.5 -34.5t-88.5 -15.5q-45 0 -82.5 16.5t-63.5 45t-40.5 67t-14.5 81.5zM327 244q-1 18 -8.5 34t-20 28.5t-29 19.5t-34.5 7q-41 0 -69 -25.5t-33 -63.5h194zM165 543q-11 -5 -16 -3.5t-8 7.5l-14 29q-3 6 -1 11.5t7 7.5l157 91q5 3 13.5 3.5t12.5 -6.5l23 -44 q8 -17 -6 -24l-168 -72v0z" />
<glyph unicode="&#xea;" horiz-adv-x="451" d="M36 200q0 42 14.5 80.5t40.5 67t63 45.5t82 17q39 0 72.5 -14t58.5 -38.5t39 -58.5t14 -74q0 -5 -0.5 -13.5t-1.5 -13.5q-2 -17 -18 -17h-272q1 -20 10 -39.5t24 -34.5t36 -24t45 -9q27 0 50.5 9.5t38.5 19.5q9 5 15 7t12 -6l28 -38q5 -6 6 -12t-8 -14 q-22 -19 -59.5 -34.5t-88.5 -15.5q-45 0 -82.5 16.5t-63.5 45t-40.5 67t-14.5 81.5zM327 244q-1 18 -8.5 34t-20 28.5t-29 19.5t-34.5 7q-41 0 -69 -25.5t-33 -63.5h194zM93 569q-4 5 -1.5 10.5t7.5 8.5l125 98q5 4 12 4t12 -4l125 -98q5 -3 7.5 -8.5t-1.5 -10.5l-20 -27 q-5 -6 -9.5 -7.5t-13.5 4.5l-100 65l-100 -65q-9 -5 -13.5 -4t-9.5 7z" />
<glyph unicode="&#xeb;" horiz-adv-x="451" d="M36 200q0 42 14.5 80.5t40.5 67t63 45.5t82 17q39 0 72.5 -14t58.5 -38.5t39 -58.5t14 -74q0 -5 -0.5 -13.5t-1.5 -13.5q-2 -17 -18 -17h-272q1 -20 10 -39.5t24 -34.5t36 -24t45 -9q27 0 50.5 9.5t38.5 19.5q9 5 15 7t12 -6l28 -38q5 -6 6 -12t-8 -14 q-22 -19 -59.5 -34.5t-88.5 -15.5q-45 0 -82.5 16.5t-63.5 45t-40.5 67t-14.5 81.5zM327 244q-1 18 -8.5 34t-20 28.5t-29 19.5t-34.5 7q-41 0 -69 -25.5t-33 -63.5h194zM331 567q-23 0 -39.5 16.5t-16.5 39.5q0 24 16.5 40.5t39.5 16.5q24 0 40.5 -16.5t16.5 -40.5 q0 -23 -16.5 -39.5t-40.5 -16.5zM134 567q-23 0 -39.5 16.5t-16.5 39.5q0 24 16.5 40.5t39.5 16.5q24 0 40.5 -16.5t16.5 -40.5q0 -23 -16.5 -39.5t-40.5 -16.5z" />
<glyph unicode="&#xec;" horiz-adv-x="225" d="M65 381q0 8 5.5 13.5t13.5 5.5h57q8 0 13.5 -5.5t5.5 -13.5v-362q0 -8 -5.5 -13.5t-13.5 -5.5h-57q-8 0 -13.5 5.5t-5.5 13.5v362zM12 615q-14 7 -6 24l23 44q4 7 12.5 6.5t13.5 -3.5l157 -91q5 -2 7 -7.5t-1 -11.5l-14 -29q-3 -6 -8 -7.5t-16 3.5z" />
<glyph unicode="&#xed;" horiz-adv-x="225" d="M65 381q0 8 5.5 13.5t13.5 5.5h57q8 0 13.5 -5.5t5.5 -13.5v-362q0 -8 -5.5 -13.5t-13.5 -5.5h-57q-8 0 -13.5 5.5t-5.5 13.5v362zM43 543q-11 -5 -16 -3.5t-8 7.5l-14 29q-3 6 -1 11.5t7 7.5l157 91q5 3 13.5 3.5t12.5 -6.5l23 -44q8 -17 -6 -24l-168 -72v0z" />
<glyph unicode="&#xee;" horiz-adv-x="225" d="M65 381q0 8 5.5 13.5t13.5 5.5h57q8 0 13.5 -5.5t5.5 -13.5v-362q0 -8 -5.5 -13.5t-13.5 -5.5h-57q-8 0 -13.5 5.5t-5.5 13.5v362zM-30 569q-4 5 -1.5 10.5t7.5 8.5l125 98q5 4 12 4t12 -4l125 -98q5 -3 7.5 -8.5t-1.5 -10.5l-20 -27q-5 -6 -9.5 -7.5t-13.5 4.5l-100 65 l-100 -65q-9 -5 -13.5 -4t-9.5 7z" />
<glyph unicode="&#xef;" horiz-adv-x="225" d="M65 381q0 8 5.5 13.5t13.5 5.5h57q8 0 13.5 -5.5t5.5 -13.5v-362q0 -8 -5.5 -13.5t-13.5 -5.5h-57q-8 0 -13.5 5.5t-5.5 13.5v362zM211 567q-23 0 -39.5 16.5t-16.5 39.5q0 24 16.5 40.5t39.5 16.5q24 0 40.5 -16.5t16.5 -40.5q0 -23 -16.5 -39.5t-40.5 -16.5zM14 567 q-23 0 -39.5 16.5t-16.5 39.5q0 24 16.5 40.5t39.5 16.5q24 0 40.5 -16.5t16.5 -40.5q0 -23 -16.5 -39.5t-40.5 -16.5z" />
<glyph unicode="&#xf0;" horiz-adv-x="535" d="M34 219q0 52 18 92t47 68t67 42.5t78 14.5q25 0 47.5 -5t40.5 -11.5t30 -12.5t15 -8q-13 47 -46 85t-71 67l-89 -51q-7 -4 -14 -2t-11 8l-5 10q-4 6 -2.5 13.5t8.5 11.5l69 40q-29 17 -50 26.5t-33 14.5q-21 8 -13 27l18 43q7 16 24 10q23 -8 59.5 -25.5t78.5 -46.5 l69 40q8 4 15 1.5t11 -9.5l6 -9q4 -6 2 -13.5t-9 -11.5l-53 -31q30 -26 57.5 -58.5t48.5 -73t33.5 -89t12.5 -106.5t-14.5 -109t-43.5 -89t-73 -60t-104 -22q-46 0 -86.5 18t-71 49t-48.5 73t-18 89zM126 218q0 -28 10.5 -53t28.5 -44t42 -30t51 -11q41 0 69 19t44.5 48.5 t22 64t2.5 66.5q-2 7 -12.5 19.5t-28 25t-42 22t-54.5 9.5q-28 0 -52 -10.5t-42 -29t-28.5 -43.5t-10.5 -53z" />
<glyph unicode="&#xf1;" horiz-adv-x="507" d="M65 381q0 8 5.5 13.5t13.5 5.5h29q13 0 16 -12l12 -34q3 3 14 12t29 19t42.5 17.5t54.5 7.5q46 0 77.5 -15t51.5 -41t29 -60.5t9 -73.5v-201q0 -8 -5.5 -13.5t-13.5 -5.5h-57q-8 0 -13.5 5.5t-5.5 13.5v205q0 48 -22 73.5t-61 25.5q-24 0 -43.5 -7.5t-34 -17.5t-23 -20 t-10.5 -15v-244q0 -19 -23 -19h-52q-8 0 -13.5 5.5t-5.5 13.5v362zM116 583q-8 5 -8 11.5t2 11.5q3 7 10.5 21t19.5 28t29 24.5t39 10.5t37 -10t27 -22t22.5 -22t22.5 -10q9 0 15 4t10.5 10t8 13t7.5 13q5 8 10.5 11t14.5 -2q6 -5 13.5 -9t12.5 -10q4 -6 2.5 -12.5 t-5.5 -14.5t-11.5 -21t-19 -25t-27 -20.5t-36.5 -8.5q-19 0 -34 10t-27.5 22.5t-23.5 22.5t-22 10q-18 0 -28 -15.5t-15 -25.5q-4 -8 -8.5 -11.5t-14.5 1.5z" />
<glyph unicode="&#xf2;" horiz-adv-x="474" d="M35 201q0 42 16 80t43 66.5t64 45.5t79 17t79 -17t64 -45.5t43 -66.5t16 -80q0 -43 -16 -81.5t-43 -67t-64 -45.5t-79 -17t-79 17t-64 45.5t-43 67t-16 81.5zM124 201q0 -26 9 -48.5t24 -39.5t35.5 -27t44.5 -10t44.5 10t35.5 27t24 39.5t9 48.5q0 25 -9 47.5t-24 39 t-35.5 26t-44.5 9.5t-44.5 -9.5t-35.5 -26t-24 -39t-9 -47.5zM138 615q-14 7 -6 24l23 44q4 7 12.5 6.5t13.5 -3.5l157 -91q5 -2 7 -7.5t-1 -11.5l-14 -29q-3 -6 -8 -7.5t-16 3.5z" />
<glyph unicode="&#xf3;" horiz-adv-x="474" d="M35 201q0 42 16 80t43 66.5t64 45.5t79 17t79 -17t64 -45.5t43 -66.5t16 -80q0 -43 -16 -81.5t-43 -67t-64 -45.5t-79 -17t-79 17t-64 45.5t-43 67t-16 81.5zM124 201q0 -26 9 -48.5t24 -39.5t35.5 -27t44.5 -10t44.5 10t35.5 27t24 39.5t9 48.5q0 25 -9 47.5t-24 39 t-35.5 26t-44.5 9.5t-44.5 -9.5t-35.5 -26t-24 -39t-9 -47.5zM168 543q-11 -5 -16 -3.5t-8 7.5l-14 29q-3 6 -1 11.5t7 7.5l157 91q5 3 13.5 3.5t12.5 -6.5l23 -44q8 -17 -6 -24l-168 -72v0z" />
<glyph unicode="&#xf4;" horiz-adv-x="474" d="M35 201q0 42 16 80t43 66.5t64 45.5t79 17t79 -17t64 -45.5t43 -66.5t16 -80q0 -43 -16 -81.5t-43 -67t-64 -45.5t-79 -17t-79 17t-64 45.5t-43 67t-16 81.5zM124 201q0 -26 9 -48.5t24 -39.5t35.5 -27t44.5 -10t44.5 10t35.5 27t24 39.5t9 48.5q0 25 -9 47.5t-24 39 t-35.5 26t-44.5 9.5t-44.5 -9.5t-35.5 -26t-24 -39t-9 -47.5zM93 569q-4 5 -1.5 10.5t7.5 8.5l125 98q5 4 12 4t12 -4l125 -98q5 -3 7.5 -8.5t-1.5 -10.5l-20 -27q-5 -6 -9.5 -7.5t-13.5 4.5l-100 65l-100 -65q-9 -5 -13.5 -4t-9.5 7z" />
<glyph unicode="&#xf5;" horiz-adv-x="474" d="M35 201q0 42 16 80t43 66.5t64 45.5t79 17t79 -17t64 -45.5t43 -66.5t16 -80q0 -43 -16 -81.5t-43 -67t-64 -45.5t-79 -17t-79 17t-64 45.5t-43 67t-16 81.5zM124 201q0 -26 9 -48.5t24 -39.5t35.5 -27t44.5 -10t44.5 10t35.5 27t24 39.5t9 48.5q0 25 -9 47.5t-24 39 t-35.5 26t-44.5 9.5t-44.5 -9.5t-35.5 -26t-24 -39t-9 -47.5zM92 583q-8 5 -8 11.5t2 11.5q3 7 10.5 21t19.5 28t29 24.5t39 10.5t37 -10t27 -22t22.5 -22t22.5 -10q9 0 15 4t10.5 10t8 13t7.5 13q5 8 10.5 11t14.5 -2q6 -5 13.5 -9t12.5 -10q4 -6 2.5 -12.5t-5.5 -14.5 t-11.5 -21t-19 -25t-27 -20.5t-36.5 -8.5q-19 0 -34 10t-27.5 22.5t-23.5 22.5t-22 10q-18 0 -28 -15.5t-15 -25.5q-4 -8 -8.5 -11.5t-14.5 1.5z" />
<glyph unicode="&#xf6;" horiz-adv-x="474" d="M35 201q0 42 16 80t43 66.5t64 45.5t79 17t79 -17t64 -45.5t43 -66.5t16 -80q0 -43 -16 -81.5t-43 -67t-64 -45.5t-79 -17t-79 17t-64 45.5t-43 67t-16 81.5zM124 201q0 -26 9 -48.5t24 -39.5t35.5 -27t44.5 -10t44.5 10t35.5 27t24 39.5t9 48.5q0 25 -9 47.5t-24 39 t-35.5 26t-44.5 9.5t-44.5 -9.5t-35.5 -26t-24 -39t-9 -47.5zM334 567q-23 0 -39.5 16.5t-16.5 39.5q0 24 16.5 40.5t39.5 16.5q24 0 40.5 -16.5t16.5 -40.5q0 -23 -16.5 -39.5t-40.5 -16.5zM137 567q-23 0 -39.5 16.5t-16.5 39.5q0 24 16.5 40.5t39.5 16.5q24 0 40.5 -16.5 t16.5 -40.5q0 -23 -16.5 -39.5t-40.5 -16.5z" />
<glyph unicode="&#xf7;" horiz-adv-x="518" d="M256 471q-26 0 -44.5 18.5t-18.5 44.5t18.5 44.5t44.5 18.5t44.5 -18.5t18.5 -44.5t-18.5 -44.5t-44.5 -18.5zM66 306q-8 0 -13.5 5.5t-5.5 13.5v42q0 8 5.5 13.5t13.5 5.5h387q8 0 13 -5.5t5 -13.5v-42q0 -8 -5 -13.5t-13 -5.5h-387zM193 165q0 26 18.5 44.5t44.5 18.5 t44.5 -18.5t18.5 -44.5t-18.5 -44.5t-44.5 -18.5t-44.5 18.5t-18.5 44.5z" />
<glyph unicode="&#xf8;" horiz-adv-x="473" d="M59 26q-6 5 -6 13t5 13l19 19q-20 27 -30.5 61t-10.5 70q0 42 15.5 80t43 66.5t64 45t78.5 16.5q36 0 68.5 -13t58.5 -35l24 23q5 6 13 6t13 -6l8 -7q6 -5 6 -13t-6 -13l-25 -25q20 -26 30.5 -58t10.5 -67q0 -43 -15.5 -81.5t-43 -67.5t-64 -46t-78.5 -17q-36 0 -68.5 12 t-58.5 34l-18 -18q-5 -5 -13 -4.5t-14 5.5zM302 300q-28 23 -65 23q-24 0 -44.5 -9.5t-35.5 -26t-23.5 -38.5t-8.5 -47q0 -39 15 -66zM172 98q28 -22 65 -22q24 0 44.5 10t35.5 27t23.5 40t8.5 49q0 34 -15 61z" />
<glyph unicode="&#xf9;" horiz-adv-x="494" d="M59 381q0 8 5.5 13.5t13.5 5.5h57q8 0 13.5 -5.5t5.5 -13.5v-205q0 -49 22 -74.5t60 -25.5q22 0 40 8t30.5 18.5t20 21.5t8.5 18v239q0 12 5.5 15.5t16.5 3.5h52q8 0 13.5 -5.5t5.5 -13.5v-362q0 -8 -5.5 -13.5t-13.5 -5.5h-28q-13 0 -18 16l-10 29q-3 -3 -13 -12 t-26 -18.5t-39.5 -17t-53.5 -7.5q-45 0 -76 15t-50 40.5t-27.5 60t-8.5 73.5v202zM148 615q-14 7 -6 24l23 44q4 7 12.5 6.5t13.5 -3.5l157 -91q5 -2 7 -7.5t-1 -11.5l-14 -29q-3 -6 -8 -7.5t-16 3.5z" />
<glyph unicode="&#xfa;" horiz-adv-x="494" d="M59 381q0 8 5.5 13.5t13.5 5.5h57q8 0 13.5 -5.5t5.5 -13.5v-205q0 -49 22 -74.5t60 -25.5q22 0 40 8t30.5 18.5t20 21.5t8.5 18v239q0 12 5.5 15.5t16.5 3.5h52q8 0 13.5 -5.5t5.5 -13.5v-362q0 -8 -5.5 -13.5t-13.5 -5.5h-28q-13 0 -18 16l-10 29q-3 -3 -13 -12 t-26 -18.5t-39.5 -17t-53.5 -7.5q-45 0 -76 15t-50 40.5t-27.5 60t-8.5 73.5v202zM181 543q-11 -5 -16 -3.5t-8 7.5l-14 29q-3 6 -1 11.5t7 7.5l157 91q5 3 13.5 3.5t12.5 -6.5l23 -44q8 -17 -6 -24l-168 -72v0z" />
<glyph unicode="&#xfb;" horiz-adv-x="494" d="M59 381q0 8 5.5 13.5t13.5 5.5h57q8 0 13.5 -5.5t5.5 -13.5v-205q0 -49 22 -74.5t60 -25.5q22 0 40 8t30.5 18.5t20 21.5t8.5 18v239q0 12 5.5 15.5t16.5 3.5h52q8 0 13.5 -5.5t5.5 -13.5v-362q0 -8 -5.5 -13.5t-13.5 -5.5h-28q-13 0 -18 16l-10 29q-3 -3 -13 -12 t-26 -18.5t-39.5 -17t-53.5 -7.5q-45 0 -76 15t-50 40.5t-27.5 60t-8.5 73.5v202zM106 569q-4 5 -1.5 10.5t7.5 8.5l125 98q5 4 12 4t12 -4l125 -98q5 -3 7.5 -8.5t-1.5 -10.5l-20 -27q-5 -6 -9.5 -7.5t-13.5 4.5l-100 65l-100 -65q-9 -5 -13.5 -4t-9.5 7z" />
<glyph unicode="&#xfc;" horiz-adv-x="494" d="M59 381q0 8 5.5 13.5t13.5 5.5h57q8 0 13.5 -5.5t5.5 -13.5v-205q0 -49 22 -74.5t60 -25.5q22 0 40 8t30.5 18.5t20 21.5t8.5 18v239q0 12 5.5 15.5t16.5 3.5h52q8 0 13.5 -5.5t5.5 -13.5v-362q0 -8 -5.5 -13.5t-13.5 -5.5h-28q-13 0 -18 16l-10 29q-3 -3 -13 -12 t-26 -18.5t-39.5 -17t-53.5 -7.5q-45 0 -76 15t-50 40.5t-27.5 60t-8.5 73.5v202zM349 567q-23 0 -39.5 16.5t-16.5 39.5q0 24 16.5 40.5t39.5 16.5q24 0 40.5 -16.5t16.5 -40.5q0 -23 -16.5 -39.5t-40.5 -16.5zM152 567q-23 0 -39.5 16.5t-16.5 39.5q0 24 16.5 40.5 t39.5 16.5q24 0 40.5 -16.5t16.5 -40.5q0 -23 -16.5 -39.5t-40.5 -16.5z" />
<glyph unicode="&#xfd;" horiz-adv-x="463" d="M11 374q-5 10 0.5 18t16.5 8h66q11 0 17 -11l124 -266h1l120 266q5 11 21 11h57q12 0 17 -8t0 -18l-306 -662q-2 -5 -6.5 -8.5t-10.5 -3.5h-60q-11 0 -16.5 8t-0.5 19l134 287zM167 543q-11 -5 -16 -3.5t-8 7.5l-14 29q-3 6 -1 11.5t7 7.5l157 91q5 3 13.5 3.5t12.5 -6.5 l23 -44q8 -17 -6 -24l-168 -72v0z" />
<glyph unicode="&#xfe;" horiz-adv-x="491" d="M162 -282q0 -8 -5.5 -13.5t-13.5 -5.5h-58q-8 0 -13.5 5.5t-5.5 13.5v963q0 8 5.5 13.5t13.5 5.5h58q8 0 13.5 -5.5t5.5 -13.5v-305q3 2 11 7.5t21 11.5t30.5 10.5t39.5 4.5q41 0 76 -17t60.5 -45.5t40 -67t14.5 -81.5q0 -44 -15 -82.5t-41.5 -66.5t-62.5 -44t-78 -16 q-19 0 -35 3.5t-28.5 8.5t-21 9t-11.5 6v-299zM162 107q2 -3 9 -7.5t18.5 -9.5t26.5 -8.5t32 -3.5q25 0 46 9.5t36 26t23.5 38.5t8.5 48q0 25 -7.5 47.5t-22 39.5t-35 27t-45.5 10q-19 0 -35 -6t-27.5 -14.5t-18.5 -16.5t-9 -12v-168z" />
<glyph unicode="&#xff;" horiz-adv-x="463" d="M11 374q-5 10 0.5 18t16.5 8h66q11 0 17 -11l124 -266h1l120 266q5 11 21 11h57q12 0 17 -8t0 -18l-306 -662q-2 -5 -6.5 -8.5t-10.5 -3.5h-60q-11 0 -16.5 8t-0.5 19l134 287zM334 567q-23 0 -39.5 16.5t-16.5 39.5q0 24 16.5 40.5t39.5 16.5q24 0 40.5 -16.5 t16.5 -40.5q0 -23 -16.5 -39.5t-40.5 -16.5zM137 567q-23 0 -39.5 16.5t-16.5 39.5q0 24 16.5 40.5t39.5 16.5q24 0 40.5 -16.5t16.5 -40.5q0 -23 -16.5 -39.5t-40.5 -16.5z" />
<glyph unicode="&#x131;" horiz-adv-x="225" d="M65 381q0 8 5.5 13.5t13.5 5.5h57q8 0 13.5 -5.5t5.5 -13.5v-362q0 -8 -5.5 -13.5t-13.5 -5.5h-57q-8 0 -13.5 5.5t-5.5 13.5v362z" />
<glyph unicode="&#x152;" horiz-adv-x="970" d="M46 349q0 75 28 141t76.5 114.5t114 77t140.5 28.5q19 0 35.5 -1.5t29.5 -3.5q15 -3 27 -5h400q8 0 13.5 -5.5t5.5 -13.5v-56q0 -8 -5.5 -13.5t-13.5 -5.5h-316v-204h267q8 0 13.5 -5.5t5.5 -13.5v-56q0 -8 -5.5 -13.5t-13.5 -5.5h-267v-215h316q8 0 13.5 -5.5t5.5 -13.5 v-55q0 -8 -5.5 -13.5t-13.5 -5.5h-400q-14 -3 -30 -5q-14 -2 -30 -3.5t-32 -1.5q-75 0 -140.5 28t-114 76.5t-76.5 114t-28 140.5zM146 349q0 -54 20.5 -101t55.5 -82.5t82.5 -56t100.5 -20.5q19 0 37 2t36 8v500q-38 11 -73 11q-53 0 -100.5 -21t-82.5 -56.5t-55.5 -83 t-20.5 -100.5z" />
<glyph unicode="&#x153;" horiz-adv-x="756" d="M35 202q0 42 16 80t43 66.5t64 45t79 16.5q46 0 85 -20.5t66 -54.5q26 35 65 55t88 20q37 0 70.5 -13.5t59 -38t40 -58.5t14.5 -75q0 -5 -0.5 -13.5t-1.5 -13.5q-1 -8 -6.5 -12.5t-12.5 -4.5h-270q3 -20 12 -39.5t24 -34.5t34.5 -24.5t42.5 -9.5q28 0 50.5 8.5t38.5 18.5 q9 5 15.5 7t11.5 -6q8 -9 14.5 -17.5t14.5 -17.5q5 -6 6 -12t-9 -14q-21 -19 -59 -34.5t-89 -15.5q-48 0 -87 20t-66 54q-27 -34 -66 -54t-85 -20q-42 0 -79 17t-64 46t-43 67.5t-16 81.5zM632 244q-2 38 -28.5 62.5t-64.5 24.5q-40 0 -67.5 -24.5t-32.5 -62.5h193zM124 202 q0 -26 8.5 -49t24 -40t36 -27t44.5 -10t44.5 10t35.5 27t23.5 40t8.5 49q0 25 -8.5 47t-23.5 38.5t-35.5 26t-44.5 9.5t-44.5 -9.5t-36 -26t-24 -38.5t-8.5 -47z" />
<glyph unicode="&#x178;" horiz-adv-x="574" d="M234 337l-234 334q-6 10 -1 19.5t17 9.5h74q6 0 10 -3t6 -6l181 -255l181 255q2 3 6.5 6t9.5 3h75q12 0 17 -9.5t-1 -19.5l-237 -333v-319q0 -8 -5.5 -13.5t-13.5 -5.5h-66q-8 0 -13.5 5.5t-5.5 13.5v318zM400 782q-23 0 -39.5 17t-16.5 40t16.5 39.5t39.5 16.5t40 -16.5 t17 -39.5t-17 -40t-40 -17zM171 782q-23 0 -39.5 17t-16.5 40t16.5 39.5t39.5 16.5t40 -16.5t17 -39.5t-17 -40t-40 -17z" />
<glyph unicode="&#x2c6;" horiz-adv-x="373" d="M41 569q-4 5 -1.5 10.5t7.5 8.5l125 98q5 4 12 4t12 -4l125 -98q5 -3 7.5 -8.5t-1.5 -10.5l-20 -27q-5 -6 -9.5 -7.5t-13.5 4.5l-100 65l-100 -65q-9 -5 -13.5 -4t-9.5 7z" />
<glyph unicode="&#x2da;" horiz-adv-x="290" d="M145 488q-23 0 -43.5 8.5t-35.5 23.5t-23.5 35.5t-8.5 43.5t8.5 43.5t23.5 35.5t35.5 23.5t43.5 8.5t43 -8.5t35 -23.5t24 -35.5t9 -43.5t-9 -43.5t-24 -35.5t-35 -23.5t-43 -8.5zM145 543q22 0 37.5 17t15.5 39t-15.5 37.5t-37.5 15.5q-25 0 -40.5 -15.5t-15.5 -37.5 t15.5 -39t40.5 -17z" />
<glyph unicode="&#x2dc;" horiz-adv-x="380" d="M44 583q-8 5 -8 11.5t2 11.5q3 7 10.5 21t19.5 28t29 24.5t39 10.5t37 -10t27 -22t22.5 -22t22.5 -10q9 0 15 4t10.5 10t8 13t7.5 13q5 8 10.5 11t14.5 -2q6 -5 13.5 -9t12.5 -10q4 -6 2.5 -12.5t-5.5 -14.5t-11.5 -21t-19 -25t-27 -20.5t-36.5 -8.5q-19 0 -34 10 t-27.5 22.5t-23.5 22.5t-22 10q-18 0 -28 -15.5t-15 -25.5q-4 -8 -8.5 -11.5t-14.5 1.5z" />
<glyph unicode="&#x2000;" horiz-adv-x="489" />
<glyph unicode="&#x2001;" horiz-adv-x="978" />
<glyph unicode="&#x2002;" horiz-adv-x="489" />
<glyph unicode="&#x2003;" horiz-adv-x="978" />
<glyph unicode="&#x2004;" horiz-adv-x="326" />
<glyph unicode="&#x2005;" horiz-adv-x="244" />
<glyph unicode="&#x2006;" horiz-adv-x="163" />
<glyph unicode="&#x2007;" horiz-adv-x="163" />
<glyph unicode="&#x2008;" horiz-adv-x="122" />
<glyph unicode="&#x2009;" horiz-adv-x="195" />
<glyph unicode="&#x200a;" horiz-adv-x="54" />
<glyph unicode="&#x2010;" horiz-adv-x="390" d="M87 206q-8 0 -13.5 5t-5.5 13v43q0 19 19 19h216q19 0 19 -19v-43q0 -8 -5.5 -13t-13.5 -5h-216v0z" />
<glyph unicode="&#x2011;" horiz-adv-x="390" d="M87 206q-8 0 -13.5 5t-5.5 13v43q0 19 19 19h216q19 0 19 -19v-43q0 -8 -5.5 -13t-13.5 -5h-216v0z" />
<glyph unicode="&#x2012;" horiz-adv-x="390" d="M87 206q-8 0 -13.5 5t-5.5 13v43q0 19 19 19h216q19 0 19 -19v-43q0 -8 -5.5 -13t-13.5 -5h-216v0z" />
<glyph unicode="&#x2013;" horiz-adv-x="552" d="M85 276q-8 0 -13.5 5t-5.5 13v24q0 19 19 19h382q19 0 19 -19v-24q0 -8 -5.5 -13t-13.5 -5h-382v0z" />
<glyph unicode="&#x2014;" horiz-adv-x="772" d="M85 276q-8 0 -13.5 5t-5.5 13v24q0 19 19 19h602q19 0 19 -19v-24q0 -8 -5.5 -13t-13.5 -5h-602v0z" />
<glyph unicode="&#x2018;" horiz-adv-x="201" d="M105 420q-13 0 -26 4.5t-23.5 16t-17.5 30.5t-7 48q0 34 9.5 63t23 52.5t28.5 40.5t26 27q14 12 23 1l15 -15q9 -11 -5 -23q-4 -3 -14.5 -13t-21.5 -26t-20 -37t-9 -48q2 1 8 2t14 1q25 0 43.5 -18t18.5 -44t-19 -44t-46 -18z" />
<glyph unicode="&#x2019;" horiz-adv-x="198" d="M46 442q-5 5 -3.5 11.5t7.5 12.5q4 3 14.5 12.5t21.5 25.5t20 37.5t9 48.5q-2 -1 -7.5 -2t-13.5 -1q-26 0 -44 17.5t-18 43.5t18.5 44t45.5 18q13 0 26 -4.5t24 -15.5t18 -30t7 -48q0 -34 -9.5 -63.5t-23 -52.5t-28.5 -40t-26 -27q-13 -12 -24 -1z" />
<glyph unicode="&#x201a;" horiz-adv-x="230" d="M46 52q0 26 19 44t46 18q13 0 26 -4.5t23.5 -16t17.5 -30.5t7 -48q0 -34 -9.5 -63t-23 -52t-28.5 -40.5t-26 -27.5q-14 -11 -23 0l-15 14q-4 5 -3 11.5t8 11.5q4 3 14.5 13t21.5 25.5t20 37t9 48.5q-2 0 -8 -1.5t-14 -1.5q-25 0 -43.5 18t-18.5 44z" />
<glyph unicode="&#x201c;" horiz-adv-x="387" d="M292 422q-13 0 -26 4.5t-24 16t-18 30.5t-7 48q0 34 9.5 63t23 52t28.5 40.5t26 27.5q13 10 24 0l14 -14q5 -5 3.5 -11.5t-7.5 -11.5q-4 -3 -14.5 -13t-22 -26t-20 -37t-8.5 -48q2 0 7.5 1.5t13.5 1.5q26 0 44 -18t18 -44t-18.5 -44t-45.5 -18zM105 422q-13 0 -26 4.5 t-23.5 16t-17.5 30.5t-7 48q0 34 9.5 63t23 52t28.5 40.5t26 27.5q14 11 23 0l15 -14q4 -5 3 -11.5t-8 -11.5q-4 -3 -14.5 -13t-21.5 -26t-20 -37t-9 -48q2 0 8 1.5t14 1.5q25 0 43.5 -18t18.5 -44t-19 -44t-46 -18z" />
<glyph unicode="&#x201d;" horiz-adv-x="384" d="M232 442q-9 11 5 24q4 3 14.5 12.5t21.5 25.5t20 37.5t9 48.5q-2 -1 -8 -2t-14 -1q-25 0 -43.5 17.5t-18.5 43.5t19 44t46 18q13 0 26 -4.5t23.5 -15.5t17.5 -30t7 -48q0 -34 -9.5 -63.5t-23 -52.5t-28.5 -40t-26 -27q-14 -12 -23 -1zM46 442q-5 5 -3.5 11.5t7.5 12.5 q4 3 14.5 12.5t21.5 25.5t20 37.5t9 48.5q-2 -1 -7.5 -2t-13.5 -1q-26 0 -44 17.5t-18 43.5t18.5 44t45.5 18q13 0 26 -4.5t24 -15.5t18 -30t7 -48q0 -34 -9.5 -63.5t-23 -52.5t-28.5 -40t-26 -27q-13 -12 -24 -1z" />
<glyph unicode="&#x201e;" horiz-adv-x="416" d="M232 52q0 26 19 44t46 18q13 0 26 -4.5t23.5 -16t17.5 -30.5t7 -48q0 -34 -9.5 -63t-23 -52t-28.5 -40.5t-26 -27.5q-14 -11 -23 0l-15 14q-4 5 -3 11.5t8 11.5q4 3 14.5 13t21.5 25.5t20 37t9 48.5q-2 0 -8 -1.5t-14 -1.5q-25 0 -43.5 18t-18.5 44zM46 52q0 26 18.5 44 t45.5 18q13 0 26 -4.5t24 -16t18 -30.5t7 -48q0 -34 -9.5 -63t-23 -52t-28.5 -40.5t-26 -27.5q-14 -11 -24 0l-14 14q-5 5 -3.5 11.5t7.5 11.5q4 3 14.5 13t21.5 25.5t20 37t9 48.5q-2 0 -7.5 -1.5t-13.5 -1.5q-26 0 -44 18t-18 44z" />
<glyph unicode="&#x2022;" horiz-adv-x="371" d="M183 167q-24 0 -45 9.5t-37 25t-25.5 37t-9.5 45.5q0 25 9.5 47t25.5 38.5t37 26t45 9.5q25 0 47 -9.5t38.5 -26t26 -38.5t9.5 -47q0 -24 -9.5 -45.5t-26 -37t-38.5 -25t-47 -9.5z" />
<glyph unicode="&#x2026;" horiz-adv-x="646" d="M463 54q0 27 19 46t46 19t45.5 -19t18.5 -46q0 -26 -18.5 -45t-45.5 -19t-46 19t-19 45zM258 54q0 27 19 46t45 19q27 0 46 -19t19 -46q0 -26 -19 -45t-46 -19q-26 0 -45 19t-19 45zM53 54q0 27 19 46t45 19q27 0 46 -19t19 -46q0 -26 -19 -45t-46 -19q-26 0 -45 19 t-19 45z" />
<glyph unicode="&#x202f;" horiz-adv-x="195" />
<glyph unicode="&#x2039;" horiz-adv-x="262" d="M35 194q-5 6 -4 12.5t4 11.5l109 148q2 4 7 8t11 4h35q13 0 17 -9.5t-2 -21.5l-71 -139l68 -147q5 -12 1.5 -21t-16.5 -9h-40q-6 0 -9.5 2.5t-5.5 5.5z" />
<glyph unicode="&#x203a;" horiz-adv-x="262" d="M67 31q-13 0 -16.5 9t1.5 21l68 147l-71 139q-6 12 -2 21.5t17 9.5h35q6 0 11 -4t7 -8l109 -148q3 -5 4 -11.5t-4 -12.5l-104 -155q-2 -3 -5.5 -5.5t-9.5 -2.5h-40v0z" />
<glyph unicode="&#x205f;" horiz-adv-x="244" />
<glyph unicode="&#x20ac;" horiz-adv-x="724" d="M38 251q-8 0 -13 5.5t-5 13.5v10q0 8 5 13.5t13 5.5h39q-3 24 -3 50v11t1 11h-37q-8 0 -13 5.5t-5 13.5v10q0 8 5 13.5t13 5.5h43q12 62 44 115.5t79 92.5t106 61t125 22q76 0 133.5 -24t108.5 -69q15 -14 1 -28l-42 -43q-13 -15 -30 0q-35 32 -79 48.5t-91 16.5 q-45 0 -84.5 -14.5t-71 -40.5t-54 -61t-32.5 -76h257q8 0 13.5 -5.5t5.5 -13.5v-11q0 -8 -5.5 -13t-13.5 -5h-265q-1 -5 -1 -10v-10q0 -14 1 -26.5t4 -25.5h221q8 0 13.5 -5.5t5.5 -13.5v-11q0 -8 -5.5 -13t-13.5 -5h-206q13 -35 36 -64t53 -50t66 -33t77 -12q54 0 95 19 t77 47q13 10 24 1l46 -45q6 -5 5 -13.5t-6 -13.5q-51 -50 -113.5 -73.5t-129.5 -23.5q-62 0 -118 19.5t-102 54t-78.5 82.5t-48.5 105h-50v0z" />
<glyph unicode="&#x2122;" horiz-adv-x="721" d="M334 391q-10 0 -15.5 7t-3.5 16l52 276q2 6 7 10.5t12 4.5h4q5 0 10 -3.5t7 -7.5l84 -199l86 199q2 4 7 7.5t10 3.5h4q6 0 11.5 -4.5t7.5 -10.5l53 -277q2 -9 -4 -15.5t-15 -6.5h-26q-7 0 -12 5t-7 12l-28 145l-68 -156q-2 -4 -6.5 -6.5t-9.5 -2.5h-6q-4 0 -9.5 2.5 t-7.5 7.5l-65 155l-30 -146q-1 -6 -7 -11t-12 -5h-23zM151 391q-8 0 -13.5 5.5t-5.5 13.5v228h-67q-8 0 -13.5 5.5t-5.5 13.5v24q0 8 5.5 13.5t13.5 5.5h198q8 0 13.5 -5.5t5.5 -13.5v-24q0 -19 -19 -19h-67v-228q0 -8 -5.5 -13.5t-13.5 -5.5h-26z" />
<glyph unicode="&#x25fc;" horiz-adv-x="400" d="M0 400h400v-400h-400v400z" />
<glyph horiz-adv-x="302" d="M57 846q-14 7 -6 24l23 44q4 7 12.5 6.5t13.5 -3.5l157 -91q5 -2 7 -7.5t-1 -11.5l-14 -28q-3 -7 -8 -8.5t-16 3.5z" />
<glyph horiz-adv-x="302" d="M88 774q-18 -8 -24 5l-14 28q-3 6 -0.5 11.5t6.5 7.5l157 91q5 3 13.5 3.5t12.5 -6.5l23 -44q5 -8 2.5 -14.5t-8.5 -9.5l-168 -72v0z" />
<glyph horiz-adv-x="373" d="M84 769q-9 -5 -13.5 -4t-9.5 7l-20 27q-4 5 -1.5 10.5t7.5 8.5l125 98q5 4 12 4t12 -4l125 -98q5 -3 7.5 -8.5t-1.5 -10.5l-20 -27q-5 -6 -9.5 -7.5t-13.5 4.5l-100 65l-100 -65v0z" />
<glyph horiz-adv-x="380" d="M44 807q-8 5 -8 11.5t2 11.5q3 7 10.5 21t19.5 28t29 24.5t39 10.5t37 -10t27 -22t22.5 -22t22.5 -10q9 0 15 4t10.5 10t8 13t7.5 13q5 8 10.5 11t14.5 -2q6 -5 13.5 -9t12.5 -10q4 -6 2.5 -12.5t-5.5 -14.5t-11.5 -21t-19 -25t-27 -20.5t-36.5 -8.5q-19 0 -34 10 t-27.5 22.5t-23.5 22.5t-22 10q-18 0 -28 -15.5t-15 -25.5q-4 -8 -8.5 -11.5t-14.5 1.5z" />
<glyph horiz-adv-x="474" d="M351 782q-23 0 -39.5 17t-16.5 40t16.5 39.5t39.5 16.5t40 -16.5t17 -39.5t-17 -40t-40 -17zM122 782q-23 0 -39.5 17t-16.5 40t16.5 39.5t39.5 16.5t40 -16.5t17 -39.5t-17 -40t-40 -17z" />
<glyph horiz-adv-x="290" d="M145 756q-23 0 -43.5 8.5t-35.5 23.5t-23.5 35.5t-8.5 43.5t8.5 43.5t23.5 35.5t35.5 23.5t43.5 8.5t43 -8.5t35 -23.5t24 -35.5t9 -43.5t-9 -43.5t-24 -35.5t-35 -23.5t-43 -8.5zM145 811q22 0 37.5 17t15.5 39t-15.5 37.5t-37.5 15.5q-23 0 -39.5 -15.5t-16.5 -37.5 t16 -39t40 -17z" />
</font>
</defs>
</svg>
